<svg xmlns="http://www.w3.org/2000/svg" width="1080" height="1080" style="shape-rendering:geometricPrecision;text-rendering:geometricPrecision;image-rendering:optimizeQuality;fill-rule:evenodd;clip-rule:evenodd">
  <path fill="#e1f5f4" d="M648.5 124.5a364.5 364.5 0 0 0-235-1c2.9-2.1 6.2-3.6 10-4.5a351.3 351.3 0 0 1 199-4 190 190 0 0 1 26 9.5Z" style="opacity:.659"/>
  <path fill="#5b9b98" d="M648.5 124.5a37 37 0 0 0 13 5c11 5 22 10.2 33 15.5 7.9 4.8 15.9 9.3 24 13.5 5.7 4.4 11.7 8.4 18 12 2.3 2.5 5 4.5 8 6 8.8 7.2 17.4 14.7 26 22.5 11 10.8 21.3 22 31 33.5 1.6 3.9 3.9 7.2 7 10 7 10.8 13 22.2 18.5 34 1.8 3.5 3 7.2 3.5 11-.2 2.7 0 5.4.5 8 2.5 2.7 3 5.7 1.5 9 4.4 3.7 5.8 8.4 4 14a3 3 0 0 1-3 1c-.2 5 0 10 .5 15 1 .8 2.2 1.2 3.5 1-.2-4.7 0-9.3.5-14a35.4 35.4 0 0 1 2.5 19c-2.8-1.8-5.2-1.3-7 1.5 2.4 1.4 5.1 1.9 8 1.5 1.2 13.3 1.2 26.7 0 40a168 168 0 0 0-2 6.5l2 1a30 30 0 0 1-3 9.5 2186 2186 0 0 0-11-7 283.6 283.6 0 0 0-47-29.5c-5-2-10-3.8-15-5.5a211.3 211.3 0 0 0-56-105.5 142.3 142.3 0 0 0-84-37c-27.4-2.2-54.4 0-81 6.5-75-24-144-12.7-207 34-.8-1.2-1.8-1.2-3 0-.5-3-2.2-4.2-5-3.5-.3 2-.3 4.1 0 6.5h-4c.3-2.7 0-5.4-1-8-2 1-4 1.2-6 .5 1.6-1.5 1.8-2.7.5-3.5a15 15 0 0 0-6.5 5c-3.7-1.6-5.7-.3-6 4-1.2.7-2.6 1-4 1v4c2.5-1 5.2-1.8 8-2.5 2-.6 3.5-1.7 4.5-3.5 3.2.9 6.4 1.9 9.5 3v3c-2.2.2-3.8-.6-5-2.5a6.5 6.5 0 0 0-5 0 15.6 15.6 0 0 1-9.5 6.5c-.1 1.6.4 3.1 1.5 4.5-.4 1.6-1 3.1-2 4.5a6.8 6.8 0 0 0-4.5-5 4.2 4.2 0 0 0 0 4 11 11 0 0 1 3.5 6c-2.3.2-4.4.9-6.5 2-3-1.7-4.2-.7-3.5 3-2.2-.4-4-1.4-5.5-3-4.9 1.9-7.2 5.6-7 11a262 262 0 0 1-7 8 13 13 0 0 0-.5 5c1.4 0 2.8-.3 4-1 .8.5 1.1 1.1 1 2a201 201 0 0 1-11 15c-1 2-1.6 4-2 6a88.2 88.2 0 0 1-6 11 39 39 0 0 0-4.5 2c0 5.6-1.7 10.6-5 15-.2 2.2-.7 4.2-1.5 6a9 9 0 0 0-3 3c-1.2-.7-2.6-1-4-1 1.3 2.9 2.3 5.9 3 9-2 5.2-3 10.5-3 16v1c-3 6.2-4.3 12.8-4 20v4c-1.7 5.4-2.4 11-2 17-1.2.8-2 2.2-2 4 0 6.8-1.3 13.1-4 19 .3 2.8 1.7 3.5 4 2 5.6 3 8.3 7.5 8 13.5l1 .5c1-2.2 1.3-4.6 1-7 1-.1 2 0 3 .5 1.3 2 3 3.5 5 4.5a79.3 79.3 0 0 1 0 23c-1.3.8-2.5 1.8-3.5 3-.2 3.4-.7 6.7-1.5 10-.9-2.4-1.9-4.8-3-7 1.7-2.4 2.2-5 1.5-8-.7-1.3-1.3-1.3-2 0-2.1 7.6-2 15 .5 22.5l-1 5.5-2-1c-1 3.3-1.3 6.6-1 10h-4c.3 3-1 4.8-4 5-1.7 14.7-3.3 14.7-5 0-2.7-.4-4 .7-4 3.5 2 2.7 3 5.9 3 9.5 3.7-.1 4.6 1.2 2.5 4-5.5-3.4-7.7-1.7-6.5 5h5c.2 2 0 4-.5 6a4.8 4.8 0 0 0-2.5 5c-4 0-8-.3-12-1v-5h-5v9c-2.4-.3-4.8 0-7 1 1.5 0 3.2.3 5 1-2 1.5-3 3.5-3 6a61 61 0 0 1-11-.5 5.8 5.8 0 0 0 2-5.5c-2 0-4-.6-5.5-2-.5-1.5 0-2.7 1.5-3.5-2.2-1.4-4.6-1.2-7 .5-2.3-1.5-3-1.2-2 1-.5.7-1.2 1.2-2 1.5 2.3.7 4.6 1.2 7 1.5v3c-2.7.4-5.3 1-8 1.5-.6 1.6-1.5 3.1-2.5 4.5-.4-.5-1-.8-1.5-1l-2 4.5c1 .5 2 .6 3 .5.3 3.7 0 7.4-1 11-1-.8-2-1-3-.5 1.3 1 1.3 2 0 3 6.7 6.9 7.6 14.4 2.5 22.5l-6 4c-1.2 5.4-4.7 8-10.5 8a15.5 15.5 0 0 1-7 9c.5-2 1.4-4 2.5-6a829 829 0 0 1 17.5-16c2-1 3.4-2.7 4-5v-7a507 507 0 0 1-10.5-22c-.7-2.7-.7-5.3 0-8 1.7-1.5 3.2-3.2 4.5-5 5.9-3.4 11.5-7.1 17-11 4.7-1.9 7.4-5.4 8-10.5-1-1.7-2.3-3-4-4a265 265 0 0 0-23-.5h-4c-7.2-1.5-14.5-2.9-22-4-2.7 0-5-.6-7-2-2.8-2-5.8-3.6-9-5a24 24 0 0 1-7-23c3.5-7.6 7.5-15 12-22a36 36 0 0 0 6-8c4.7-4.7 9-9.7 13-15a1693 1693 0 0 0 56.5-63c5-6.7 9.7-13.7 14-21a91 91 0 0 0 6.5-17c.2-2.7 0-5.4-.5-8a5.3 5.3 0 0 1-2.5-4c-3-3.5-6.1-6.8-9.5-10-3.7-5.3-4.4-11-2-17l8.5-19c9.9-17.2 20.2-34.2 31-51a543.3 543.3 0 0 1 58-66c12.2-10 24.5-19.6 37-29 3.5-1.3 6.5-3.3 9-6 20-11 40.3-21 61-30a364.5 364.5 0 0 1 235 1Z" style="opacity:1"/>
  <path fill="#daf0ee" d="M648.5 124.5c5 .3 9.4 2 13 5a37 37 0 0 1-13-5Z" style="opacity:.063"/>
  <path fill="#dff3f3" d="M413.5 123.5c-20.7 9-41 19-61 30a7 7 0 0 1 2-2.5 296.8 296.8 0 0 1 59-27.5Z" style="opacity:.382"/>
  <path fill="#ddf2f0" d="M661.5 129.5a126 126 0 0 1 25 9.5c9.6 5.6 19.2 11 29 16 1.6.8 2.6 2 3 3.5-8.1-4.2-16.1-8.7-24-13.5-11-5.3-22-10.4-33-15.5Z" style="opacity:.306"/>
  <path fill="#ddf4f3" d="M352.5 153.5a21.8 21.8 0 0 1-9 6c2.5-2.8 5.5-4.8 9-6Z" style="opacity:.12"/>
  <path fill="#e1f4f3" d="M718.5 158.5c1-.1 2 0 3 .5a91 91 0 0 1 15 11.5c-6.3-3.6-12.3-7.6-18-12Z" style="opacity:.137"/>
  <path fill="#e1f5f4" d="M736.5 170.5c3.5.9 6.2 2.9 8 6-3-1.5-5.7-3.5-8-6Z" style="opacity:.094"/>
  <path fill="#e2f5f4" d="M343.5 159.5c-12.5 9.4-24.8 19-37 29a6.9 6.9 0 0 1 3-4.5 848.8 848.8 0 0 1 31-24c1-.5 2-.6 3-.5Z" style="opacity:.09"/>
  <path fill="#e5f6f5" d="M744.5 176.5a263.1 263.1 0 0 1 54.5 51c1 1.6 2 3.2 2.5 5-9.7-11.6-20-22.7-31-33.5a737.2 737.2 0 0 0-26-22.5Z" style="opacity:.129"/>
  <path fill="#101717" d="M765.5 358.5c-2.2-.7-4.6-1.2-7-1.5-.6-.4-.9-.9-1-1.5 1 0 2 .4 3 1l1-2a417 417 0 0 1-6-19 207.2 207.2 0 0 0-18-39 138 138 0 0 0-114-76.5c-15-.7-30-.7-45 0-6.4.8-12.8 2-19 3.5-1.8-.1-3.4.2-5 1-1.2.8-1.2 1.6 0 2.5a178 178 0 0 1 25 12.5v1h-4c-9-5.8-18.7-10.5-29-14-10 2.6-19.6 5.9-29 10h-2c-2.6.4-5 .4-7 0 10-4.7 20.4-8.8 31-12.5a225.8 225.8 0 0 0-142 2c-11 4.1-21.3 9.3-31 15.5-2.8.6-5.2 2-7 4-2 .6-3.6 1.6-5 3a39.7 39.7 0 0 0-12 9c-2 .6-3.6 1.6-5 3-.3-.8-1-1.2-2-1l2-3c63-46.7 132-58 207-34 26.6-6.5 53.6-8.7 81-6.5a142.3 142.3 0 0 1 84 37 211.3 211.3 0 0 1 56 105.5Z" style="opacity:1"/>
  <path fill="#d5ded9" d="M508.5 236.5h-1a19 19 0 0 1-5-3c-6.2-1.4-12.5-2.8-19-4h-6c-2.2-1-4.5-1.8-7-2.5a370 370 0 0 0-47 .5c-6.7 1-13.4 2.3-20 4h-2c-4.4.7-8.7 1.5-13 2.5-.6.4-.9.9-1 1.5-1.8-.1-3.5.2-5 1-5.5 1-10.8 2.8-16 5 9.7-6.2 20-11.4 31-15.5 47.1-16 94.4-16.6 142-2-10.6 3.7-21 7.8-31 12.5Z" style="opacity:1"/>
  <path fill="#e5dda1" d="M423.5 227.5a370 370 0 0 1 47-.5c2.5.7 4.8 1.5 7 2.5-2.9.3-5.6 0-8-1-15.2-1-30.5-1.3-46-1Z" style="opacity:1"/>
  <path fill="#e8d65d" d="M423.5 227.5c15.5-.3 30.8 0 46 1-22-.5-44 .5-66 3 6.6-1.7 13.3-3 20-4Z" style="opacity:1"/>
  <path fill="#e1db99" d="M483.5 229.5c6.5 1.2 12.8 2.6 19 4h-7c-4.4-.5-8.4-1.8-12-4Z" style="opacity:1"/>
  <path fill="#5d9a95" d="M737.5 296.5c.2 1.4 0 2.7-.5 4-.7-.8-1.5-1-2.5-1-3.7-5-7.7-9.7-12-14-6.7-8-14.3-15-23-21a198 198 0 0 0-16-10.5 118 118 0 0 1-18-7.5c-.4-2.2-1.7-3.5-4-4-7 .5-13.5-1.2-19.5-5-1.7.6-3.6 1-5.5 1-7-1.1-14-1.8-21-2a264 264 0 0 1-35 0c-4.1-1.4-8.1-3-12-5a6.8 6.8 0 0 1-1.5-3c-.4.5-1 .8-1.5 1a10.9 10.9 0 0 0-6-2.5l1-1-4-1c1.2-.2 2.2-.7 3-1.5a149 149 0 0 1 19-3.5c15-.7 30-.7 45 0a138 138 0 0 1 114 76.5Z" style="opacity:1"/>
  <path fill="#e6db86" d="M401.5 231.5c-4.4 2-9 3.3-14 4 .1-.6.4-1.1 1-1.5 4.3-1 8.6-1.8 13-2.5Z" style="opacity:1"/>
  <path fill="#fad20a" d="M469.5 228.5c2.4 1 5.1 1.3 8 1h6c3.6 2.2 7.6 3.5 12 4a8 8 0 0 0 6 2.5 5 5 0 0 1-3 .5c-1.2 4.6-4 6-8.5 4-1.8 2.3-3.5 2.3-5 0-1 .7-2.2 1.2-3.5 1.5.8 1.6.2 2.6-2 3-12 .8-12 1.3 0 1.5v4h-3v3a6.6 6.6 0 0 1-7 0v4h-3l-2 6-2 1c-1-1-2.4-1.3-4-1 0 1.6-.6 3-2 4-3.1.3-6.1.8-9 1.5 2.6 1.3 3.2 3.1 2 5.5-.6-.2-1-.5-1.5-1a49 49 0 0 0-6 9l-1-1a3.3 3.3 0 0 1-3.5 2v4c-1.3-.2-2.5.2-3.5 1a12.1 12.1 0 0 0-1.5 7c0 .7-.3 1-1 1-2 .5-4 1.4-6 2.5-1.2 2.2-2.7 4-4.5 5.5-2-1.7-4-3-6.5-4-.8.3-1.5.8-2 1.5 1.6.2 2.6 1 3 2.5-4.3-.5-7.3-2.6-9-6.5-4.4-.8-8.7-.7-13 .5-2.3.8-4.1 2.1-5.5 4-1.2.7-2.3.9-3.5.5 2.5-3 5.5-5.4 9-7l-1-1a18 18 0 0 0 3-7c4.2.1 8.6-.2 13-1-.6-1.6.1-2.9 2-4-.6-1.6.1-2.9 2-4a6.6 6.6 0 0 1 6.5-.5c3.5-2.3 7.2-4.3 11-6 .7-2.3.7-4.7 0-7-3.2-.8-5.7-3-7.5-6.5a29.4 29.4 0 0 1-9-6.5c.5-.7 1.2-1.2 2-1.5-2.2-2.3-3.4-1.8-3.5 1.5l-2.5-3a8.5 8.5 0 0 1-9 2.5 7.8 7.8 0 0 0-6-3l3-1a9.9 9.9 0 0 1-5-2c1-.5 2-.6 3-.5v-5a53.8 53.8 0 0 0-16-2l3-2a9.2 9.2 0 0 1 5-1c5-.7 9.6-2 14-4h2c22-2.5 44-3.5 66-3Z" style="opacity:1"/>
  <path fill="#d5dddb" d="M575.5 240.5v1c-6.7.1-13 1.5-19 4h-5c-4 1-8 1.5-12 1.5a327 327 0 0 0-22-10.5c9.4-4.1 19-7.4 29-10 10.3 3.5 20 8.2 29 14Z" style="opacity:1"/>
  <path fill="#e3d9b4" d="M515.5 236.5h2a327 327 0 0 1 22 10.5c4 0 8-.5 12-1.5-3.7 2-7.7 3.3-12 4a50.5 50.5 0 0 0-12-6c-3.7-3-8-4.7-13-5l1-2Z" style="opacity:1"/>
  <path fill="#669487" d="M559.5 223.5c-.8.8-1.8 1.3-3 1.5l4 1-1 1c2.3.2 4.3 1 6 2.5.6-.2 1-.5 1.5-1 .2 1.1.7 2.1 1.5 3 3.9 2 7.9 3.6 12 5 11.6.8 23.3.8 35 0 7 .2 14 .9 21 2 2 0 3.8-.4 5.5-1 6 3.8 12.5 5.5 19.5 5 2.3.5 3.6 1.8 4 4l-16-3c-7.7-2.4-15.7-4-24-4.5-15.3-.6-30.7-.4-46 .5-8-4.8-16.3-9-25-12.5-1.2-.9-1.2-1.7 0-2.5a9.1 9.1 0 0 1 5-1Z" style="opacity:1"/>
  <path fill="#e4f8f8" d="M801.5 232.5a21 21 0 0 1 7 10 26.4 26.4 0 0 1-7-10Z" style="opacity:.243"/>
  <path fill="#e4cd50" d="M514.5 238.5c5 .3 9.3 2 13 5l-12-3c-4.1.6-8.1 1.6-12 3 3.2-2.4 6.9-4.1 11-5Z" style="opacity:1"/>
  <path fill="#e2f5f4" d="M306.5 188.5a543.3 543.3 0 0 0-58 66c1-3.3 2.5-6.3 4.5-9a488 488 0 0 1 49.5-55.5c1.2-.8 2.6-1.3 4-1.5Z" style="opacity:.227"/>
  <path fill="#ebce2f" d="M495.5 233.5h7a19 19 0 0 0 5 3 288.4 288.4 0 0 0-43 27l2-6h3v-4a6.6 6.6 0 0 0 7 0v-3h3v-4c-12-.2-12-.7 0-1.5 2.2-.4 2.8-1.4 2-3 1.3-.3 2.4-.8 3.5-1.5 1.5 2.3 3.2 2.3 5 0 4.5 2 7.3.6 8.5-4 1 .1 2 0 3-.5a8 8 0 0 1-6-2.5Z" style="opacity:1"/>
  <path fill="#e5d76e" d="m382.5 236.5-3 2c-1.8.9-3.5 1.9-5 3-5.3.4-10.3 1.8-15 4 1.8-2 4.2-3.4 7-4 5.2-2.2 10.5-4 16-5Z" style="opacity:1"/>
  <path fill="#423b23" d="M649.5 243.5a382 382 0 0 0-68-3h-2v-1c15.3-1 30.7-1.1 46-.5 8.3.6 16.3 2 24 4.5Z" style="opacity:1"/>
  <path fill="#e7c833" d="M501.5 244.5a4.5 4.5 0 0 1-2 3l-5 2c1.1 1 1.1 1.8 0 2.5-5.6 3.1-11.3 6-17 8.5a7 7 0 0 0-3.5 4c-.7-.8-1.5-1-2.5-1 9-7.8 19-14.2 30-19Z" style="opacity:1"/>
  <path fill="#d5be56" d="M354.5 248.5a39.7 39.7 0 0 1-12 9c3.4-3.8 7.4-6.8 12-9Z" style="opacity:1"/>
  <path fill="#e3f5f4" d="M248.5 254.5a1201.1 1201.1 0 0 0-31 51c1-3.9 2.4-7.5 4.5-11 4.4-6.7 8.4-13.7 12-21l12-18c.7-.8 1.5-1 2.5-1Z" style="opacity:.145"/>
  <path fill="#d84d10" d="M539.5 250.5c6.5 1.8 13.2 3 20 4-.5 1-1.1 1.8-2 2.5 1.8 1.2 3.8 1.8 6 2 1.2 1.6 2 3.5 2.5 5.5l5.5 3c1.1 1.9 2 3.9 2.5 6 6.1 6.4 11.8 13.1 17 20 2.9 5.7 5 11.7 6.5 18-2.2-5-4.5-10-7-15a17.7 17.7 0 0 1-5.5-8l-4-2a83.4 83.4 0 0 0-26-28 5 5 0 0 1-.5-3l-13-4c-5 .1-8.6 2.3-11 6.5-1.4.6-2.7.4-4-.5a110 110 0 0 0-12 3 71.5 71.5 0 0 1 25-10Z" style="opacity:1"/>
  <path fill="#f9d20e" d="M374.5 241.5c-.7 2.2-2 4-4 5.5 3.3 5 1.8 7.6-4.5 7.5l-6-2c-.3 1-1 2-2.5 3-2.5-2.1-4.9-1.6-7 1.5 3 1.2 5.7 3 8 5.5l15 3c1.3-2 2.7-2.1 4-.5-2.2 1.7-2.5 3.7-1 6a69.9 69.9 0 0 0-6.5 4.5c-.3-1-1.2-1.8-2.5-2.5-4-.7-8-.3-12 1 3.5.7 3.5 2 0 4a29.6 29.6 0 0 0-11 7c-2.4 1.7-5 2.5-8 2.5.1 3 .8 5.8 2 8.5-.5.4-.8 1-1 1.5 6.8 4.3 13.5 8.8 20 13.5a13 13 0 0 1-13-6.5c-2.7-.6-5.4-1.5-8-2.5l1-1c-1-1.4-1.8-3-2.5-4.5a4 4 0 0 1-2 1l-10.5-2c-.9 1-1.9 1.9-3 2.5l3 1-1 1c1.6.3 3.1.8 4.5 1.5l1-1c.5 1 .6 2 .5 3-3 .3-5.8 0-8.5-1-1.4.7-2.9 1.2-4.5 1.5l1 1c-6.6 2-11 6.1-13 12.5-3.5 2.6-7 5.9-10.5 10-.8-1.1-1.6-1.1-2.5 0l4-14a137 137 0 0 1 23-32 139 139 0 0 0 18-16.5 29 29 0 0 0 4-1.5c1-2.3 2.3-4.3 4-6 4.6-2.2 8.6-5.2 12-9a42.4 42.4 0 0 1 20-7Z" style="opacity:1"/>
  <path fill="#b6bd5e" d="m331.5 262.5-9 8c.1-.9-.2-1.5-1-2-3.4.7-6 2.3-8 5 1.3-5 4.6-7.5 10-7.5 1.8-3.7 4.4-4.9 8-3.5Z" style="opacity:1"/>
  <path fill="#c45126" d="M575.5 241.5a89.5 89.5 0 0 1 28 22v1h-4a8.3 8.3 0 0 1-4 8c0-1.5-.3-3.2-1-5a9.9 9.9 0 0 1-5 2.5l1 1c-4.2.7-8.2.2-12-1.5v-3c2.3-.2 4.5-.8 6.5-2 1.4.6 2.9 1 4.5 1 3-1 6-1.6 9-2 .2-1.6-.1-3.1-1-4.5a46.4 46.4 0 0 1-7.5-4.5c-.4.5-1 .8-1.5 1a10.6 10.6 0 0 0-6-2.5c-.8-1.5-2-2.7-3.5-3.5-.6-1.4-.4-2.7.5-4l-1.5-1c-1.2 2-3 3-5.5 3a42.5 42.5 0 0 0-16-2c6-2.5 12.3-3.9 19-4Z" style="opacity:1"/>
  <path fill="#5c9d91" d="m337.5 256.5-2 3-4 3c-3.6-1.4-6.2-.2-8 3.5-5.4 0-8.7 2.5-10 7.5-.5 1.4-1.5 2-3 2a19.6 19.6 0 0 0-6 5.5c-3.5.9-5.9 3-7 6.5-1.6.5-3.3.9-5 1a23.9 23.9 0 0 1-9 11c-1 2-1.6 4-2 6l-3 2c.1-.9-.2-1.5-1-2-1.2.7-2.6 1-4 1a13 13 0 0 1 .5-5 262 262 0 0 0 7-8c-.2-5.4 2.1-9.1 7-11a9.5 9.5 0 0 0 5.5 3c-.7-3.7.5-4.7 3.5-3 2-1.1 4.2-1.8 6.5-2a11 11 0 0 0-3.5-6 4.2 4.2 0 0 1 0-4c2.4.9 3.9 2.5 4.5 5 1-1.4 1.6-2.9 2-4.5a6.3 6.3 0 0 1-1.5-4.5c4-1 7.1-3 9.5-6.5 1.7-.7 3.3-.7 5 0a4.9 4.9 0 0 0 5 2.5v-3c-3.1-1.1-6.3-2.1-9.5-3-1 1.8-2.5 3-4.5 3.5-2.8.7-5.5 1.5-8 2.5v-4c1.4 0 2.8-.3 4-1 .3-4.3 2.3-5.6 6-4a15 15 0 0 1 6.5-5c1.3.8 1.1 2-.5 3.5 2 .7 4 .5 6-.5 1 2.6 1.3 5.3 1 8h4c-.3-2.4-.3-4.5 0-6.5 2.8-.7 4.5.5 5 3.5 1.2-1.2 2.2-1.2 3 0Z" style="opacity:1"/>
  <path fill="#e5590c" d="M514.5 260.5a49.5 49.5 0 0 0-7 6l9 2c-2 2.8-4.6 3.7-8 2.5a9 9 0 0 0-5-2.5l-16 7c4.7-2.9 9.4-6 14-9.5 4.1-2.4 8.5-4.2 13-5.5Z" style="opacity:1"/>
  <path fill="#f14902" d="M597.5 311.5c1 0 1.8.2 2.5 1 1 2.5 2.4 4.8 4 7 2.3 10.3 4 20.7 5.5 31-3.5-.6-6.1.6-8 3.5l-6 1c-6.5 4-13.5 6.8-21 8.5-3.3 5.3-8 8.6-14 10-3.5 3.3-7.2 6.5-11 9.5a8.8 8.8 0 0 1-5 1.5c0 3.3-1.7 5-5 5 .1 1 0 2-.5 3-2.5 2-4.3 4.3-5.5 7-1.8.3-3.5 1-5 2l-6 13-1 2c-2 .3-3.3 1.3-4 3-4.7 6.6-8.2 14-10.5 22-.7 1.3-1.3 1.3-2 0-.1 4-1.3 7.7-3.5 11-.8 4.6-1.3 9.3-1.5 14-2.3 4-3.1 8.3-2.5 13v8a9.7 9.7 0 0 0-2.5 7c-.7 12-.7 24 0 36a13 13 0 0 0 1.5 5v24c0 5.4-.3 10.7-1 16h4c-.2 6.3 0 12.7.5 19 2.1 1.8 3 4.1 2.5 7h-3a6 6 0 0 0-2-5l-9-2.5 1-1a7 7 0 0 1-2.5-3.5c-.3 1.8-1 2.1-2 1a5 5 0 0 1-.5-3 20 20 0 0 1-9-5l-4 1a8.3 8.3 0 0 0-4-4v-1c-2-7.1-6.6-9.6-14-7.5a32.9 32.9 0 0 0-6 5.5c-2.4-.2-4.4.4-6 2h-13c.8-11.7 1.8-23.3 3-35a54 54 0 0 0 6.5-23 16 16 0 0 0 2.5-5c1.5-1 3.2-1.3 5-1v-3h-4c.8-5.8-.2-11.1-3-16-1-2.6-1.3-5.3-1-8v-5a145 145 0 0 1-9-20.5 367 367 0 0 1-3-20.5 33.2 33.2 0 0 0-4-6v-4c-.2-5.6-1.2-11-3-16l-3-25c.3-9.2 1.4-18.2 3.5-27 3.1-3.4 4.3-7.4 3.5-12 1.9-3.3 4-6.7 6.5-10l1-4c3.7-3.6 6.9-7.6 9.5-12 1-1.9 1.3-3.9 1-6 1 .1 2 0 3-.5 4.8-4.3 8.1-9.4 10-15.5 5-4 10-7.7 15.5-11 3 1.8 4.9 4.4 5.5 8 2-1.1 3.4-2.8 4-5 5.3-1.4 5.3-2.7 0-4-4.4 2-6.7.7-7-4 3.9-.3 6.9-2.2 9-5.5a13 13 0 0 1 5-.5c.1-2.2.8-4.2 2-6l16-7a9 9 0 0 1 5 2.5c3.4 1.2 6 .3 8-2.5l-9-2c2.2-2.2 4.5-4.2 7-6a110 110 0 0 1 12-3c1.3 1 2.6 1.1 4 .5 2.4-4.2 6-6.4 11-6.5l13 4c-.1 1 0 2 .5 3a83.4 83.4 0 0 1 26 28l4 2c1 3.2 3 5.9 5.5 8 2.5 5 4.8 10 7 15Z" style="opacity:1"/>
  <path fill="#413c25" d="M699.5 264.5c8.7 6 16.3 13 23 21a281.5 281.5 0 0 0-21-17 5.8 5.8 0 0 1-2-4Z" style="opacity:1"/>
  <path fill="#e7cb4f" d="M342.5 257.5c-1.7 1.7-3 3.7-4 6a29 29 0 0 1-4 1.5 139 139 0 0 1-18 16.5c6.7-7.4 13.7-14.4 21-21 1.4-1.4 3-2.4 5-3Z" style="opacity:1"/>
  <path fill="#fdd203" d="M379.5 238.5c5.5-.1 10.8.5 16 2v5c-1-.1-2 0-3 .5a9.9 9.9 0 0 0 5 2l-3 1c2.5.1 4.5 1.1 6 3 3.6 1 6.6.1 9-2.5l2.5 3c0-3.3 1.3-3.8 3.5-1.5-.8.3-1.5.8-2 1.5 2.6 2.7 5.6 4.9 9 6.5 1.8 3.5 4.3 5.7 7.5 6.5.7 2.3.7 4.7 0 7a70.8 70.8 0 0 0-11 6c-2.1-1-4.3-.8-6.5.5-1.9 1.1-2.6 2.4-2 4-1.9 1.1-2.6 2.4-2 4-4.4.8-8.8 1.1-13 1a18 18 0 0 1-3 7l1 1c-3.5 1.6-6.5 4-9 7 1.2.4 2.3.2 3.5-.5 1.4-1.9 3.2-3.2 5.5-4 4.3-1.2 8.6-1.3 13-.5 1.7 3.9 4.7 6 9 6.5 1.7 2.2 2.7 4.7 3 7.5-.4 3-1.3 3.2-2.5.5a58 58 0 0 1-3.5 19c-.5 3.8-1.5 7.5-3 11-2 3-3.6 6.4-4.5 10-.8 10.4-.2 20.8 2 31a12 12 0 0 0 2.5 4v1c-.2 4 0 8 .5 12a17 17 0 0 0 3.5 9v3c.6 9.8 1.6 19.4 3 29-.8 1.8-1.3 3.8-1.5 6a7.7 7.7 0 0 0-5.5-3.5l2-6a25.5 25.5 0 0 1-4-4.5c-1.7 1-3.5 1.8-5.5 2a48.6 48.6 0 0 0-10.5-3.5c-1.3-1.7-1.6-3.4-1-5-1.8-.3-2.1-1-1-2-1.5-.5-2.7 0-3.5 1.5a4.9 4.9 0 0 1-2.5-5c-10 0-10.5 2-1.5 6 .5 1.3.7 2.6.5 4h3c.2 1.4 0 2.7-.5 4-.9-1.4-1.4-1.2-1.5.5 1.7 1.8 2.8 1.3 3.5-1.5 2.7.7 4.9 2.2 6.5 4.5-.5 3-2 3.8-4.5 2.5-.2 1.8-.7 3.4-1.5 5-3.2.8-5.8 2.5-8 5-.6-.2-1-.5-1.5-1a24.7 24.7 0 0 1-9.5 9c-6.3-2.9-12.6-5-19-6.5a47.1 47.1 0 0 1-7-6c0-2 .3-4 1-6-4.5-1.5-4.9-3.5-1-6l-1-1c5.2-4.1 10.6-8 16-11.5l-1.5-1a90 90 0 0 1-20.5 12c-6 1-12 1.7-18 2v3c-3.8.1-3.8.8 0 2a6 6 0 0 1 2 5 38 38 0 0 0-8 2.5c1 .7 1.1 1.6.5 2.5-3.5 2-6.8 4.4-10 7-.7.8-.5 1.5.5 2a9.1 9.1 0 0 1 5-1 3 3 0 0 1 1-3c3.1-2.4 6.5-3.3 10-2.5a9 9 0 0 0 1-5.5c4.8-.5 9.4-1.5 14-3 .9 1.3 1.9 2.4 3 3.5 3.8.7 7.2 2.4 10 5l-2 1c4 1.4 6.7 4 8 8 3.5-.1 5.5 1.5 6 5 4 1 7.5 2.9 10.5 5.5 1-1.6 2.5-2.3 4.5-2-.6 4 1.1 6 5 6.5l-2 1a5.8 5.8 0 0 0 5.5.5l2.5 2.5c-1 .7-1.1 1.6-.5 2.5 1.8-1.7 4-2.4 6.5-2 0-1.4.3-2.8 1-4a22.5 22.5 0 0 1-3-4c-1.5 1.4-2.9 1.2-4-.5l1-1c-3.5-1.4-7-2-10.5-1.5l-1.5-1.5c1.3-.5 2.6-.7 4-.5 0-2.8-1.3-4.6-4-5.5 1.1-1 2.5-1.7 4-2-1.2-.9-1.2-1.7 0-2.5a87.3 87.3 0 0 0 19.5-15c2.6 2 5.6 3.3 9 4 2.3.6 4.4.6 6.5 0 3.8 3 5.7 7 5.5 12 .9-1.4 1.4-1.2 1.5.5-.6 2-1.6 3.9-3 5.5 1.2 3 .9 5.8-1 8.5.4 1 1 1.6 2 2a4.6 4.6 0 0 0-2 4.5c-3.2.3-5.3 2-6.5 5l-1-3c-.4 1.2-1 2.2-2 3l-7.5-2c-2.6.9-5.3 1.2-8 1a13 13 0 0 0 .5 5c1.1-1.1 2-.8 2.5 1a28 28 0 0 0-1.5 5c-1.6.9-3 1.9-4.5 3l1.5 1a31 31 0 0 1 19.5-7 33 33 0 0 1 7 2.5c-.2 3-.6 5.7-1 8 2.4.3 3 1.3 2 3 .8.3 1.5.8 2 1.5-1.1 1-1.1 1.8 0 2.5-1.2.5-2 0-2.5-1.5-1 3.1-.2 5.6 2.5 7.5-2.3 3-3.7 6.6-4 10.5-2.8.5-5 1.7-7 3.5l1 1.5c2.3-2.3 4.5-2.3 6.5 0 0 5.2-.2 10.2-.5 15l2 9.5c-.5.4-.8 1-1 1.5 1.6 7 2 14 1.5 21-2.3 4.2-5.3 4.8-9 2l-1 2a7.3 7.3 0 0 0-7.5-1c-1-.5-1.8-1.1-2.5-2l-1 1c-3.3-.6-6.1-2.1-8.5-4.5-1.4-.8-2.8-.6-4 .5a33 33 0 0 0 7.5 6c1.2 3 2 5.8 2.5 8.5a21 21 0 0 0-8.5 4.5l-1-1c-.2 1.8-.7 3.4-1.5 5a16 16 0 0 0-6.5 5c-.7 1-.5 1.6.5 2-1 2.7-3 4.2-6 4.5 1.1.2 2.1.7 3 1.5a18.6 18.6 0 0 1-15 2c.5-.7 1.2-1.2 2-1.5-1.2-1.5-1.2-3 0-4.5-.5-1-1.1-1.8-2-2.5a102 102 0 0 0-14-9.5 15.9 15.9 0 0 1-5.5-6l-1 1c-.2-2.8-1-5.5-2-8a190 190 0 0 0-11.5 0c-2.7-.5-3.2-1.5-1.5-3a5 5 0 0 0 2.5 1c2.6-.6 5.3-1.1 8-1.5 1-.7 1.1-1.6.5-2.5-8 3-15.5 2-22.5-2.5l-9.5-8.5c-.4 1-.9 1.8-1.5 2.5 1.7 5.5.7 6-3 1.5.8-3.2 2.8-4.8 6-5 .2-1.6-.1-3.1-1-4.5a5.8 5.8 0 0 0 2-5.5c1.8.1 3.4-.2 5-1 .7.5 1.2 1.2 1.5 2 .5-1.6.7-3.3.5-5 2 .2 4 0 6-.5-.8-1.7-.3-1.8 1.5-.5 4-5.6 9.6-8.3 16.5-8 0 5.2 2.7 7.4 8 6.5 4 2.3 7.6 5 11 8 1 .5 2 .6 3 .5v-3c-3.3-1.4-6.7-2.9-10-4.5-3-3.1-6.3-5.8-10-8 1.4-2 1-3.6-1-5l2-1c-1.7-.7-2.2-1.9-1.5-3.5.4.5 1 .8 1.5 1 5-3 10-5.8 15-8.5 1.2-2.1 2.9-3.8 5-5l-1-1c3.6.4 7.3-.1 11-1.5 2 .7 4 1 6 1a3 3 0 0 0 1 3 33.5 33.5 0 0 1 17 16c-.4 1.9-.8 3.7-1 5.5-2 .5-4 .7-6 .5.1 1 0 2-.5 3l-1-1-7 5a12.1 12.1 0 0 0-1.5 7 15 15 0 0 1 7 0c.8-1.1 1.4-2.3 2-3.5 6.6-2 11.6-5.3 15-10 2.3-.2 4.3-1 6-2.5.6.2 1 .5 1.5 1a5 5 0 0 1 3.5-2.5c.8-1 1.2-2.2 1-3.5a28.8 28.8 0 0 0-13-3.5 9 9 0 0 0-6.5-5.5l-1-3-1 1c-2-1.2-4.2-2.2-6.5-3-1.5-1.7-1.2-2.8 1-3.5-6-.1-8.9-3.3-8.5-9.5-2.5 1.5-4.1.8-5-2-6.6 1.2-12.7 4-18.5 8.5.5.4.8 1 1 1.5a14 14 0 0 0-4 5.5 16.6 16.6 0 0 0-6 5c-3.8 1.4-7.5 3-11 5-4.4 1.2-8.3.4-11.5-2.5a12 12 0 0 0-6.5 4c-1.2-.3-1.2-.8 0-1.5a5 5 0 0 0-3-.5c0-1.4-.3-2.8-1-4-2-.8-4-1.3-6-1.5-.7-4.7-3.3-7.7-8-9 1.8-1.2 3.8-1.8 6-2a6.5 6.5 0 0 0 1-4.5c2.4.2 4.7 0 7-.5a6.8 6.8 0 0 1-3-1.5c.1-1.6.4-3.3 1-5 1-.9 1.9-1.9 2.5-3 1.4-.1 2.9 0 4.5.5 10.1-7.4 9.3-9.3-2.5-5.5l-1-1c-1.3 2-3 3.7-5 5-1-.8-2.2-.6-3.5.5 1.1.7 1.1 1.6 0 2.5-1.9 1.1-3.9 2-6 2.5 1.5.3 2.9 1 4 2-2.2-1.1-4-.6-5.5 1.5-3-2.6-6-2.6-9 0-2.3-.8-2.8-2.1-1.5-4a20.5 20.5 0 0 0-5.5-3l-1-4c-2.1 1-4.6 1-7.5 0-.5-5.1-.5-10.1 0-15v-4c-.3-1.6 0-3 1-4 .6-.1 1.1-.4 1.5-1 .7-3 1.2-6 1.5-9 1-.1 1.8-.8 2-2 .9-4 1.6-8 2-12 1.6-.8 2.3-2.1 2-4h4c.2-3 0-6-.5-9l-2 2c-.7-3.8-2-7.5-3.5-11a14 14 0 0 1 5-7 4.5 4.5 0 0 0-2-1.5c2.1-1.5 4.3-1.7 6.5-.5 2.8-.6 5.7-1 8.5-1.5.9-.7 1.5-1.5 2-2.5a14.8 14.8 0 0 0-12-4 4 4 0 0 1-2.5 4c-.4-1.5-1.3-2-2.5-1.5 1.2 1.5 1.2 3 0 4.5-3.2 1-6.2 2.3-9 4-1.3-3.7-2.8-7.4-4.5-11-1 .8-1.6 1.8-2 3-.7-4.7-.4-9.4 1-14 3.2 1 5.8 2.6 8 5 4 1 4.3.4 1-2-.6-1-.5-1.8.5-2.5-2.3-1.9-5-3-8-3.5-1-2.6-1.2-5.3-.5-8 .9 1.2 1.7 1.2 2.5 0 .7-2.3 1.2-4.6 1.5-7a5.9 5.9 0 0 0 3-4c4 1.7 6.9.2 8.5-4.5 1-.5 2-.6 3-.5v-3c5.5.1 10.8-.7 16-2.5l-2-1c1.6-2.2 2.5-4.7 2.5-7.5l1 1c1.7-.7 3.6-1.2 5.5-1.5a9 9 0 0 0 1-5.5c4.8-2.5 9.8-4.8 15-7 .7.8 1.6 1.5 2.5 2 4.3.6 8.4 0 12.5-2 1.3-1.1 1.8-2.5 1.5-4-.8 1.5-2 2-3.5 1.5.6-1.9 0-3.5-2-5 .6-.8 1.1-1.6 1.5-2.5 1.2 2.5 2.4 2.3 3.5-.5 5-1.3 8.8-4.2 11.5-8.5.2 1.1.7 2.1 1.5 3 1.3-2.5 2-5.2 2-8-3.3 1-6.6 1.8-10 2.5-2 1.4-3.3 3.2-4 5.5a12 12 0 0 0-7 7c-4-.4-8-1-12-2-.6.2-1 .5-1.5 1a87.3 87.3 0 0 0-14.5-10c-1 1.4-.8 2.5 1 3.5 3.4 1.8 6.6 4 9.5 6.5.4 1.7-.1 3.2-1.5 4.5.7 2 1 3.8 1 5.5-1.3 1.1-2.6 1.1-4 0-1.2.3-1.2.8 0 1.5-5.2 2.5-10.2 4.5-15 6 .6 2.2 0 4.2-2 6-3.6.2-7 .7-10.5 1.5-.5-1.8-1.7-3-3.5-3.5 3.8-1.9 4.5-4.4 2-7.5a13 13 0 0 0 0-10c.3-1.2.8-1.2 1.5 0a11 11 0 0 0-1.5-9c1.9-1.3 3.2-3 4-5 .9-1.1 1.7-1.1 2.5 0 3.5-4.1 7-7.4 10.5-10 2-6.4 6.4-10.6 13-12.5l-1-1c1.6-.3 3.1-.8 4.5-1.5a20 20 0 0 0 8.5 1c.1-1 0-2-.5-3l-1 1c-1.4-.7-2.9-1.2-4.5-1.5l1-1-3-1c1.1-.6 2.1-1.5 3-2.5l10.5 2a4 4 0 0 0 2-1c.7 1.6 1.5 3 2.5 4.5l-1 1c2.6 1 5.3 1.9 8 2.5 3 4.8 7.4 7 13 6.5-6.5-4.7-13.2-9.2-20-13.5.2-.6.5-1 1-1.5a22.7 22.7 0 0 1-2-8.5c3 0 5.6-.8 8-2.5 3.2-3.2 6.8-5.5 11-7 3.5-2 3.5-3.3 0-4 4-1.3 8-1.7 12-1 1.3.7 2.2 1.5 2.5 2.5 2-1.6 4.3-3.1 6.5-4.5-1.5-2.3-1.2-4.3 1-6-1.3-1.6-2.7-1.5-4 .5l-15-3c-2.3-2.4-5-4.3-8-5.5 2.1-3.1 4.5-3.6 7-1.5 1.4-1 2.2-2 2.5-3l6 2c6.3 0 7.8-2.4 4.5-7.5 2-1.4 3.3-3.3 4-5.5 1.5-1.1 3.2-2.1 5-3Z" style="opacity:1"/>
  <path fill="#cb4c1d" d="M603.5 264.5c2 2 3.5 4.3 4.5 7 1.7 1.7 3.5 3 5.5 4a16 16 0 0 1 5 8c0 4.9 1.9 8.9 5.5 12 2.3 5.5 4.8 10.9 7.5 16 1 1.4 1.7 3.1 2 5v4c.2 3.4 0 6.7-.5 10l-1-1a9.3 9.3 0 0 0-2.5 6 12 12 0 0 1 7 7c-4.2 2-6.5.7-7-4-2.5-1.4-4.5-.9-6 1.5-2.6.5-5.3.7-8 .5 2.3-4.4 1-6.4-4-6 .2 5.3 0 10.7-.5 16-.7.5-1.2 1.2-1.5 2-2.1.7-4.1 1.7-6 3a93.1 93.1 0 0 0-31 14c-7.2 3-13.5 7.4-19 13a43.8 43.8 0 0 0-7 4.5c-4.2 4.4-8.5 8.5-13 12.5 1.2-2.7 3-5 5.5-7 .5-1 .6-2 .5-3 3.3 0 5-1.7 5-5 1.8 0 3.5-.5 5-1.5 3.8-3 7.5-6.2 11-9.5 6-1.4 10.7-4.7 14-10a72.2 72.2 0 0 0 21-8.5l6-1c1.9-3 4.5-4.1 8-3.5a395.2 395.2 0 0 0-5.5-31c-1.6-2.2-3-4.5-4-7-.7-.8-1.5-1-2.5-1a78.6 78.6 0 0 0-6.5-18 234.6 234.6 0 0 0-17-20c-.6-2.1-1.4-4.1-2.5-6l-5.5-3c-.5-2-1.3-3.9-2.5-5.5-2.2-.2-4.2-.8-6-2 .9-.7 1.5-1.5 2-2.5-6.8-1-13.5-2.2-20-4v-1c4.3-.7 8.3-2 12-4h5c5.5-.3 10.8.3 16 2 2.4 0 4.3-1 5.5-3l1.5 1a3.8 3.8 0 0 0-.5 4c1.5.8 2.7 2 3.5 3.5 2.3.2 4.3 1 6 2.5.6-.2 1-.5 1.5-1 2.3 1.7 4.8 3.2 7.5 4.5a6.5 6.5 0 0 1 1 4.5c-3 .4-6 1-9 2a12 12 0 0 1-4.5-1c-2 1.2-4.2 1.8-6.5 2v3c3.8 1.7 7.8 2.2 12 1.5l-1-1c2-.4 3.6-1.2 5-2.5.7 1.8 1 3.5 1 5a8.3 8.3 0 0 0 4-8h4Z" style="opacity:1"/>
  <path fill="#a24e37" d="M603.5 263.5c4.3 3.2 7.6 7.2 10 12-2-1-3.8-2.3-5.5-4-1-2.7-2.5-5-4.5-7v-1Z" style="opacity:1"/>
  <path fill="#1e1403" d="M507.5 236.5h1c2 .4 4.4.4 7 0l-1 2c-4.1.9-7.8 2.6-11 5-1-.2-1.7.2-2 1-11 4.8-21 11.2-30 19-16.4 11-29.8 25-40 42a100 100 0 0 0-18 38 52.4 52.4 0 0 0-1 36v4a8.8 8.8 0 0 1-1.5-4 8.8 8.8 0 0 1-1.5 4c-1.4-6.2-2.8-12.5-4-19 .7-7.5 2-14.8 4-22 1.5-3.5 2.5-7.2 3-11a510.5 510.5 0 0 1 19-35c.7 0 1-.3 1-1 9.3-11 19.3-21.3 30-31l2-1a288.4 288.4 0 0 1 43-27Z" style="opacity:1"/>
  <path fill="#563313" d="m649.5 243.5 16 3a118 118 0 0 0 18 7.5 198 198 0 0 1 16 10.5c.1 1.6.8 3 2 4 7.4 5.5 14.4 11.1 21 17 4.3 4.3 8.3 9 12 14 5.8 8.2 10.8 16.8 15 26 .1 6 2.3 11 6.5 15 .7 3 1.5 6 2.5 9a4.4 4.4 0 0 1-2.5 3c-4.5-1.7-9-3.5-13.5-5.5-9.5-.9-18.8-2.5-28-5-7.3-.5-14.7-.7-22-.5h-4a230 230 0 0 0-45 1c-.2-5.3-.2-10.5 0-15.5-1.8-.5-3-1.7-3.5-3.5a34 34 0 0 0-1.5-7.5 4 4 0 0 0 1-2c-3.1-2-3.8-4.7-2-8-.8-3.1-1.7-3-2.5.5-1.2-2-2-4.1-2.5-6.5-.3-1-1-1.5-2-1.5a145.5 145.5 0 0 0-49-58c22.8-1 45.4 0 68 3Z" style="opacity:1"/>
  <path fill="#e1f4f3" d="M808.5 242.5c11.7 14.5 20 30.8 25 49l-3-4c-.6-3.8-1.7-7.5-3.5-11a277.6 277.6 0 0 0-18.5-34Z" style="opacity:.192"/>
  <path fill="#e0c73c" d="M471.5 263.5c-3.2 4-6.9 7.4-11 10.5l1 1c-7 5.8-13.8 12-20.5 18.5a23 23 0 0 1-2 5c-2.9 2-5.4 4.3-7.5 7 10.2-17 23.6-31 40-42Z" style="opacity:1"/>
  <path fill="#a7b856" d="M310.5 275.5c-1.3 2.4-3 4.6-5 6.5a22.5 22.5 0 0 0-8 5.5 9.3 9.3 0 0 1 7-6.5c1.7-2.3 3.7-4.2 6-5.5Z" style="opacity:1"/>
  <path fill="#e9cc37" d="M462.5 264.5c-10.7 9.7-20.7 20-30 31-.2-2.5.3-4.8 1.5-7 1-.8 2.2-1.2 3.5-1v-4c1.6.1 2.8-.5 3.5-2l1 1a49 49 0 0 1 6-9c.4.5 1 .8 1.5 1 1.2-2.4.6-4.2-2-5.5 2.9-.7 5.9-1.2 9-1.5 1.4-1 2-2.4 2-4 1.6-.3 3 0 4 1Z" style="opacity:1"/>
  <path fill="#fcc11f" d="m479.5 279.5-26 23c.5-2.4 1.7-4.4 3.5-6 3.7-2.2 6.9-5 9.5-8.5l-1-1c4.2-3.3 9-5.8 14-7.5Z" style="opacity:1"/>
  <path fill="#e7cf31" d="M322.5 270.5a229.8 229.8 0 0 0-44 65 133 133 0 0 1 9-25h3l4-9c-1-2.2-.7-3.7 1-4.5-4.5 1.2-8 4-10.5 8.5-1.1.8-2.3 1.5-3.5 2v-2c5-6.3 10.3-12.3 16-18 2.2-2.4 4.9-4.2 8-5.5 2-2 3.7-4 5-6.5 1.5 0 2.5-.6 3-2 2-2.7 4.6-4.3 8-5 .8.5 1.1 1.1 1 2Z" style="opacity:1"/>
  <path fill="#230903" d="M575.5 241.5v-1h6c21.5 15 37.8 34.4 49 58 5.6 15 9.6 30.3 12 46-1.1 0-2.1.4-3 1 .3-2.2 0-4.2-1-6-.3-8.1-2-15.8-5-23-.3-1.9-1-3.6-2-5a145 145 0 0 0-10.5-26 7 7 0 0 0-2.5-2 16 16 0 0 0-5-8 33.7 33.7 0 0 0-10-12 89.5 89.5 0 0 0-28-22Z" style="opacity:1"/>
  <path fill="#e8590f" d="M487.5 275.5a11.4 11.4 0 0 0-2 6 13 13 0 0 0-5 .5 11.4 11.4 0 0 1-9 5.5c.3 4.7 2.6 6 7 4 5.3 1.3 5.3 2.6 0 4-.6 2.2-2 3.9-4 5-.6-3.6-2.5-6.2-5.5-8-5.4 3.3-10.6 7-15.5 11v-1l26-23 8-4Z" style="opacity:1"/>
  <path fill="#75995d" d="M297.5 287.5c-5.7 5.7-11 11.7-16 18 .4-2 1-4 2-6 4.2-2.8 7.2-6.5 9-11 1.7-.1 3.4-.5 5-1Z" style="opacity:1"/>
  <path fill="#a75136" d="M618.5 283.5a7 7 0 0 1 2.5 2 145 145 0 0 1 10.5 26c-2.7-5.1-5.2-10.5-7.5-16a15.4 15.4 0 0 1-5.5-12Z" style="opacity:1"/>
  <path fill="#6c897e" d="M737.5 296.5a207.2 207.2 0 0 1 18 39c-2.5-3-4.5-6.4-6-10-4.2-9.2-9.2-17.8-15-26 1 0 1.8.2 2.5 1 .5-1.3.7-2.6.5-4Z" style="opacity:1"/>
  <path fill="#ecce2a" d="M431.5 296.5a510.5 510.5 0 0 0-19 35 58 58 0 0 0 3.5-19c1.2 2.7 2 2.6 2.5-.5-.3-2.8-1.3-5.3-3-7.5-.4-1.4-1.4-2.3-3-2.5.5-.7 1.2-1.2 2-1.5 2.4 1 4.6 2.3 6.5 4 1.8-1.5 3.3-3.3 4.5-5.5 2-1.1 4-2 6-2.5Z" style="opacity:1"/>
  <path fill="#f8d111" d="M527.5 243.5c4.3 1.5 8.3 3.5 12 6v1a71.5 71.5 0 0 0-25 10 55.5 55.5 0 0 0-13 5.5c-4.6 3.4-9.3 6.6-14 9.5l-8 4c-5 1.7-9.8 4.2-14 7.5l1 1a32.5 32.5 0 0 1-9.5 8.5c-1.8 1.6-3 3.6-3.5 6v1a73.5 73.5 0 0 0-7.5 7 198.5 198.5 0 0 0-22 35l-1.5 6c-.6.1-1.1.4-1.5 1a97.6 97.6 0 0 0-5.5 21c-.8 1.2-1.5 2.5-2 4-1.3-4.4-2-9.1-2-14 .8-6.7 1.5-13.3 2-20a100 100 0 0 1 18-38c2.1-2.7 4.6-5 7.5-7a23 23 0 0 0 2-5c6.7-6.5 13.5-12.7 20.5-18.5l-1-1c4.1-3 7.8-6.6 11-10.5 1 0 1.8.2 2.5 1a7 7 0 0 1 3.5-4c5.7-2.6 11.4-5.4 17-8.5 1.1-.7 1.1-1.6 0-2.5l5-2a4.5 4.5 0 0 0 2-3c.3-.8 1-1.2 2-1 3.9-1.4 7.9-2.4 12-3l12 3Z" style="opacity:1"/>
  <path fill="#e5f7f6" d="m217.5 305.5-8.5 19c-2.4 6-1.7 11.7 2 17 3.4 3.2 6.5 6.5 9.5 10-4.6-3-8.7-6.7-12.5-11a19.4 19.4 0 0 1 0-19c2.5-4.6 4.9-9.2 7-14a7 7 0 0 1 2.5-2Z" style="opacity:.424"/>
  <path fill="#de5c04" d="M453.5 303.5c-1.9 6-5.2 11.2-10 15.5a5 5 0 0 1-3 .5c.3 2.1 0 4.1-1 6a57.4 57.4 0 0 1-9.5 12l-1 4a90.6 90.6 0 0 0-6.5 10l1.5-6a198.5 198.5 0 0 1 22-35c2.4-2.5 4.9-4.9 7.5-7Z" style="opacity:1"/>
  <path fill="#809e58" d="M281.5 305.5v2a69.4 69.4 0 0 0-14 20l-2 1c.4-2 1-4 2-6 4-4.9 7.6-9.9 11-15l3-2Z" style="opacity:1"/>
  <path fill="#e6cb3a" d="m293.5 313.5-4 14c-.8 2-2.1 3.7-4 5-.8 1.2-1.8 2.2-3 3a85 85 0 0 1 11-22Z" style="opacity:1"/>
  <path fill="#ac4f36" d="M633.5 316.5c3 7.2 4.7 14.9 5 23-3.3-1.4-4-3.7-2-7-1.2-4-2.2-8-3-12v-4Z" style="opacity:1"/>
  <path fill="#c45024" d="M633.5 320.5c.8 4 1.8 8 3 12-2 3.3-1.3 5.6 2 7 1 1.8 1.3 3.8 1 6-10.1 2-20.1 4.4-30 7 .3-.8.8-1.5 1.5-2 .5-5.3.7-10.7.5-16 5-.4 6.3 1.6 4 6 2.7.2 5.4 0 8-.5 1.5-2.4 3.5-2.9 6-1.5.5 4.7 2.8 6 7 4a12 12 0 0 0-7-7c.1-2.3 1-4.3 2.5-6l1 1c.5-3.3.7-6.6.5-10Z" style="opacity:1"/>
  <path fill="#739d6d" d="M259.5 339.5c-3 5-5 10.3-6 16a205 205 0 0 0-7 17c0-3.5.7-6.8 2-10 .8-1.8 1.3-3.8 1.5-6 3.3-4.4 5-9.4 5-15a39 39 0 0 1 4.5-2Z" style="opacity:1"/>
  <path fill="#d4d149" d="M267.5 327.5c.4 3.1-.8 5.4-3.5 7-3 7.4-6.5 14.4-10.5 21 1-5.7 3-11 6-16 2.3-3.5 4.3-7.2 6-11l2-1Z" style="opacity:1"/>
  <path fill="#4a321e" d="M630.5 298.5c1 0 1.7.5 2 1.5.5 2.4 1.3 4.5 2.5 6.5.8-3.4 1.7-3.6 2.5-.5-1.8 3.3-1.1 6 2 8a4 4 0 0 1-1 2 34 34 0 0 1 1.5 7.5c.5 1.8 1.7 3 3.5 3.5-.2 5-.2 10.2 0 15.5a230 230 0 0 1 45-1c-15.4.2-30.7 1.2-46 3-2.4-15.7-6.4-31-12-46Z" style="opacity:1"/>
  <path fill="#4b341e" d="M749.5 325.5c1.5 3.6 3.5 7 6 10a417 417 0 0 0 6 19l-1 2c-1-.6-2-1-3-1a80.5 80.5 0 0 0-24-7 245.2 245.2 0 0 0-41-7c7.3-.2 14.7 0 22 .5 9.2 2.5 18.5 4.1 28 5 4.5 2 9 3.8 13.5 5.5a4.4 4.4 0 0 0 2.5-3c-1-3-1.8-6-2.5-9-4.2-4-6.4-9-6.5-15Z" style="opacity:1"/>
  <path fill="#171013" d="M688.5 341.5h4c13.9 1.2 27.5 3.5 41 7-10-1-20-2.5-30-4.5a172 172 0 0 0-32 .5c-10.7.8-21.4 2-32 3.5a61 61 0 0 0-14 3.5c-9.4 2.4-18.8 5-28 8a13 13 0 0 1 6-4c1.9-1.3 3.9-2.3 6-3 9.9-2.6 19.9-5 30-7 .9-.6 1.9-1 3-1 15.3-1.8 30.6-2.8 46-3Z" style="opacity:1"/>
  <path fill="#d8c042" d="M409.5 342.5c-2 7.2-3.3 14.5-4 22 1.2 6.5 2.6 12.8 4 19v4a12 12 0 0 1-2.5-4 106.6 106.6 0 0 1-2-31c1-3.6 2.4-7 4.5-10Z" style="opacity:1"/>
  <path fill="#347aa0" d="M671.5 344.5c38.9-.8 75.9 7 111 23.5a295 295 0 0 1 20 12.5c-1.1 0-2.1-.4-3-1a229.1 229.1 0 0 0-146-13c.8-.8 1.8-1.3 3-1.5-1.5-.8-2.7-2-3.5-3.5-.9 1.2-1.7 1.2-2.5 0 .9-.8 1.9-1.3 3-1.5a9.2 9.2 0 0 1-7-3.5c2.4-1.2 4.5-.9 6.5 1 1.7-1.1 3.6-2.1 5.5-3 1.8.4 3.8.4 6 0-.1 1 0 2 .5 3 2-2.7 4-2.7 6 0 1.8-2.4 2-4.9.5-7.5-7.2-.7-14.4-.2-21.5 1.5-2.1.1-4-.6-5.5-2l-6 2a4.5 4.5 0 0 1-1.5-2 20.2 20.2 0 0 1-11.5 2 61 61 0 0 1 14-3.5c10.6-1.5 21.3-2.7 32-3.5Z" style="opacity:1"/>
  <path fill="#f6d211" d="M278.5 335.5a101 101 0 0 1-8 21 27.8 27.8 0 0 0-5 11 86 86 0 0 1-4.5 22c-.5 4.7-.7 9.3-.5 14v2l-2 2c1-4 1-8 0-12-1.6 2.5-3.1 2.5-4.5 0-.9 1.9-2 3.6-3.5 5-4.4-16-5.7-15.7-4 .5a15.8 15.8 0 0 1-6 5.5c2.7-9.5 4.4-19.1 5-29 .5-1.6.9-3.3 1-5a205 205 0 0 1 7-17c4-6.6 7.5-13.6 10.5-21 2.7-1.6 4-3.9 3.5-7a69.4 69.4 0 0 1 14-20c1.2-.5 2.4-1.2 3.5-2 2.5-4.5 6-7.3 10.5-8.5-1.7.8-2 2.3-1 4.5l-4 9h-3a133 133 0 0 0-9 25Z" style="opacity:1"/>
  <path fill="#f8d20d" d="M279.5 451.5v-4c.3-4.1 0-8.1-1-12a4 4 0 0 0-2-3.5c-4-1.8-7.9-4-11.5-6.5-.9-4.1-1.4-8.3-1.5-12.5 1.7-9.8 3-19.6 4-29.5.2-3.8.8-7.5 2-11 1.4-2 2-4.3 2-7v-1a4.2 4.2 0 0 0 2.5-3c2-5.5 3.5-11.2 4.5-17 .6-3.4 2-6.4 4-9 1.2-.8 2.2-1.8 3-3a11 11 0 0 1 1.5 9c-.7-1.2-1.2-1.2-1.5 0a13 13 0 0 1 0 10c2.5 3.1 1.8 5.6-2 7.5 1.8.5 3 1.7 3.5 3.5a62 62 0 0 1 10.5-1.5c2-1.8 2.6-3.8 2-6 4.8-1.5 9.8-3.5 15-6-1.2-.7-1.2-1.2 0-1.5 1.4 1.1 2.7 1.1 4 0 0-1.7-.3-3.6-1-5.5 1.4-1.3 1.9-2.8 1.5-4.5-2.9-2.5-6-4.7-9.5-6.5-1.8-1-2-2.1-1-3.5 5.2 2.9 10 6.2 14.5 10 .4-.5 1-.8 1.5-1 4 1 8 1.6 12 2a12 12 0 0 1 7-7c.7-2.3 2-4.1 4-5.5 3.4-.7 6.7-1.6 10-2.5 0 2.8-.7 5.5-2 8a6.8 6.8 0 0 1-1.5-3 18.7 18.7 0 0 1-11.5 8.5c-1 2.8-2.3 3-3.5.5-.4 1-.9 1.8-1.5 2.5 2 1.5 2.6 3.1 2 5 1.5.5 2.7 0 3.5-1.5.3 1.5-.2 2.9-1.5 4-4 2-8.2 2.6-12.5 2-1-.5-1.8-1.2-2.5-2-5.2 2.2-10.2 4.5-15 7a9 9 0 0 1-1 5.5c-2 .3-3.8.8-5.5 1.5l-1-1c0 2.8-.9 5.3-2.5 7.5l2 1a45.8 45.8 0 0 1-16 2.5v3c-1-.1-2 0-3 .5-1.6 4.7-4.5 6.2-8.5 4.5a5.9 5.9 0 0 1-3 4c-.3 2.4-.8 4.7-1.5 7-.8 1.2-1.6 1.2-2.5 0-.7 2.7-.6 5.4.5 8 3 .4 5.7 1.6 8 3.5-1 .7-1.1 1.6-.5 2.5 3.3 2.4 3 3-1 2-2.2-2.4-4.8-4-8-5a31.3 31.3 0 0 0-1 14c.4-1.2 1-2.2 2-3 1.7 3.6 3.2 7.3 4.5 11 2.8-1.7 5.8-3 9-4 1.2-1.5 1.2-3 0-4.5 1.2-.5 2 0 2.5 1.5a4 4 0 0 0 2.5-4c4.6-.5 8.6.9 12 4-.5 1-1.1 1.8-2 2.5l-8.5 1.5c-2.2-1.2-4.4-1-6.5.5.8.3 1.5.8 2 1.5a14 14 0 0 0-5 7c1.6 3.5 2.8 7.2 3.5 11l2-2c.5 3 .7 6 .5 9h-4c.3 1.9-.4 3.2-2 4Z" style="opacity:1"/>
  <path fill="#cab345" d="M278.5 344.5c-1 5.8-2.5 11.5-4.5 17a4.2 4.2 0 0 1-2.5 3c1.6-7 3.9-13.7 7-20Z" style="opacity:1"/>
  <path fill="#360d07" d="M603.5 355.5a13 13 0 0 0-6 4c-8.4 3-16.8 6.4-25 10a93.1 93.1 0 0 1 31-14Z" style="opacity:1"/>
  <path fill="#629d80" d="M248.5 362.5c-1.3 3.2-2 6.5-2 10-.1 1.7-.5 3.4-1 5-1.5 4-2.9 8-4 12 0-5.5 1-10.8 3-16-.7-3.1-1.7-6.1-3-9 1.4 0 2.8.3 4 1a9 9 0 0 1 3-3Z" style="opacity:1"/>
  <path fill="#9d8732" d="M271.5 365.5c0 2.7-.6 5-2 7 0-2.7.6-5 2-7Z" style="opacity:1"/>
  <path fill="#dd6004" d="M422.5 351.5c.8 4.6-.4 8.6-3.5 12-2 8.8-3.2 17.8-3.5 27-.8-.3-1.2-1-1-2a97.6 97.6 0 0 1 6.5-36c.4-.6.9-.9 1.5-1Z" style="opacity:1"/>
  <path fill="#d9c646" d="M413.5 343.5c-.5 6.7-1.2 13.3-2 20 0 4.9.7 9.6 2 14 .2 1-.2 1.7-1 2a52.4 52.4 0 0 1 1-36Z" style="opacity:1"/>
  <path fill="#e69242" d="M415.5 373.5c-.7 5-1 10-1 15h-1c-.1-1.7-.5-3.4-1-5v-4c.8-.3 1.2-1 1-2 .5-1.5 1.2-2.8 2-4Z" style="opacity:1"/>
  <path fill="#e0ca3c" d="M270.5 356.5c-3 10.5-5.3 21.2-7 32-1.7 3-2.3 6.3-2 10 .3 2 0 3.6-1 5-.2-4.7 0-9.3.5-14a86 86 0 0 0 4.5-22c.9-4.1 2.6-7.8 5-11Z" style="opacity:1"/>
  <path fill="#7a6d27" d="M263.5 388.5c0 3.6-.7 7-2 10-.3-3.7.3-7 2-10Z" style="opacity:1"/>
  <path fill="#e2f6f5" d="M223.5 363.5a91 91 0 0 1-6.5 17c-4.3 7.3-9 14.3-14 21a1693 1693 0 0 1-56.5 63c.6-1.8 1.4-3.4 2.5-5a789 789 0 0 0 62-72 242 242 0 0 0 12.5-24Z" style="opacity:.227"/>
  <path fill="#3b0802" d="M553.5 382.5c-10 9-19.4 18.7-28 29 2.3-4.3 5-8.3 8-12 4.5-4 8.8-8.1 13-12.5 2.2-1.8 4.6-3.3 7-4.5Z" style="opacity:1"/>
  <path fill="#7a9b5e" d="M241.5 390.5c-1 6-1.8 12-2.5 18-.3 1-.8 1.6-1.5 2-.3-7.2 1-13.8 4-20Z" style="opacity:1"/>
  <path fill="#144d62" d="M799.5 379.5a14 14 0 0 0 8 5.5l3 4c-.4 1-1 1.6-2 2 1.2 1.9 1 3.7-.5 5.5l-1-1a10.6 10.6 0 0 1-7.5 2c-.2 1.3.2 2.5 1 3.5 4.7.5 9.3.7 14 .5-.2-2.6 1-4.3 3.5-5 3.4 1.7 7 3.2 10.5 4.5l-2 2c1.5.6 2.8 1.5 4 2.5.6 3.3 1.6 6.5 3 9.5-2.2 1.6-3.2.8-3-2.5-1.4 0-2.8-.3-4-1a7.3 7.3 0 0 0-4-4c-1.2 1.2-2.4 1.2-3.5 0-.9 3.6-2.9 5-6 4a16 16 0 0 1-4.5 2.5c3 2.2 6.4 4 10 5.5a9.4 9.4 0 0 1-3 3l16 11c.2 4.2.2 8.5 0 13 1-.1 2 0 3 .5l-4 4c-.8.7-1.5.5-2-.5l3-2.5-1-.5c-4 2-7.6 4.3-11 7 .9.8 1.9 1.3 3 1.5l-4.5 4.5c-.7 1.3-.5 2.5.5 3.5-5.3 2.4-5 4.2 1 5.5-4.2.3-4.9 1.8-2 4.5 4.5 3 9.2 5.9 14 8.5.7 2 1.2 4 1.5 6l1-1c2.5 5.2 1.8 9.9-2 14-.3-1.3-.8-2.4-1.5-3.5a5.9 5.9 0 0 0 4-3l-1.5-.5c-3 1.5-5.8 3.1-8.5 5-.8 1-1 2-.5 3 1.6-.9 3-1.9 4.5-3l1 1c-1.7 1.3-2.8 3-3.5 5a22 22 0 0 0-12.5 7.5c1.2 1.1 1.2 2.3 0 3.5.5.7 1.2 1.2 2 1.5-2.7 1.8-5.4 1.8-8 0 .7-2.6 2.4-3.7 5-3.5v-3c-4.4-.6-8.7-.8-13-.5-.8 2.7-1.3 5.6-1.5 8.5-.9-6.6-2-6.6-3.5 0-4.7 2.6-4.7 3.9 0 4 1.1 2.2 1 4.2-.5 6-3.4 0-7 .2-10.5 1a15 15 0 0 1-3 3.5c1 .5 2 .6 3 .5-.2 5.7-.5 6-1 1h-3c-.9 4 .4 6.8 4 8.5h-6c6.9 4.6 13.5 9.4 20 14.5a9.1 9.1 0 0 1 1 5c4.5.2 4.8 1 1 2.5 4 .9 8 1.5 12 2l-17 5c-1.6 2-3.6 3.6-6 4.5-.5 2-1.2 4-2 6-.6-2.2-2-3.9-4-5l3-2.5c-3.4.4-6.4 1.9-9 4.5.9.8 1.9 1.3 3 1.5-3.3.9-5.6 2.2-7 4 1.1.2 2.1.7 3 1.5-3 2.2-6.3 3.3-10 3.5a32 32 0 0 1 4 3.5c1.6-2 3.4-2.4 5.5-1 1-.4 1.6-1 2-2 7.6 8 16.6 14 27 18a14 14 0 0 1 8.5 0v3c-3-.2-5.6.5-8 2-1.3-.4-2.1-1-2.5-2-1.6 1.6-2.6 1.3-3-1l-.5 7.5c-.8.7-1.5.5-2-.5 1-.9 1-1.6 0-2l-11 7.5 2 1a52.7 52.7 0 0 0-9 5.5l-2-1c1.3-.8 1.8-1.8 1.5-3-2.1 1-4 2.3-5.5 4 4.8 1.3 6 4 3.5 8a4 4 0 0 0-2-1c-3.2 2-6.5 2.6-10 2-3-2.4-3.2-4.9-.5-7.5a4.3 4.3 0 0 0-5-1 7 7 0 0 1 2 4.5 7 7 0 0 1-2 4.5c1.1.2 2.1.7 3 1.5-5.5 4-11.2 7.6-17 11-1 7-5 10.3-12 10-1.5-.3-2.9-1-4-2-1 1.2-2.4 2-4 2.5a113 113 0 0 0 13 4.5c1.8-1.4 3.8-2 6-1.5l9 7h6c-.8.3-1.5.8-2 1.5 1.8 1.3 3.5 2.8 5 4.5l-2 1c.7 1.4 1.2 2.9 1.5 4.5.5-1 1.4-1.7 2.5-2 1.5.8 2.8.8 4 0-2.5-1-2.5-1.9 0-2.5-1-2.8-1-5.6 0-8.5h15v3c-2.5-.1-4.9.6-7 2a9.1 9.1 0 0 0-5-1c.4 2.3-.3 4.1-2 5.5 9 2 9.2 4.6.5 7.5a11 11 0 0 0-8.5-1.5c1.6 2.6 3.9 4 7 4l-8 1c-6.6 5.3-13.8 9.8-21.5 13.5-1.1 0-2.1-.4-3-1-.6 1-.5 1.8.5 2.5 1.4.2 2.8.7 4 1.5-3.4 3.3-7 3.6-11 1l-2 1a7.1 7.1 0 0 1-1-5c4-.2 4-.7 0-1.5 1-2 .3-3.8-2-5-2.5.7-2.5 2 0 4-7.2-3-13.9-7.2-20-12.5l.5-1c1.4.8 3 1.4 4.5 2 1.2-.8 1.2-1.6 0-2.5-2.4-.3-4.6-1.1-6.5-2.5-2 .6-3.6 1.6-5 3-4.3-.6-8.3.4-12 3l-1.5-1 2-2-1-1c-4.4 2-8.7 4.2-13 6.5l3 1c-1.2.4-2.2 1-3 2 2.4-.2 4.8-1 7-2.5 1.2.3 1.2.8 0 1.5-3.5 2-6.8 4-10 6.5a3 3 0 0 1-1-3h-3c-.2 1.3.2 2.5 1 3.5l-5 1c2 1.5 4 2.8 6 4-4.4 3-9 3.3-14 1-.5-2-.5-4.2 0-6.5-1.8-.3-3.5 0-5 1 .9.2 1.9.5 3 1-.4.8-.8 1.6-1 2.5a50 50 0 0 0 4 7.5c3.5 1.3 7 1.3 10.5 0a4.3 4.3 0 0 0 2.5 3c3-3.9 6-3.9 9 0a3 3 0 0 1-3 1v3c3.6.2 4 1.3 1 3.5 2 .6 3.6.1 5-1.5 4.5 2.4 4.8 1.9 1-1.5 1.8-.1 3.4.4 5 1.5-.5-1.5.1-2.9 2-4 5.6-1 11.3-1.3 17-1 1 2.4 1 4.7.5 7 5.6-4.2 11.4-8 17.5-11.5 1-.6 1.6-.3 2 1-6.2 5-12.7 9.5-19.5 13.5a18 18 0 0 0-3.5-2 13 13 0 0 1-10 0l-3 3c3.4 2.3 6.8 2.3 10 0 1.3 1.5 3 2.2 5 2v3c-3.3.9-6.6 1-10 .5l4-1c-3.5-.7-6.8-.2-10 1.5-5.5-2-7.5-.3-6 5 2.5-.3 4.6-1.3 6.5-3 .7 1 1.7 1.7 3 2 2.5-.7 5-1 7.5-1 .1 4.3.5 4.7 1 1 2.3.3 4.3-.4 6-2 1.2 1 2.5 1.9 4 2.5-2.2.2-4.2.8-6 2 1.9 1.8 3.9 3.3 6 4.5a5 5 0 0 0 6 0c-.7-.8-1.6-1.5-2.5-2-.7-.8-.5-1.5.5-2 4.1 2.8 8.3 5.5 12.5 8 1-.4 1.6-1 2-2 .4 2-.4 3.6-2.5 4.5 3.2 2.1 6.5 2.6 10 1.5 1.5.6 2.8 1.4 4 2.5-2.8 2-5.8 2.6-9 2a9.5 9.5 0 0 1-1.5-2.5c-4 3.4-8.4 5.9-13.5 7.5-.7 1.3-1.5 2.4-2.5 3.5l-1-1c-1 1.1-2.2 2.1-3.5 3 1.4 1 2.5.8 3.5-1l1 1c3-4.5 7.1-6.4 12.5-5.5a81.9 81.9 0 0 0-18 12l-7-1c.8.3 1.5.8 2 1.5a15 15 0 0 0-1 3.5c.8.3 1.5.8 2 1.5a18.5 18.5 0 0 1-7 3c-5-1.9-9.7-1.2-14 2 2.3.7 4.6.9 7 .5-2 2.2-4 4-6.5 5.5-.3-.8-.8-1.5-1.5-2a46.3 46.3 0 0 0-13 9c.5.7 1.2 1.2 2 1.5a38 38 0 0 1-7 2.5c3.2 1 3.5 2.3 1 4a11.2 11.2 0 0 1-8 .5 4.2 4.2 0 0 1-.5-4.5c1.4.9 2.9 1.2 4.5 1-.4-2.3.3-4.1 2-5.5-2-.5-4-.7-6-.5-.2 3.2-1 3.6-2.5 1-2 9.2-2.8 8.8-2.5-1-3.5-2.7-7.3-5-11.5-7 0 1.6-.3 3-.5 4a11.6 11.6 0 0 1-6.5-6 8.7 8.7 0 0 0 5.5 1.5 23.2 23.2 0 0 0-10-6c1.1-1 2.5-1.7 4-2-1.2-1.5-1.2-3 0-4.5l-4-3c-1 .9-1 1.9 0 3-.5.7-1.2 1.2-2 1.5 1.5.3 2.9 1 4 2a9 9 0 0 0-4 3c-7.4-1.5-13.7.8-19 7 1.5.3 2.9-.2 4-1.5 1.6.5 2.1 1.5 1.5 3-3.3.2-6.5 1.6-9.5 4-.8-.9-.5-1.7 1-2.5-2.4-.4-4.4.4-6 2.5l1 2a21.1 21.1 0 0 0-4 7c1-.1 2 0 3 .5-1.3 1-1.3 2 0 3 5 3.6 10.2 7.1 15.5 10.5.7.7.7 1.3 0 2a79 79 0 0 0-13-8c-.7.7-.7 1.3 0 2 1.3.7 2.4 1.5 3.5 2.5l9.5 5.5c1-.5 1.8-1.2 2.5-2 1.3 1.3 2.7 1.3 4 0l2 3c2.8-.9 3.4.1 2 3l-2 1c-2-.7-4-1-6-1v3c5.7-.2 11.3 0 17 .5 2 1 3 2.4 3 4.5-5.7-2-6.7-1.2-3 2.5 3 1.8 6.4 2.8 10 3a859 859 0 0 0 7 5l2 4c2.2.6 4.2 1.6 6 3-1.8.3-2.1 1-1 2a22 22 0 0 0-5 8.5c-6 8-12.3 15.7-19 23-3.4.3-5.4 2.1-6 5.5a9.4 9.4 0 0 1-6 2.5c-10.2-3-20.5-5.5-31-7.5l2-1a86.9 86.9 0 0 0-20-3c-2.5-1.2-2.5-2.5 0-4a5.4 5.4 0 0 0-5 .5c-3.6-2-7.2-3.4-11-4.5 2-1.5 2.2-3.3.5-5.5-.7 1-1.6 1.1-2.5.5a4.6 4.6 0 0 0 2-4.5c5-.2 5.7-1.6 2-4-1.5 1-2.8 2.1-4 3.5-4.7.7-9.2.2-13.5-1.5-4.4 1.6-9 2.9-13.5 4l-5-.5c3.7-1.2 7.4-2.5 11-4-1.1-1-.8-1.7 1-2a4 4 0 0 0-3-1.5c-1.5.9-2.8.9-4 0-.7.5-1.2 1.2-1.5 2-1.5-2.5-2.8-2.5-4 0l-10-2c-.5 1-.3 2 .5 3l-2.5 1-6-4c-4.5.6-9 1-13.5 1-11.2-3.1-22.6-6-34-8.5a84.5 84.5 0 0 1-12-4.5c-13.3-5.3-27-10.1-41-14.5 20-11.8 39.3-24.7 58-38.5 30.8-19.6 57.3-44 79.5-73l10-20c1.3-6 1.7-12 1-18a670.6 670.6 0 0 1-22-118c-4.2-40.7 1.1-80 16-118a152 152 0 0 1 108.5-83 229.1 229.1 0 0 1 146 13Z" style="opacity:1"/>
  <path fill="#fad209" d="M258.5 407.5c-.2 7.3 0 14.7.5 22 3.9 3.5 8.4 5.9 13.5 7 2 1.7 3 3.9 3 6.5-1.1 7.9-2.4 15.7-4 23.5a14.9 14.9 0 0 0-4.5 12c-1 .7-2.2 1.2-3.5 1.5.9 1.9.5 3.7-1 5.5l-5.5 2-1-23c-1.6-1-1.8-2.2-.5-3.5-2-.5-4-.7-6-.5l-12-4c-1-7.6-1.1-15.3-.5-23 2-8.9 3-17.9 3.5-27 2.4-1.3 4.4-3.1 6-5.5-1.7-16.2-.4-16.4 4-.5 1.4-1.4 2.6-3.1 3.5-5 1.4 2.5 2.9 2.5 4.5 0 1 4 1 8 0 12Z" style="opacity:1"/>
  <path fill="#2e5d5b" d="m827.5 393.5 11 7c2.6 1.5 3.6 3.8 3 7-5-4.3-9.6-9-14-14Z" style="opacity:1"/>
  <path fill="#d9f0ee" d="M833.5 291.5c.6.1 1.1.4 1.5 1 11 34.9 13.9 70.4 8.5 106.5.9 4.5 3.5 7.5 8 9 .8.7 1 1.5 1 2.5a15 15 0 0 1-10-10c5-37 2-73.4-9-109Z" style="opacity:.341"/>
  <path fill="#d1b93e" d="M409.5 388.5c1.4 6.9 2.8 13.9 4 21a17 17 0 0 1-3.5-9c-.5-4-.7-8-.5-12Z" style="opacity:1"/>
  <path fill="#c5512c" d="M533.5 399.5c-3 3.7-5.7 7.7-8 12-1.2.8-2.2 1.8-3 3l6-13c1.5-1 3.2-1.7 5-2Z" style="opacity:1"/>
  <path fill="#bd5a2f" d="M413.5 388.5h1c-.2 1 .2 1.7 1 2l3 25c-2.3-8.8-4-17.8-5-27Z" style="opacity:1"/>
  <path fill="#1b1218" d="M597.5 359.5c-55 22.5-87.2 63.2-96.5 122l-2.5 22c-.5-11.8.5-23.5 3-35 .4-4.7 1.2-9.4 2.5-14 3-9.7 6.8-19 11.5-28a7 7 0 0 0 2.5-2c.5-3 1.7-5.7 3.5-8l1-2c.8-1.2 1.8-2.2 3-3 8.6-10.3 18-20 28-29 5.5-5.6 11.8-10 19-13 8.2-3.6 16.6-7 25-10Z" style="opacity:1"/>
  <path fill="#dbd33d" d="M245.5 377.5c-.6 9.9-2.3 19.5-5 29-.4 9.1-1.6 18.1-3.5 27-.6 7.7-.5 15.4.5 23a8.8 8.8 0 0 1-1.5-4c-.5-7-.7-14-.5-21 1.4-5.4 2-11.1 2-17v-4c.7-.4 1.2-1 1.5-2 .7-6 1.6-12 2.5-18v-1c1.1-4 2.5-8 4-12Z" style="opacity:1"/>
  <path fill="#241803" d="M335.5 259.5c1-.2 1.7.2 2 1a312.3 312.3 0 0 0-21 21 137 137 0 0 0-23 32 85 85 0 0 0-11 22c-2 2.6-3.4 5.6-4 9-3.1 6.3-5.4 13-7 20v1c-1.4 2-2 4.3-2 7a40.1 40.1 0 0 0-2 11c-3.8 13.3-5.7 27-5.5 41 1 1 1.8 2.2 2.5 3.5 4.8 2.4 9.4 5 14 7.5 1 3.9 1.3 7.9 1 12-1.7 5.8-3 11.8-4 18a22 22 0 0 0-3 10c-1 1-1.3 2.4-1 4-3.9 7.7-7.2 15.7-10 24-4.5 9.2-7.8 18.8-10 29a29.7 29.7 0 0 0-.5 20 6.9 6.9 0 0 0 4.5 3c.4.7 1 1.2 2 1.5 3.3.7 6.7.7 10 0 9.2-2 18.4-4.2 27.5-6.5 2-.1 3.7.5 5 2 .6 2.4.4 4.7-.5 7-4 4.3-7.3 9.2-10 14.5 1.5 4 4.2 6.8 8 8.5a6.5 6.5 0 0 0 3 3c2.8 2.7 3.6 6 2.5 10-2 4.5-4.4 8.8-7 13-1.8 6.8.7 11.3 7.5 13.5a28.3 28.3 0 0 1 9 24 62.8 62.8 0 0 0 3.5 36.5l5 7a4 4 0 0 0 3.5 2c3 3.5 6.6 6 11 7.5 10.1 1.6 19.8.2 29-4 8.4-4 16.4-8.5 24-13.5l2-1c13.5-7.9 26.8-16 40-24.5 4.3-.7 8.7-.7 13 0a75.4 75.4 0 0 1 15 6.5c8.1 6.2 16.1 12.7 24 19.5 6.8 7.7 13.8 15.2 21 22.5a72 72 0 0 0 9 11c1 3 3 5 6 6a22.8 22.8 0 0 0-3 4c0-1.5-.6-2.5-2-3a33.7 33.7 0 0 0-10-12c-2-3.3-4.3-6.3-7-9a166.7 166.7 0 0 0-39-36c-8-6.2-17-8.3-27-6.5-5.8 3.7-11.5 7.5-17 11.5a338.4 338.4 0 0 0-30 18l-20 10c-3.4.9-6.8 2-10 3.5a51.6 51.6 0 0 1-19-.5 76 76 0 0 1-17-11 55.8 55.8 0 0 1-8-44.5l-.5-12.5c-.3-1-.8-1.6-1.5-2a15.9 15.9 0 0 0-11-10.5 7 7 0 0 1-2.5-3.5c-.7-3.7-.7-7.3 0-11 2.8-4.5 5.3-9.2 7.5-14a9.7 9.7 0 0 0-6-7c-3-2.5-5.4-5.5-7.5-9-.7-2-.7-4 0-6 1-1.6 2-3.2 2.5-5 3.9-3.2 6.5-7.2 8-12-3-.2-6 0-9 .5-10.3 4.2-21 6-32 5.5-3-.8-5.6-2.1-8-4-3.6-7.8-4-15.8-1-24l9-28c6.2-11.7 10.9-24 14-37a60.5 60.5 0 0 0 4.5-29c-3-2.6-6.6-4.4-10.5-5.5-5-3.8-7-8.8-6-15 .2-3.9.5-7.7 1-11.5v-2c1-1.4 1.3-3 1-5 1.3-3 2-6.4 2-10 1.7-10.8 4-21.5 7-32a101 101 0 0 0 8-21c11-24.2 25.6-45.8 44-65l9-8 4-3Z" style="opacity:1"/>
  <path fill="#a24426" d="M521.5 416.5c-1.8 2.3-3 5-3.5 8a7 7 0 0 1-2.5 2c1.4-2 2.1-4.4 2-7 .7-1.7 2-2.7 4-3Z" style="opacity:1"/>
  <path fill="#e3f7f7" d="M852.5 410.5c1.8.6 3.4 1.4 5 2.5 5.3 4.8 10 10 14 15.5l-19-18Z" style="opacity:.043"/>
  <path fill="#88a14f" d="M237.5 414.5c0 5.9-.6 11.6-2 17-.4-6 .3-11.6 2-17Z" style="opacity:1"/>
  <path fill="#ccb541" d="M267.5 383.5c-1 9.9-2.3 19.7-4 29.5.1 4.2.6 8.4 1.5 12.5 3.6 2.6 7.5 4.7 11.5 6.5 1.3.8 2 2 2 3.5-4.6-2.6-9.2-5-14-7.5-.7-1.3-1.5-2.4-2.5-3.5-.2-14 1.7-27.7 5.5-41Z" style="opacity:1"/>
  <path fill="#230d02" d="M412.5 383.5c.5 1.6.9 3.3 1 5 1 9.2 2.7 18.2 5 27a58 58 0 0 0 3 16v4l6.5 32a44.5 44.5 0 0 0 9.5 15v2c-1.6 3.1-3 6.5-4 10-2.2-1-2.2-2.5 0-4.5-.8-.7-1-1.5-1-2.5.4-3-.3-5.7-2-8a68.7 68.7 0 0 1-7-14c-3.1-17.8-6.5-35.5-10-53v-3c-1.2-7.1-2.6-14.1-4-21v-5a8.8 8.8 0 0 0 1.5-4c.2 1.6.7 2.9 1.5 4Z" style="opacity:1"/>
  <path fill="#b15636" d="M418.5 415.5c1.8 5 2.8 10.4 3 16a58 58 0 0 1-3-16Z" style="opacity:1"/>
  <path fill="#ddc742" d="M260.5 405.5c-.5 3.8-.8 7.6-1 11.5-1 6.2 1 11.2 6 15 4 1 7.4 3 10.5 5.5.9 10.2-.6 19.8-4.5 29 1.6-7.8 2.9-15.6 4-23.5 0-2.6-1-4.8-3-6.5a29.2 29.2 0 0 1-13.5-7c-.5-7.3-.7-14.7-.5-22l2-2Z" style="opacity:1"/>
  <path fill="#d1b840" d="M413.5 412.5c3.5 17.5 6.9 35.2 10 53-.6-.1-1.1-.4-1.5-1a142 142 0 0 1-3.5-19c0-1.8-.8-3.2-2-4-1.4-9.6-2.4-19.2-3-29Z" style="opacity:1"/>
  <path fill="#cc4d23" d="M421.5 435.5c1.5 1.8 2.8 3.8 4 6a367 367 0 0 0 3 20.5 145 145 0 0 0 9 20.5 44.5 44.5 0 0 1-9.5-15l-6.5-32Z" style="opacity:1"/>
  <path fill="#679b80" d="M235.5 431.5c-.2 7 0 14 .5 21 .2 1.6.7 2.9 1.5 4 2.5 3.3 5.8 5.3 10 6 1.4 2 2.8 4 4 6-2-1-3.7-2.5-5-4.5a5 5 0 0 0-3-.5c.3 2.4 0 4.8-1 7l-1-.5c.3-6-2.4-10.5-8-13.5-2.3 1.5-3.7.8-4-2 2.7-5.9 4-12.2 4-19 0-1.8.8-3.2 2-4Z" style="opacity:1"/>
  <path fill="#619995" d="m830.5 287.5 3 4c11 35.6 14 72 9 109 1.6 5 5 8.3 10 10l19 18a262 262 0 0 1 38 55c1.9 3.8 3.2 7.8 4 12-1.5-.8-2.8-.8-4 0a11 11 0 0 1-1.5 6c-1.4-1.9-2-3.7-1.5-5.5 2.8-4.6 2.6-9.1-.5-13.5a14.6 14.6 0 0 0-4 6c-1-.8-2.2-1.2-3.5-1a24 24 0 0 0 0-8c-.6-.2-1-.5-1.5-1-1 1.6-1.8 3.2-2.5 5-.5-3.9-2-7.2-4.5-10 .2-4.5-1.5-8.2-5-11-1 .6-1.8 1.2-2.5 2-11-21-24.6-40-41-57 .6-3.2-.4-5.5-3-7 1.5-3 2.5-6 3-9.5l-2-1a168 168 0 0 1 2-6.5c1.2-13.3 1.2-26.7 0-40-2.9.4-5.6-.1-8-1.5 1.8-2.8 4.2-3.3 7-1.5 1-6.5 0-12.8-2.5-19-.5 4.7-.7 9.3-.5 14-1.3.2-2.5-.2-3.5-1-.5-5-.7-10-.5-15a3 3 0 0 0 3-1c1.8-5.6.4-10.3-4-14 1.5-3.3 1-6.3-1.5-9-.5-2.6-.7-5.3-.5-8Z" style="opacity:.996"/>
  <path fill="#d24e20" d="M517.5 419.5c.1 2.6-.6 5-2 7-4.7 9-8.5 18.3-11.5 28a73.8 73.8 0 0 0-2.5 14c-1.5 3.6-2.8 7.3-4 11-.6-4.7.2-9 2.5-13 .2-4.7.7-9.4 1.5-14 2.2-3.3 3.4-7 3.5-11 .7 1.3 1.3 1.3 2 0 2.3-8 5.8-15.4 10.5-22Z" style="opacity:1"/>
  <path fill="#e4f5f4" d="M871.5 428.5c2.2.7 4 2 5.5 4a218.5 218.5 0 0 1 30 43c1.3 2.5 2.2 5.2 2.5 8a262 262 0 0 0-38-55Z" style="opacity:.059"/>
  <path fill="#d7d144" d="m237.5 456.5 12 4v2h-2c-4.2-.7-7.5-2.7-10-6Z" style="opacity:1"/>
  <path fill="#cebb3e" d="M279.5 447.5v4c-.4 4-1.1 8-2 12-.2 1.2-1 1.9-2 2 1-6.2 2.3-12.2 4-18Z" style="opacity:1"/>
  <path fill="#327ca4" d="M653.5 366.5a152 152 0 0 0-108.5 83 249.4 249.4 0 0 0-16 118c3.8 40 11.1 79.3 22 118 .7 6 .3 12-1 18l-10 20a307.3 307.3 0 0 1-79.5 73c0-.5-.4-.9-1-1a5.7 5.7 0 0 1-5 2c-.1-1 0-2 .5-3 5.3-2.8 9.8-6.6 13.5-11.5 2.5-1 5.2-1.8 8-2-1.7-.7-2.2-1.9-1.5-3.5a9.2 9.2 0 0 1 7.5-4.5c2.1-4.1 5.3-7.3 9.5-9.5.6-1 .5-1.8-.5-2.5a6.9 6.9 0 0 0 3-4.5l18-22c2.9-3.5 5.6-7.1 8-11 1.6 0 3 .6 4 2 4-8.8 7.5-17.8 10.5-27 .3-7.8 1.3-15.4 3-23 .2-2.2 1-4 2.5-5.5-2.2-4.4-3.5-4-4 1.5-1.3-.2-2.5.2-3.5 1-4-10.4-7-19.7-9-28-.7-.8-1.5-1-2.5-1l-7-22-9-40c-2-10-3.6-20-5-30-1.7-16-2.3-32-2-48l2.5-22c9.3-58.8 41.5-99.5 96.5-122 9.2-3 18.6-5.6 28-8 4 .5 8-.2 11.5-2 .3.8.8 1.5 1.5 2l6-2a7.2 7.2 0 0 0 5.5 2c7-1.7 14.3-2.2 21.5-1.5a6.5 6.5 0 0 1-.5 7.5c-2-2.7-4-2.7-6 0a5 5 0 0 1-.5-3c-2.2.4-4.2.4-6 0-2 .9-3.8 1.9-5.5 3-2-1.9-4.1-2.2-6.5-1a9.2 9.2 0 0 0 7 3.5c-1.1.2-2.1.7-3 1.5.8 1.2 1.6 1.2 2.5 0 .8 1.5 2 2.7 3.5 3.5-1.2.2-2.2.7-3 1.5Z" style="opacity:1"/>
  <path fill="#def5f4" d="M146.5 464.5c-4 5.3-8.3 10.3-13 15 2.2-4.4 5-8.4 8.5-12a6.9 6.9 0 0 1 4.5-3Z" style="opacity:.157"/>
  <path fill="#7d9b5c" d="M247.5 462.5h2a8.4 8.4 0 0 1 4.5 6c1.1 8 .3 15.7-2.5 23a79.3 79.3 0 0 0 0-23c-1.2-2-2.6-4-4-6Z" style="opacity:1"/>
  <path fill="#c7b645" d="M275.5 465.5c-.3 3-.8 6-1.5 9-.4.6-.9.9-1.5 1a22 22 0 0 1 3-10Z" style="opacity:1"/>
  <path fill="#f9d20b" d="M416.5 441.5c1.2.8 2 2.2 2 4a142 142 0 0 0 3.5 19c.4.6.9.9 1.5 1 1.8 4.9 4.1 9.5 7 14 0 2.7.4 5.4 1 8 .2 1.3-.1 2.3-1 3-1.4 1.3-2.4 3-3 5l-2-2-1 1c.6 1.4.9 3 1 4.5-1.4 5.8-2 11.6-2 17.5-.1 1.7-.5 3.4-1 5-2.3 4.3-3.5 9-3.5 14-.7 14-.7 28 0 42a7 7 0 0 0 2.5 2c-.6 3.5.7 5.5 4 6-.4 6 .2 11.8 2 17.5-1 .7-2 .7-3 0a31.8 31.8 0 0 0-5-4.5 3 3 0 0 0-2 2l-5-8.5c-7.4-.4-14.4 1-21 4a54.5 54.5 0 0 1-8.5 9.5c-.4-.5-1-.8-1.5-1-1.7 1.7-3.3 2.4-5 2-1-.4-1.2-1-.5-2 1.7-2.2 4-4 6.5-5 .8-1.6 1.3-3.2 1.5-5l1 1a21 21 0 0 1 8.5-4.5c-.5-2.7-1.3-5.5-2.5-8.5a33 33 0 0 1-7.5-6c1.2-1.1 2.6-1.3 4-.5 2.4 2.4 5.2 3.9 8.5 4.5l1-1c.7.9 1.5 1.5 2.5 2 2.6-1 5.1-.7 7.5 1l1-2c3.7 2.8 6.7 2.2 9-2 .6-7 0-14-1.5-21 .2-.6.5-1 1-1.5l-2-9.5c.3-4.8.5-9.8.5-15-2-2.3-4.2-2.3-6.5 0l-1-1.5c2-1.8 4.2-3 7-3.5.3-4 1.7-7.4 4-10.5-2.7-1.9-3.5-4.4-2.5-7.5.4 1.5 1.3 2 2.5 1.5-1.1-.7-1.1-1.6 0-2.5a4.5 4.5 0 0 0-2-1.5c1-1.7.4-2.7-2-3 .4-2.3.8-5 1-8a33 33 0 0 0-7-2.5 31 31 0 0 0-19.5 7l-1.5-1c1.4-1.1 3-2.1 4.5-3a28 28 0 0 1 1.5-5c-.5-1.8-1.4-2.1-2.5-1a13 13 0 0 1-.5-5c2.7.2 5.4-.1 8-1l7.5 2c1-.8 1.6-1.8 2-3l1 3c1.2-3 3.3-4.7 6.5-5-.2-1.9.5-3.4 2-4.5-1-.4-1.6-1-2-2a8.4 8.4 0 0 0 1-8.5c1.4-1.6 2.4-3.4 3-5.5-.1-1.7-.6-1.9-1.5-.5.2-5-1.7-9-5.5-12-2 .6-4.2.6-6.5 0-3.4-.7-6.4-2-9-4a87.3 87.3 0 0 1-19.5 15c-1.2.8-1.2 1.6 0 2.5-1.5.3-2.9 1-4 2 2.7.9 4 2.7 4 5.5-1.4-.2-2.7 0-4 .5l1.5 1.5c3.5-.4 7 0 10.5 1.5l-1 1c1.1 1.7 2.5 2 4 .5.9 1.4 1.9 2.8 3 4-.7 1.2-1 2.6-1 4-2.5-.4-4.7.3-6.5 2-.6-1-.5-1.8.5-2.5l-2.5-2.5c-1.8.8-3.6.6-5.5-.5l2-1c-3.9-.4-5.6-2.6-5-6.5-2-.3-3.5.4-4.5 2-3-2.6-6.5-4.5-10.5-5.5-.5-3.5-2.5-5.1-6-5a12 12 0 0 0-8-8l2-1a19.8 19.8 0 0 0-10-5c-1.1-1-2.1-2.2-3-3.5a65.5 65.5 0 0 1-14 3 9 9 0 0 1-1 5.5c-3.5-.8-6.9 0-10 2.5a3 3 0 0 0-1 3c-1.8-.1-3.4.2-5 1-1-.5-1.2-1.2-.5-2 3.2-2.6 6.5-5 10-7 .6-1 .5-1.8-.5-2.5a38 38 0 0 1 8-2.5 6 6 0 0 0-2-5c-3.8-1.2-3.8-1.9 0-2v-3c6-.3 12-1 18-2a90 90 0 0 0 20.5-12l1.5 1c-5.4 3.6-10.8 7.4-16 11.5l1 1c-3.9 2.5-3.5 4.5 1 6-.7 2-1 4-1 6 2.1 2.2 4.5 4.2 7 6a99.5 99.5 0 0 1 19 6.5c4-2.2 7.2-5.2 9.5-9 .4.5 1 .8 1.5 1 2.2-2.5 4.8-4.2 8-5 .8-1.6 1.3-3.2 1.5-5 2.5 1.3 4 .5 4.5-2.5a11.3 11.3 0 0 0-6.5-4.5c-.7 2.8-1.8 3.3-3.5 1.5.1-1.7.6-1.9 1.5-.5.5-1.3.7-2.6.5-4h-3c.2-1.4 0-2.7-.5-4-9-4-8.5-6 1.5-6-.2 2.2.6 3.8 2.5 5 .8-1.5 2-2 3.5-1.5-1.1 1-.8 1.7 1 2-.6 1.6-.3 3.3 1 5 3.7.8 7.2 2 10.5 3.5 2-.2 3.8-1 5.5-2 1.1 1.6 2.5 3.1 4 4.5l-2 6c2.3.3 4.2 1.5 5.5 3.5.2-2.2.7-4.2 1.5-6Z" style="opacity:1"/>
  <path fill="#e5faf8" d="M133.5 479.5a36 36 0 0 1-6 8c1-3.6 3-6.2 6-8Z" style="opacity:.212"/>
  <path fill="#9b6619" d="M430.5 479.5c1.7 2.3 2.4 5 2 8h-1c-.6-2.6-1-5.3-1-8Z" style="opacity:1"/>
  <path fill="#b9562a" d="M437.5 484.5v3c-1 2.5-1.7 5.1-2 8h-2v-1c1-3.5 2.4-6.9 4-10Z" style="opacity:1"/>
  <path fill="#e2f8f5" d="M909.5 483.5c1.8.6 3 2 3.5 4 2.8 7.3 5.3 14.6 7.5 22a97 97 0 0 0-7-14c-.8-4.2-2.1-8.2-4-12Z" style="opacity:.125"/>
  <path fill="#e9cb37" d="M430.5 490.5c-2 8.9-4.3 17.6-7 26 0-6 .6-11.7 2-17.5a15 15 0 0 0-1-4.5l1-1 2 2c.6-2 1.6-3.7 3-5Z" style="opacity:1"/>
  <path fill="#dcc340" d="M271.5 479.5v4a33 33 0 0 0-4.5 9c0 4.7-1.8 8.4-5.5 11 2.8-8.3 6.1-16.3 10-24Z" style="opacity:1"/>
  <path fill="#e0f5f6" d="M127.5 487.5c-4.5 7-8.5 14.4-12 22 .4-4.7 1.9-9 4.5-13 2.2-2.3 3.8-5 5-8 .7-.8 1.5-1 2.5-1Z" style="opacity:.09"/>
  <path fill="#b4461e" d="M497.5 487.5c-.9 16-1.2 32-1 48a13 13 0 0 1-1.5-5c-.7-12-.7-24 0-36 0-2.9.8-5.2 2.5-7Z" style="opacity:1"/>
  <path fill="#fbbb21" d="M435.5 495.5c4 3.8 5.6 8.5 4.5 14-.3 1-.8 1.6-1.5 2 0-5.6-1-11-3-16Z" style="opacity:1"/>
  <path fill="#619d84" d="M251.5 491.5c0 4.1-.7 8.1-2 12a12 12 0 0 0-2.5 4c-1.1 8.2-3 16.2-5.5 24-1.8 2-2.8 4.3-3 7l-2 1c.2-4.6 1.2-9 3-13-.3-3.4 0-6.7 1-10l2 1 1-5.5c-2.5-7.4-2.6-15-.5-22.5.7-1.3 1.3-1.3 2 0 .7 3 .2 5.6-1.5 8 1.1 2.2 2.1 4.6 3 7 .8-3.3 1.3-6.6 1.5-10 1-1.2 2.2-2.2 3.5-3Z" style="opacity:1"/>
  <path fill="#e05d0b" d="M437.5 487.5c-.3 2.7 0 5.4 1 8a25.2 25.2 0 0 1 3 16h4v3c-1.8-.3-3.5 0-5 1a16 16 0 0 1-2.5 5 54 54 0 0 1-6.5 23c-.2-2.7 0-5.4.5-8 2.7-7.9 4.9-15.9 6.5-24 .7-.4 1.2-1 1.5-2 1-5.5-.4-10.2-4.5-14 .3-2.9 1-5.5 2-8Z" style="opacity:1"/>
  <path fill="#240908" d="M501.5 468.5a137.7 137.7 0 0 0-3 35c-.3 16 .3 32 2 48v12h-1a225 225 0 0 0-3-25v-3c-.2-16 .1-32 1-48v-8c1.2-3.7 2.5-7.4 4-11Z" style="opacity:1"/>
  <path fill="#d8c643" d="M431.5 505.5a69 69 0 0 1-3 16c-.2 1.2-1 1.9-2 2a60 60 0 0 1 5-18Z" style="opacity:1"/>
  <path fill="#e9f8f8" d="M920.5 509.5c1.4 2 2 4.3 2 7-1.4-2-2-4.3-2-7Z" style="opacity:.075"/>
  <path fill="#bdc44c" d="M249.5 503.5a87.5 87.5 0 0 1-8 28c2.6-7.8 4.4-15.8 5.5-24a12 12 0 0 1 2.5-4Z" style="opacity:1"/>
  <path fill="#d6bd44" d="m257.5 503.5-9 28a81 81 0 0 1 9-28Z" style="opacity:1"/>
  <path fill="#d8ebeb" d="M115.5 509.5a24 24 0 0 0 7 23c-1.9-.5-3.6-1.5-5-3a24 24 0 0 1-3.5-19c.4-.6.9-.9 1.5-1Z" style="opacity:.745"/>
  <path fill="#ebfaf9" d="M922.5 516.5c2.4 3.9 3.7 8.2 4 13-2-4-3.4-8.3-4-13Z" style="opacity:.112"/>
  <path fill="#f8d01a" d="M433.5 495.5h2c2 5 3 10.4 3 16-1.6 8.1-3.8 16.1-6.5 24-.5 2.6-.7 5.3-.5 8-1.2.8-2 2.2-2 4-1 6.6-1.7 13.3-2 20a44 44 0 0 0-2 3l-1-12.5c.5-9.8.8-19.7 1-29.5-.1-1.8.2-3.5 1-5 1-.1 1.8-.8 2-2a69 69 0 0 0 3-16c0-3.5.7-6.8 2-10Z" style="opacity:1"/>
  <path fill="#dcf0ef" d="M122.5 532.5c3.2 1.4 6.2 3 9 5-3.8-.4-6.8-2-9-5Z" style="opacity:.035"/>
  <path fill="#f0d123" d="M249.5 460.5c2-.2 4 0 6 .5-1.3 1.3-1.1 2.5.5 3.5l1 23 5.5-2c1.5-1.8 1.9-3.6 1-5.5 1.3-.3 2.4-.8 3.5-1.5-.3-4.8 1.2-8.8 4.5-12-3.1 13-7.8 25.3-14 37a81 81 0 0 0-9 28c-3 8.2-2.6 16.2 1 24-2.8-.3-5-1.6-6.5-4a7.8 7.8 0 0 1-5.5 2c1.9-1.4 3.2-3.2 4-5.5-1-1.7-1.7-3.5-2-5.5l2-11c4.2-8.8 6.9-18 8-28 1.3-3.9 2-7.9 2-12 2.8-7.3 3.6-15 2.5-23a8.4 8.4 0 0 0-4.5-6v-2Z" style="opacity:1"/>
  <path fill="#eaf9f7" d="M138.5 539.5c7.5 1.1 14.8 2.5 22 4a90 90 0 0 1-16-1.5 8 8 0 0 1-6-2.5Z" style="opacity:.076"/>
  <path fill="#aac6c4" d="M164.5 543.5c7.7-.2 15.3 0 23 .5 1.7 1 3 2.3 4 4-.6 5.1-3.3 8.6-8 10.5 1.3-1.8 2.8-3.5 4.5-5 1-3.1.1-5.6-2.5-7.5l-21-2.5Z" style="opacity:1"/>
  <path fill="#7d6a24" d="M421.5 529.5c-.3 8.5-1 16.8-2 25-.3-8.6.3-16.9 2-25Z" style="opacity:1"/>
  <path fill="#90a94e" d="M238.5 538.5c-.5 3.6-1.5 7-3 10 .2-3 .5-6 1-9l2-1Z" style="opacity:1"/>
  <path fill="#c7b244" d="M251.5 532.5a36.8 36.8 0 0 0 .5 19c1.4 1.2 2.5 2.5 3.5 4a6.9 6.9 0 0 1-4.5-3c-2.1-6.9-2-13.5.5-20Z" style="opacity:1"/>
  <path fill="#e7cd46" d="M422.5 521.5c-.6 2.6-1 5.3-1 8-1.7 8.1-2.3 16.4-2 25-.2 7.3 0 14.7.5 22 1 .7 1.5 1.7 1.5 3a7 7 0 0 1-2.5-2c-.7-14-.7-28 0-42 0-5 1.2-9.7 3.5-14Z" style="opacity:1"/>
  <path fill="#e1c737" d="M299.5 559.5c.9-2.3 1-4.6.5-7a5.8 5.8 0 0 0-5-2 1014 1014 0 0 1-27.5 6.5c-3.3.7-6.7.7-10 0-1-.3-1.6-.8-2-1.5 5.3.2 10.7 0 16-.5a19 19 0 0 1 5-3c-2.1-.1-3.8-1-5-2.5l1.5-1a42.4 42.4 0 0 0 22 1c5.8-.3 8.1 2.4 7 8a7 7 0 0 1-2.5 2Z" style="opacity:1"/>
  <path fill="#d65f0e" d="M431.5 543.5c-1.2 11.7-2.2 23.3-3 35h13a11.1 11.1 0 0 1-7.5 2 26 26 0 0 1-6.5-1c-.7 0-1-.3-1-1 1-3.5 1.3-7.1 1-11 .3-6.7 1-13.4 2-20 0-1.8.8-3.2 2-4Z" style="opacity:1"/>
  <path fill="#b34926" d="M496.5 538.5a225 225 0 0 1 3 25v2a14 14 0 0 1-3-6v-21Z" style="opacity:1"/>
  <path fill="#1d1503" d="M431.5 487.5h1c0 1 .2 1.8 1 2.5-2.2 2-2.2 3.5 0 4.5v1c-1.3 3.2-2 6.5-2 10a60 60 0 0 0-5 18 9.2 9.2 0 0 0-1 5 266.9 266.9 0 0 0-1.5 47 4.2 4.2 0 0 0 2.5 3c0 .7.3 1 1 1v4c-2.3-1-4.3-2.3-6-4 0-1.3-.5-2.3-1.5-3-.5-7.3-.7-14.7-.5-22 1-8.2 1.7-16.5 2-25 0-2.7.4-5.4 1-8 .5-1.6.9-3.3 1-5 2.7-8.4 5-17.1 7-26 .9-.7 1.2-1.7 1-3Z" style="opacity:1"/>
  <path fill="#fbd209" d="M249.5 555.5c2.4 1.9 5 3.2 8 4a55 55 0 0 0 18 .5c3.9-1.2 7.9-2 12-2.5a8 8 0 0 1-2 5.5 68 68 0 0 0 4 2c-2.5.5-4 2-4.5 4.5-.7-2.7-1.3-2.7-2 0-.4-.5-1-.8-1.5-1a91.6 91.6 0 0 1-10 7.5c-4.5.9-8.8 2.2-13 4 1.4 1.3 3 1.8 5 1.5l-3 2.5c-7 1-14 1.3-21 1-4.1-1.8-5.8-5-5-9.5 3.5-1.2 3.3-2.9-.5-5a29 29 0 0 1 3.5-17c2 0 3.9-.6 5.5-2a8.4 8.4 0 0 0 6.5 4Z" style="opacity:1"/>
  <path fill="#d6be3f" d="M290.5 565.5c-.1-1.8.2-3.4 1-5a4.5 4.5 0 0 0-2-1.5c2-.5 4-.7 6-.5v-3c-3 0-5.6.7-8 2-4.1.4-8.1 1.3-12 2.5a55 55 0 0 1-18-.5c11 .6 21.7-1.3 32-5.5 3-.5 6-.7 9-.5a24.5 24.5 0 0 1-8 12Z" style="opacity:1"/>
  <path fill="#dff4f3" d="M183.5 558.5c-5.5 3.9-11.1 7.6-17 11 0-1 .2-1.8 1-2.5 5-3.5 10.3-6.3 16-8.5Z" style="opacity:.151"/>
  <path fill="#5b9c98" d="M239.5 526.5c-1.8 4-2.8 8.4-3 13-.5 3-.8 6-1 9v1a14 14 0 0 0-3.5 6 62.5 62.5 0 0 0-.5 22v1c-.5 8.5 3.5 12.1 12 11 2.2 0 4.2-.3 6-1 .7 0 1-.3 1-1h5c4.3-.2 8.7 0 13 .5l-1 1c1 .5 2 .6 3 .5 1.2 4.7 2.2 9.3 3 14 1.4.5 2 1.5 2 3 0 1 .4 2 1 3 3 1 5.6 2.3 8 4l3 6a18.3 18.3 0 0 0-2 9c-1.7 1.1-2.4 2.8-2 5-.9.7-1.2 1.7-1 3-2.2 6.7.2 11 7 13 1.5 0 2.5.6 3 2 2 3.2 3.8 6.6 5.5 10 2 12 3 24 3 36 .3 1 .8 1.6 1.5 2a13 13 0 0 0 2 9c-1 1.6-.4 2.4 2 2.5 1.7 1.4 3 3 4 5 1.2.8 2.6 1.3 4 1.5a7 7 0 0 1 4 2c2.6 3.8 6.3 5.4 11 5l2 1c6.6 1.4 13.3.9 20-1.5l12-6 10-8.5c1.6-1.8 3.6-3.2 6-4 2.3-.5 4.3-1.5 6-3 2.9-.7 5.4-2 7.5-4l3.5 3 1-1.5c-1.1-1-1.6-2.2-1.5-3.5 2.2-2.2 4.7-3.4 7.5-3.5a18 18 0 0 0-2 3.5c2.2 1 4.6 1.3 7 1 .4-3-.3-5.6-2-8 1.7-2.4 3.7-4.4 6-6 2.6-2 5-4.3 7-7 6.3-.2 12.7 0 19 .5 6.2 3.6 12.5 6.7 19 9.5 1.2 5.2 4.6 7.5 10 7 1.3 2.3 3.2 4.3 5.5 6 .7 1.3.5 2.5-.5 3.5 2.3.5 4.6.7 7 .5 5.3 4.7 10.3 9.7 15 15 4 6 9 11 15 15v1a413.3 413.3 0 0 1-51 51.5 1279.5 1279.5 0 0 1-68 52 3034 3034 0 0 0 117 33l14 5.5c35.6 12.7 71.5 25.4 107.5 38 15.2-16.2 30.7-32 46.5-47.5l19-15c4.2-3.3 9-5.8 14-7.5l-1 2c1.9 2.3 3 5 3.5 8l1-3a7 7 0 0 0 2.5 2 404 404 0 0 1 17 34c1.5 3.7 3.5 7 6 10 .6 2 1 4 1 6-3.8-.4-7.7-.8-11.5-1-1.2.5-2 1.3-2.5 2.5 4 .2 7.8.7 11.5 1.5l4-3a11 11 0 0 1 3 7c-1-.8-1.6-1.8-2-3l-4 3c-.3-.8-.8-1.5-1.5-2a4.9 4.9 0 0 0-1 4c1-.1 2 0 3 .5a7.7 7.7 0 0 0 3 3.5 9.1 9.1 0 0 1 5-1 38 38 0 0 0 5.5 12c2.1.5 2.6 1.5 1.5 3l1.5 3c2.2 3.4 5 6.4 8 9a22 22 0 0 1 0 7l1-1c1.3 1.3 2.8 2.3 4.5 3 3.7 6.2 7 12.5 10 19 .7-.5 1.2-1.2 1.5-2a76 76 0 0 0 4 11c10.8 7.8 9.3 10.8-4.5 9a466.5 466.5 0 0 0-43-3h-12c-1.8-.8-3.8-1.3-6-1.5 1.1-1 .8-1.7-1-2a62 62 0 0 1-13-2c1.2-.4 2.2-1 3-2l13-1c-6.2-2.5-12-2-17.5 1.5a16.6 16.6 0 0 0-12.5.5c-32.7-1.7-65.4-4.3-98-8-5.6-2-11-2.5-16-1.5-9.6-1.4-19.3-2.3-29-2.5-4.8-.9-9.4-2-14-3.5l-3 .5 5 1-3.5.5c-6.5-.9-13-1.2-19.5-1-13.7-.4-27.4-1.4-41-3-5.4.1-10.7-.2-16-1-8.5-1.4-17.1-2.4-26-3-3.3-15.8-8-31.2-14-46-2.3-8.8-5.2-17.5-8.5-26a14 14 0 0 0-3.5-6c-3-10.7-7.2-21-12.5-31-4-8-8.5-15.7-13.5-23-1.6-4.2-4-7.9-7-11a8.5 8.5 0 0 1-5-6 40.4 40.4 0 0 0-13-13l-11-6c-3-1.4-6.4-2.1-10-2-6 .4-11.6 1.4-17 3-11.6 1.6-23 4-34 7h-1a577.5 577.5 0 0 0-34 6 308 308 0 0 1-63 3.5c-3.4-1-6.7-2.2-10-3.5-5.1-1.4-9.5-4-13-8a93.7 93.7 0 0 1-16.5-24 60 60 0 0 1-2-39c4-9.8 8.4-19.5 13-29a74.9 74.9 0 0 0 6-37 82.1 82.1 0 0 0-12-18c-.7-3-.7-6 0-9 .4-.6.9-.9 1.5-1 3.5-2.2 5.9-5.2 7-9 5.8 0 9.3-2.6 10.5-8l6-4c5-8.1 4.2-15.6-2.5-22.5 1.3-1 1.3-2 0-3 1-.5 2-.3 3 .5 1-3.6 1.3-7.3 1-11-1 .1-2 0-3-.5l2-4.5c.6.2 1 .5 1.5 1 1-1.4 1.9-2.9 2.5-4.5l8-1.5v-3c-2.4-.3-4.7-.8-7-1.5.8-.3 1.5-.8 2-1.5-1-2.2-.3-2.5 2-1 2.4-1.7 4.8-1.9 7-.5-1.5.8-2 2-1.5 3.5a8 8 0 0 0 5.5 2c.3 2.2-.3 4-2 5.5 3.7.5 7.3.7 11 .5 0-2.5 1-4.5 3-6-1.8-.7-3.5-1-5-1 2.2-1 4.6-1.3 7-1v-9h5v5c4 .7 8 1 12 1-.2-2.2.6-3.9 2.5-5 .5-2 .7-4 .5-6h-5c-1.2-6.7 1-8.4 6.5-5 2-2.8 1.2-4.1-2.5-4 0-3.6-1-6.8-3-9.5 0-2.8 1.3-4 4-3.5 1.7 14.7 3.3 14.7 5 0 3-.2 4.3-2 4-5h4Z" style="opacity:1"/>
  <path fill="#111822" d="M500.5 551.5c1.4 10 3 20 5 30a66.2 66.2 0 0 0-4-9c.1-3-.2-6-1-9v-12Z" style="opacity:1"/>
  <path fill="#e4f7f6" d="M928.5 541.5a27 27 0 0 1 3.5 12c.8 6.3 1.3 12.7 1.5 19a892.9 892.9 0 0 0-5-31Z" style="opacity:.075"/>
  <path fill="#591807" d="M499.5 563.5h1c.8 3 1.1 6 1 9v3h-1c.2-3.4-.2-6.7-1-10v-2Z" style="opacity:1"/>
  <path fill="#8ba057" d="M235.5 549.5c-2.6 9.1-4 18.5-4 28-1.1-7.2-1-14.5.5-22a14 14 0 0 1 3.5-6Z" style="opacity:1"/>
  <path fill="#e7d42f" d="m241.5 531.5-2 11c.3 2 1 3.8 2 5.5-.8 2.3-2.1 4.1-4 5.5a29 29 0 0 0-3.5 17c3.8 2.1 4 3.8.5 5-.8 4.6.9 7.7 5 9.5 7 .3 14 0 21-1l3-2.5h4a38.5 38.5 0 0 1-6 4c-2.2.4-4.2 1-6 2h-5c-5 .5-9.6-.2-14-2-2.4-1.8-4-4.2-5-7v-1c0-9.5 1.4-18.9 4-28v-1c1.5-3 2.5-6.4 3-10 .2-2.7 1.2-5 3-7Z" style="opacity:1"/>
  <path fill="#f3d117" d="M290.5 565.5c-.6 1.8-1.4 3.4-2.5 5-.7 2-.7 4 0 6 2 3.5 4.6 6.5 7.5 9 .3 1.4 1 2.4 2.5 3 .7 2 .7 4 0 6-3 4.9-5 10.2-6.5 16a6.6 6.6 0 0 1-5 2.5 28 28 0 0 1-11-15.5c-.3-1.5 0-2.8 1-4 2.4-1.9 4-4.2 5-7 2.6-2.3 2.6-4.8 0-7.5-3.8-.7-7.1.2-10 2.5h-8c-2 .3-3.6-.2-5-1.5 4.2-1.8 8.5-3.1 13-4 3.5-2.2 6.8-4.7 10-7.5.6.2 1 .5 1.5 1 .7-2.7 1.3-2.7 2 0 .5-2.5 2-4 4.5-4.5a68 68 0 0 1-4-2 8 8 0 0 0 2-5.5c2.4-1.3 5-2 8-2v3c-2-.2-4 0-6 .5.8.3 1.5.8 2 1.5a9.1 9.1 0 0 0-1 5Z" style="opacity:1"/>
  <path fill="#e3c141" d="M425.5 528.5c-.2 9.8-.5 19.7-1 29.5l1 12.5a44 44 0 0 1 2-3c.3 3.9 0 7.5-1 11a4.2 4.2 0 0 1-2.5-3c-.9-15.9-.4-31.5 1.5-47Z" style="opacity:1"/>
  <path fill="#b94928" d="M467.5 578.5c-3.1-5.4-7.8-7.2-14-5.5a27.6 27.6 0 0 1-6 3.5c1.7-2 3.7-3.9 6-5.5 7.4-2.1 12 .4 14 7.5Z" style="opacity:1"/>
  <path fill="#dbc145" d="M299.5 559.5c-1.5 3.7-3.6 7-6.5 10-.7 2.7-.6 5.4.5 8 1.8 1.4 3 3 4 5a14.4 14.4 0 0 1-8-8.5c2.7-5.3 6-10.2 10-14.5Z" style="opacity:1"/>
  <path fill="#85311d" d="M447.5 576.5a7.1 7.1 0 0 1-6 2 7.1 7.1 0 0 1 6-2Z" style="opacity:1"/>
  <path fill="#e4f7f5" d="M166.5 569.5a31.4 31.4 0 0 1-4.5 5c-.7 2.7-.7 5.3 0 8a507 507 0 0 0 10.5 22 98.3 98.3 0 0 1-11.5-20c-1-4.7-.5-9.2 1.5-13.5 1.2-.8 2.6-1.3 4-1.5Z" style="opacity:.438"/>
  <path fill="#8ea153" d="M281.5 586.5v-6a77 77 0 0 0-10 1c2.9-2.3 6.2-3.2 10-2.5 2.6 2.7 2.6 5.2 0 7.5Z" style="opacity:1"/>
  <path fill="#ba502f" d="M467.5 579.5c1.8.8 3.1 2.2 4 4 3.6 3.3 6.2 7.3 8 12a47.4 47.4 0 0 1-12-16Z" style="opacity:1"/>
  <path fill="#933116" d="M447.5 580.5a14 14 0 0 1-6 3.5c-4.7.5-9.3.7-14 .5v-1c7 .5 13.6-.5 20-3Z" style="opacity:1"/>
  <path fill="#e54e0d" d="M463.5 581.5c4 5 7.9 10.4 11.5 16 3 3.5 6.5 6.1 10.5 8 1.9 4.4 2.4 9.1 1.5 14a4 4 0 0 0-3.5-2c-5-5.7-9.7-11.7-14-18-.5-2.8-2.1-4.1-5-4-3.8 1-7.4 2.4-11 4a30.2 30.2 0 0 1-22 3c-3.6-5.4-5-11.4-4-18 4.7.2 9.3 0 14-.5a14 14 0 0 0 6-3.5c3.9 0 7.6-.6 11-2a3 3 0 0 0 1 3c1.4-1.3 2.7-1.3 4 0Z" style="opacity:1"/>
  <path fill="#7da056" d="M267.5 581.5h4a16.8 16.8 0 0 1-10 4c2.1-1.2 4.1-2.5 6-4Z" style="opacity:1"/>
  <path fill="#639c87" d="M281.5 586.5c-1 2.8-2.6 5.1-5 7a4.9 4.9 0 0 0-1 4c-1.8 1.5-2.4 3.5-2 6-.8-4.7-1.8-9.3-3-14-1 .1-2 0-3-.5l1-1c-4.3-.5-8.7-.7-13-.5 1.8-1 3.8-1.6 6-2 3.9-.3 7.2-1.6 10-4a77 77 0 0 1 10-1v6Z" style="opacity:1"/>
  <path fill="#a4ba5b" d="M236.5 585.5c4.4 1.8 9 2.5 14 2 0 .7-.3 1-1 1a61 61 0 0 1-11-.5 7 7 0 0 1-2-2.5Z" style="opacity:1"/>
  <path fill="#6c9865" d="M231.5 578.5c1 2.8 2.6 5.2 5 7a7 7 0 0 0 2 2.5c3.7.5 7.3.7 11 .5-1.8.7-3.8 1-6 1-8.5 1.1-12.5-2.5-12-11Z" style="opacity:1"/>
  <path fill="#5e9b97" d="M913.5 495.5a97 97 0 0 1 7 14c0 2.7.6 5 2 7 .6 4.7 2 9 4 13 1 3.9 1.8 7.9 2 12 1.9 10.4 3.5 20.8 5 31 1 10.3 1.2 20.6.5 31-.7 1.6-1.5 3-2.5 4.5-5.1 2.6-10.3 5.1-15.5 7.5-1.7 8.3-2 16.6-.5 25 1.2 8 3.2 15.6 6 23 1.2 6.6 3.2 13 6 19 1.6 6.5 3.6 12.8 6 19 1.3 2.4 2 5 2 8 .4 4.6 1.4 9 3 13 .2 4.7 0 9.3-.5 14a16 16 0 0 1-4.5 8c0 .7-.3 1-1 1-6 1-12 1.2-18 .5a32 32 0 0 0-13-3.5c-2.2-2-4.9-3-8-3a17.4 17.4 0 0 0-9-1.5 5 5 0 0 0-1 2.5c2 4.5 4.4 8.8 7 13 3 5 2.6 9.6-1 14-3.6 3.5-7.5 6.8-11.5 10a6.5 6.5 0 0 0 0 5c1.1 2.3 2 4.6 2.5 7 .5 2.3 1.5 4.3 3 6 .2 3.4 0 6.7-.5 10l-1-1a5 5 0 0 0-.5 3 25 25 0 0 0-7 .5l1 1a25.6 25.6 0 0 1-5.5 3.5c-.6 1-.5 1.8.5 2.5a5 5 0 0 1-3 .5c0 3.5-.7 6.8-2 10a12 12 0 0 1-1 6c-1.5.7-2.4 2-2.5 4 0 12.9-1.5 25.6-4.5 38-2.6.6-3.3 2-2 4-1 .9-1.9 1.9-2.5 3-1.3-1.3-2.5-1.1-3.5.5l1 1c-3.7.2-7.4.7-11 1.5l-8 5c-5.5.8-11 1.5-16.5 2-1.2-.1-2.4-.5-3.5-1a12 12 0 0 0-5-5.5 35.3 35.3 0 0 1-16-5.5c-.2-2.3-1.3-4-3.5-5-1.9.3-4 .3-6.5 0-.6-1.3-1-2.6-1.5-4-3.8-1-6-3.3-6.5-7-3 .1-6-.2-9-1-2.3-1.4-4-3.4-5-6l-9-4c-5.8-3.2-11.4-6.7-17-10.5-7.1-1-14.1-.5-21 1.5l-1 1.5 4 9.5a7 7 0 0 1-2.5-2l-1 3a16 16 0 0 0-3.5-8l1-2a104 104 0 0 0-7-18c7-4.8 14.7-6 23-3.5 21.8 14 44.2 27.4 67 40a44.4 44.4 0 0 0 49-2 42.9 42.9 0 0 0 15-32.5c-1.5-11.4-1.3-22.7.5-34 1.8-5.8 5.7-9.7 11.5-11.5 4.6-3.4 6-8 4.5-13.5-3.2-6-6-12.1-8.5-18.5l.5-2.5c4.2-3.4 8.2-7.1 12-11 2.7-3.5 3-7.2 1-11-3-4.6-6.3-9-10-13a8.4 8.4 0 0 1-.5-4c12.2 2.8 24.6 5.1 37 7 8 .8 13.7-2.2 17.5-9 1-8.5.3-16.8-2-25l-24-64a76 76 0 0 1-4-34 85.8 85.8 0 0 0 15-9c1.9-2.7 2.7-5.7 2.5-9a288 288 0 0 0-26-102c.7-.8 1.5-1.4 2.5-2 3.5 2.8 5.2 6.5 5 11 2.5 2.8 4 6.1 4.5 10 .7-1.8 1.5-3.4 2.5-5 .4.5 1 .8 1.5 1a24 24 0 0 1 0 8c1.3-.2 2.5.2 3.5 1 .8-2.3 2.2-4.3 4-6 3.1 4.4 3.3 8.9.5 13.5-.4 1.8 0 3.6 1.5 5.5a11 11 0 0 0 1.5-6c1.2-.8 2.5-.8 4 0Z" style="opacity:1"/>
  <path fill="#fcd206" d="M271.5 483.5c-.5 4.9-.5 9.9 0 15 2.9 1 5.4 1 7.5 0l1 4c2 .7 3.8 1.7 5.5 3-1.3 1.9-.8 3.2 1.5 4 3-2.6 6-2.6 9 0 1.5-2.1 3.3-2.6 5.5-1.5a7.9 7.9 0 0 0-4-2c2.1-.5 4.1-1.4 6-2.5 1.1-1 1.1-1.8 0-2.5 1.3-1.1 2.4-1.3 3.5-.5 2-1.3 3.7-3 5-5l1 1c11.8-3.8 12.6-2 2.5 5.5-1.6-.4-3.1-.6-4.5-.5-.6 1.1-1.5 2.1-2.5 3-.6 1.7-.9 3.4-1 5 .9.8 1.9 1.3 3 1.5a25 25 0 0 1-7 .5c.2 1.6-.1 3.1-1 4.5-2.2.2-4.2.8-6 2 4.7 1.3 7.3 4.3 8 9 2 .2 4 .7 6 1.5.7 1.2 1 2.6 1 4 1-.1 2 0 3 .5-1.2.7-1.2 1.2 0 1.5a12 12 0 0 1 6.5-4c3.3 2.9 7 3.7 11.5 2.5 3.5-2 7.2-3.6 11-5 1.6-2.1 3.6-3.8 6-5a14 14 0 0 1 4-5.5c-.2-.6-.5-1-1-1.5 5.8-4.4 12-7.3 18.5-8.5.9 2.8 2.5 3.5 5 2-.4 6.2 2.4 9.4 8.5 9.5-2.2.7-2.5 1.8-1 3.5 2.3.8 4.4 1.8 6.5 3l1-1 1 3a9 9 0 0 1 6.5 5.5c4.8.2 9.1 1.3 13 3.5.2 1.3-.2 2.5-1 3.5a5 5 0 0 0-3.5 2.5c-.4-.5-1-.8-1.5-1a10.9 10.9 0 0 1-6 2.5c-3.4 4.7-8.4 8-15 10-.6 1.2-1.2 2.4-2 3.5a15 15 0 0 0-7 0c-.2-2.5.3-4.8 1.5-7l7-5 1 1c.5-1 .6-2 .5-3 2 .2 4 0 6-.5.2-1.8.6-3.6 1-5.5a33.5 33.5 0 0 0-17-16 3 3 0 0 1-1-3c-2 0-4-.3-6-1a24.4 24.4 0 0 1-11 1.5l1 1a13.2 13.2 0 0 0-5 5c-5 2.7-10 5.6-15 8.5-.6-.2-1-.5-1.5-1-.7 1.6-.2 2.8 1.5 3.5l-2 1c2 1.4 2.4 3 1 5 3.7 2.2 7 4.9 10 8 3.3 1.6 6.7 3.1 10 4.5v3c-1 .1-2 0-3-.5-3.4-3-7-5.7-11-8-5.3.9-8-1.3-8-6.5-7-.3-12.4 2.4-16.5 8-1.8-1.3-2.3-1.2-1.5.5-2 .5-4 .7-6 .5a13 13 0 0 1-.5 5c-.3-.8-.8-1.5-1.5-2a9.1 9.1 0 0 1-5 1c.3 2.2-.3 4-2 5.5a6.5 6.5 0 0 1 1 4.5c-3.2.2-5.2 1.8-6 5 3.7 4.5 4.7 4 3-1.5.6-.8 1.1-1.6 1.5-2.5l9.5 8.5a24 24 0 0 0 22.5 2.5c.6 1 .5 1.8-.5 2.5-2.7.4-5.4.9-8 1.5a5 5 0 0 1-2.5-1c-1.7 1.5-1.2 2.5 1.5 3H336c1 2.5 1.8 5.2 2 8l1-1c1.3 2.5 3.1 4.5 5.5 6a102 102 0 0 1 14 9.5c.9.7 1.5 1.5 2 2.5-1.2 1.5-1.2 3 0 4.5-.8.3-1.5.8-2 1.5 5.3 1.5 10.3.8 15-2a6.8 6.8 0 0 0-3-1.5c3-.3 5-1.8 6-4.5 1.7.4 3.3-.3 5-2 .6.2 1 .5 1.5 1 3.2-2.9 6-6 8.5-9.5 6.6-3 13.6-4.4 21-4l5 8.5c1.7 2.7 4 4.7 7 6a40 40 0 0 1 8.5-2c2.8.1 5 1.1 7 3 2.2-.4 4-1.4 5.5-3l2 .5 1 2.5c1.1-1.1 2.3-1.1 3.5 0 1.8-.4 1.6-1-.5-1.5 3-.4 3.4-1 1-2 4.5-5.3 10.2-6.8 17-4.5 4.3 6.3 9 12.3 14 18 1.7 2.7 4 4.7 7 6h1c1.2 2.4 2.9 4.4 5 6 .3 6.3 1.8 12.3 4.5 18 1.1.8 2.3 1.5 3.5 2 1 1 1.3 2.4 1 4-1.1 1.4-1.3 3.1-.5 5l3.5 9a7 7 0 0 1 4 1c.6 7.7 3.3 14.5 8 20.5 2.5 2.6 5.5 4 9 4.5v2c-1.4 5.6-3.4 11-6 16h-3c.4 3.1-.8 5.5-3.5 7l-4.5-3a72 72 0 0 1-9-11 22 22 0 0 0-5-8.5l1-1a392 392 0 0 0-16-16.5l1-1c2.2 1.3 4.6 1.8 7 1.5a34 34 0 0 1 4-5.5c-1.7-2-3.6-1.7-5.5 1-2.7-2.6-5.5-3.1-8.5-1.5 4 1.6 3.9 2.7-.5 3.5-3.7-3.6-7.6-7.1-11.5-10.5l-11-3.5c1.6-2 1.3-3.4-1-4.5-9-3.8-18.3-5-28-3.5-4.6 2.4-8.9 5-13 8a9.9 9.9 0 0 1-6 1v4h-6v3c-3.4 2-7 3.4-11 4a10.1 10.1 0 0 0-3 6l-2 1a14 14 0 0 0-10 .5 4.3 4.3 0 0 0-2 4.5c-1.7 1.8-5 2.8-10 3v3a48.2 48.2 0 0 1-31 4 23.4 23.4 0 0 0-11-5 7.7 7.7 0 0 1 0-5c3.7 2.5 7.4 2.3 11-.5-5-.5-10-.7-15-.5a28.6 28.6 0 0 1-6-11.5c.1-1.2.5-2.4 1-3.5-.8-10.3-1.3-20.6-1.5-31l-2-12-1.5-1.5c1.7.4 3.4.2 5-.5l-17-11 2-2c-1.9-5-.7-9 3.5-12 .8-4.7.7-9.4-.5-14-1-.6-2-1-3-1a6.5 6.5 0 0 1-3-3c-1-2-2.2-3.6-4-5-1-2.6-1.2-5.3-.5-8 2.9-3 5-6.3 6.5-10a7 7 0 0 0 2.5-2c1.1-5.6-1.2-8.3-7-8a42.4 42.4 0 0 1-22-1l-1.5 1a6.4 6.4 0 0 0 5 2.5 19 19 0 0 0-5 3c-5.3.5-10.7.7-16 .5-1-1.5-2.1-2.8-3.5-4-1.8-6.3-2-12.6-.5-19 2.2-10.2 5.5-19.8 10-29 3.7-2.6 5.6-6.3 5.5-11a33 33 0 0 1 4.5-9Z" style="opacity:1"/>
  <path fill="#f24905" d="M453.5 599.5c-6.6 1.4-13.3 2-20 1.5-1.3-.7-1.3-1.3 0-2-3.5-2.2-4.8-5.4-4-9.5 9.6-1 19.1-2.7 28.5-5 1.4 0 2.6.5 3.5 1.5l-1 1a9 9 0 0 1 3 5.5 13 13 0 0 0-10 7Z" style="opacity:1"/>
  <path fill="#201015" d="M501.5 572.5c1.5 2.8 2.9 5.8 4 9a450464 450464 0 0 1 15 67h-1c-2.2-9.2-4.9-18.2-8-27v-1a389.2 389.2 0 0 1-10-45v-3Z" style="opacity:1"/>
  <path fill="#ae4523" d="M479.5 596.5a51.5 51.5 0 0 1 15 7c-5.9-.6-10.9-3-15-7Z" style="opacity:1"/>
  <path fill="#310a05" d="M467.5 578.5v1a47.4 47.4 0 0 0 12 16v1c4.1 4 9.1 6.4 15 7 1.3 1.7 1.2 3.4-.5 5-2.4 8.5.1 14.8 7.5 19-2 .2-4 0-6-.5-.6-2-2-3.2-4-3.5h-1c-1.3-6-1.3-12 0-18h-5c-4-1.9-7.5-4.5-10.5-8a200 200 0 0 0-11.5-16 5.9 5.9 0 0 0-5-5 20 20 0 0 0-11 4c-6.4 2.5-13 3.5-20 3v-4c2 .6 4.2 1 6.5 1 2.9.2 5.4-.5 7.5-2 2.4.2 4.4-.4 6-2 2.1-.9 4.1-2 6-3.5 6.2-1.7 10.9.1 14 5.5Z" style="opacity:1"/>
  <path fill="#cb4a27" d="M463.5 581.5c-1.3-1.3-2.6-1.3-4 0a3 3 0 0 1-1-3c-3.4 1.4-7.1 2-11 2a20 20 0 0 1 11-4c2.8.6 4.4 2.2 5 5Z" style="opacity:1"/>
  <path fill="#b54828" d="M500.5 575.5h1c2.4 15.2 5.8 30.2 10 45l-2.5-4c-2.8-10.3-5.5-20.6-8-31-.5-3.3-.7-6.6-.5-10Z" style="opacity:1"/>
  <path fill="#fac815" d="M421.5 579.5c1.7 1.7 3.7 3 6 4v1c-1 6.6.4 12.6 4 18 7.9 1.8 15.2.8 22-3 3.6-1.6 7.2-3 11-4 2.9-.1 4.5 1.2 5 4-6.8-2.3-12.5-.8-17 4.5 2.4 1 2 1.6-1 2 2.1.6 2.3 1 .5 1.5-1.2-1.1-2.4-1.1-3.5 0l-1-2.5-2-.5a9.5 9.5 0 0 1-5.5 3c-2-1.9-4.2-2.9-7-3a40 40 0 0 0-8.5 2c-3-1.3-5.3-3.3-7-6a3 3 0 0 1 2-2c1.8 1.3 3.5 2.8 5 4.5 1 .7 2 .7 3 0a47.3 47.3 0 0 1-2-17.5c-3.3-.5-4.6-2.5-4-6Z" style="opacity:1"/>
  <path fill="#ca5220" d="M485.5 605.5h5c-1.3 6-1.3 12 0 18-3-1.3-5.3-3.3-7-6a4 4 0 0 1 3.5 2c.9-4.9.4-9.6-1.5-14Z" style="opacity:1"/>
  <path fill="#7f9f51" d="M275.5 606.5a32 32 0 0 1 9 7c-2.4-1.7-5-3-8-4-.6-1-1-2-1-3Z" style="opacity:1"/>
  <path fill="#eafaf8" d="M172.5 611.5c-.6 2.3-2 4-4 5 .6-2.3 2-4 4-5Z" style="opacity:.118"/>
  <path fill="#dfcc37" d="M295.5 585.5a9.7 9.7 0 0 1 6 7c-2.2 4.8-4.7 9.5-7.5 14-.7 3.7-.7 7.3 0 11a7 7 0 0 0 2.5 3.5c5.5 1.7 9.2 5.2 11 10.5a85.3 85.3 0 0 0-8-7.5c-6.6-2.5-11-.3-13 6.5-.8 1.2-1.8 2.2-3 3-.4-2.2.3-3.9 2-5 2.9-3.9 3.5-8.2 2-13l-3-2a32 32 0 0 0-9-7c0-1.5-.6-2.5-2-3-.4-2.5.2-4.5 2-6a28 28 0 0 0 11 15.5c2 0 3.6-.9 5-2.5a57.3 57.3 0 0 1 6.5-16c.7-2 .7-4 0-6a3.8 3.8 0 0 1-2.5-3Z" style="opacity:1"/>
  <path fill="#8da34e" d="m284.5 613.5 3 2c1.5 4.8.9 9.1-2 13-.1-3.2.6-6.2 2-9l-3-6Z" style="opacity:1"/>
  <path fill="#ea4b0e" d="M496.5 559.5a14 14 0 0 0 3 6c.8 3.3 1.2 6.6 1 10-.2 3.4 0 6.7.5 10 2.5 10.4 5.2 20.7 8 31 1 1.4 1.8 2.7 2.5 4v1c-.2 10 2.5 19 8 27 .3 6.2 1.7 12.2 4 18l-1.5 1a9 9 0 0 0-6.5-2v-1c.2-1.3-.2-2.5-1-3.5l5-1a26 26 0 0 1-7.5-4.5c-1-6-2-12-2.5-18l-3-2c.8-4.4-.8-7-5-8-7.4-4.2-9.9-10.5-7.5-19 1.7-1.6 1.8-3.3.5-5a51.5 51.5 0 0 0-15-7v-1a31.5 31.5 0 0 0-8-12l4-1a20 20 0 0 0 9 5c-.1 1 0 2 .5 3 1 1.1 1.7.8 2-1a7 7 0 0 0 2.5 3.5l-1 1 9 2.5a6 6 0 0 1 2 5h3c.4-2.9-.4-5.2-2.5-7-.5-6.3-.7-12.7-.5-19h-4c.7-5.3 1-10.6 1-16Z" style="opacity:1"/>
  <path fill="#b5481f" d="M501.5 627.5c4.2 1 5.8 3.6 5 8l-5-8Z" style="opacity:1"/>
  <path fill="#e8d632" d="M286.5 630.5c1 5 1.2 10 .5 15 5 2.5 9.4 5.8 13 10 2 14.2 3.2 28.6 3.5 43h3a54.2 54.2 0 0 0 8 15c3.3 1.4 6.3 3.2 9 5.5a5 5 0 0 1-3 .5h-2a7 7 0 0 0-4-2 24.5 24.5 0 0 0-6.5-7l-5.5-11c-.7-11-1.2-22-1.5-33a21.6 21.6 0 0 0-8.5-15c-.5-1.4-1.5-2-3-2-5.1-2.7-7.5-7-7-13-.2-1.3.1-2.3 1-3 1.2-.8 2.2-1.8 3-3Z" style="opacity:1"/>
  <path fill="#c34820" d="M511.5 621.5c3.1 8.8 5.8 17.8 8 27-5.5-8-8.2-17-8-27Z" style="opacity:1"/>
  <path fill="#a2b351" d="M282.5 636.5c-.5 6 1.9 10.3 7 13-6.8-2-9.2-6.3-7-13Z" style="opacity:1"/>
  <path fill="#cf5115" d="M496.5 629.5c2.6.8 4.4 2.4 5.5 5 1.9 4.8 2.7 9.8 2.5 15-1.2-.5-2.4-1.2-3.5-2a45.8 45.8 0 0 1-4.5-18Z" style="opacity:1"/>
  <path fill="#dff2f2" d="M915.5 640.5c3 7.3 5 15 6 23-2.8-7.4-4.8-15-6-23Z" style="opacity:.11"/>
  <path fill="#e5f7f7" d="M168.5 616.5a829 829 0 0 0-17.5 16c-1.1 2-2 4-2.5 6-.6.1-1.1.4-1.5 1-.7 3-.7 6 0 9a82.1 82.1 0 0 1 12 18 74.9 74.9 0 0 1-6 37c-4.6 9.5-9 19.2-13 29a60 60 0 0 0 2 39 93.7 93.7 0 0 0 16.5 24 59 59 0 0 1-20.5-63c4.7-11.1 9.7-22.1 15-33 4-10.6 5.4-21.6 4-33a71 71 0 0 0-11-17c-1.3-3-1.7-6-1-9a54.5 54.5 0 0 1 23.5-24Z" style="opacity:.008"/>
  <path fill="#e2c83a" d="M458.5 662.5a75.4 75.4 0 0 0-15-6.5c-4.3-.7-8.7-.7-13 0-13.2 8.4-26.5 16.6-40 24.5.5-2.7 1.5-4.7 3-6 4-.6 7.6-2 11-4v-3h6v-4c2.1.3 4.1 0 6-1 4.1-3 8.4-5.6 13-8 9.7-1.5 19-.3 28 3.5 2.3 1 2.6 2.6 1 4.5Z" style="opacity:1"/>
  <path fill="#2b0f05" d="M491.5 623.5c2 .3 3.4 1.4 4 3.5 2 .5 4 .7 6 .5l5 8c1.5 6.6 2.6 13.3 3.5 20 .9 3.7 2.7 6.7 5.5 9v1c2.5 3.2 5.8 4.8 10 5v-5c2 2.4 2.3 5 1 8l2 2c-3.7-.8-7.4-1.8-11-3-1.3-2-3-3.7-5-5a34.7 34.7 0 0 1-7-14c.3-1.6 0-3-1-4 .2-5.2-.6-10.2-2.5-15-1-2.6-3-4.2-5.5-5a16.6 16.6 0 0 1-5-6Z" style="opacity:1"/>
  <path fill="#17161e" d="M514.5 621.5a7995.4 7995.4 0 0 1 18.5 59 29 29 0 0 1-.5 13c.2-4 0-8-.5-12-.4-.6-.9-.9-1.5-1a6 6 0 0 0-2-5l-2-2c1.3-3 1-5.6-1-8-1.8-5.6-3.5-11.3-5-17l-6-27Z" style="opacity:1"/>
  <path fill="#d85725" d="m506.5 635.5 3 2c.6 6 1.4 12 2.5 18a26 26 0 0 0 7.5 4.5l-5 1c.8 1 1.2 2.2 1 3.5a16.2 16.2 0 0 1-5.5-9c-.9-6.7-2-13.4-3.5-20Z" style="opacity:1"/>
  <path fill="#f6d113" d="M457.5 665.5c1 1.5 1.7 3.2 2 5 3-.3 4.8 1 5 4h3c-.1 1 0 2 .5 3 2.2.6 4 1.8 5.5 3.5-1 .4-1.6 1.2-2 2.5-.2 2.6.1 5.2 1 8-3.6-.5-6.6-2-9-4.5-.8-1-1.2-2.2-1-3.5-4.7 1-8-.7-10-5l1-2c-1.6-1-3.2-1-5 0a35.1 35.1 0 0 1-7-4 43.4 43.4 0 0 1-15.5-4l-1.5.5c2.3 1 2.6 2.6 1 4.5a27 27 0 0 0-10 2l-1-2c-5.2 1-5.2.5 0-1.5-.6-.4-.9-.9-1-1.5 5.5-4 11.2-7.8 17-11.5 10-1.8 19 .3 27 6.5Z" style="opacity:1"/>
  <path fill="#dec640" d="M505.5 653.5c1.2 5.1 3.6 9.8 7 14v1a7 7 0 0 0-4-1l-3.5-9c-.8-1.9-.6-3.6.5-5Z" style="opacity:1"/>
  <path fill="#c14a22" d="M519.5 648.5h1c1.5 5.7 3.2 11.4 5 17v5c-4.2-.2-7.5-1.8-10-5a9 9 0 0 1 6.5 2l1.5-1a54.8 54.8 0 0 1-4-18Z" style="opacity:1"/>
  <path fill="#e0f0ef" d="M921.5 663.5c2.8 6 4.8 12.3 6 19-2.8-6-4.8-12.4-6-19Z" style="opacity:.01"/>
  <path fill="#e9d22d" d="M457.5 665.5a166.7 166.7 0 0 1 39 36 32 32 0 0 1-10-9c-1.5-1.4-3-1.7-4.5-1-.3-1.5-1-2.9-2-4l-6.5 6.5c2.8 1.7 4.4 4.2 5 7.5l-11-8a26.4 26.4 0 0 0-10-7 48.6 48.6 0 0 0-32-13c1.6-2 1.3-3.4-1-4.5l1.5-.5c4.9 2.3 10 3.6 15.5 4 2.1 1.6 4.4 2.9 7 4 1.8-1 3.4-1 5 0l-1 2c2 4.3 5.3 6 10 5-.2 1.3.2 2.5 1 3.5 2.4 2.5 5.4 4 9 4.5-.9-2.8-1.2-5.4-1-8 .4-1.3 1-2.1 2-2.5a11 11 0 0 0-5.5-3.5 5 5 0 0 1-.5-3h-3c-.2-3-2-4.3-5-4-.3-1.8-1-3.5-2-5Z" style="opacity:1"/>
  <path fill="#eed027" d="m458.5 662.5 11 3.5c4 3.4 7.8 6.9 11.5 10.5 4.4-.8 4.5-2 .5-3.5 3-1.6 5.8-1.1 8.5 1.5 2-2.7 3.8-3 5.5-1a34 34 0 0 0-4 5.5c-2.4.3-4.8-.2-7-1.5l-1 1a392 392 0 0 1 16 16.5l-1 1a22 22 0 0 1 5 8.5 671.6 671.6 0 0 1-21-22.5 587.1 587.1 0 0 0-24-19.5Z" style="opacity:1"/>
  <path fill="#e3500e" d="M512.5 667.5c2 1.3 3.7 3 5 5a30 30 0 0 0 9 4.5c.7 1.3 1.5 2.4 2.5 3.5.5 4.3.7 8.7.5 13-3.5-.4-6.5-2-9-4.5-4.7-6-7.4-12.8-8-20.5v-1Z" style="opacity:1"/>
  <path fill="#8ea64f" d="M419.5 676.5c-2 2.7-4.4 5-7 7h-2c2.7-2.7 5.7-5 9-7Z" style="opacity:1"/>
  <path fill="#799c65" d="M425.5 673.5c12.3.4 23 4.8 32 13-6.5-2.8-12.8-6-19-9.5-6.3-.5-12.7-.7-19-.5 1.9-1.3 3.9-2.3 6-3Z" style="opacity:1"/>
  <path fill="#e7cc37" d="M388.5 681.5c-7.6 5-15.6 9.5-24 13.5a49.7 49.7 0 0 1-29 4c-4.4-1.5-8-4-11-7.5 4.1.7 7.8 2.4 11 5 10.8 2.1 21.2.8 31-4v-3c5-.2 8.3-1.2 10-3-.3-2 .4-3.5 2-4.5a14 14 0 0 1 10-.5Z" style="opacity:1"/>
  <path fill="#83351d" d="M517.5 672.5c3.6 1.2 7.3 2.2 11 3a6 6 0 0 1 2 5c.3 5.2 0 10.2-1 15v-2c.2-4.3 0-8.7-.5-13-1-1-1.8-2.2-2.5-3.5a30 30 0 0 1-9-4.5Z" style="opacity:1"/>
  <path fill="#e4c835" d="M300.5 585.5c1 0 2 .4 3 1 1.2 4.6 1.3 9.3.5 14-4.2 3-5.4 7-3.5 12l-2 2 17 11c-1.6.7-3.3 1-5 .5l1.5 1.5 2 12c.2 10.4.7 20.7 1.5 31-.5 1.1-.9 2.3-1 3.5 1.2 4.4 3.2 8.2 6 11.5 5-.2 10 0 15 .5-3.6 2.8-7.3 3-11 .5a7.7 7.7 0 0 0 0 5 4 4 0 0 1-3.5-2l-5-7a62.8 62.8 0 0 1-3.5-36.5c.8-9.5-2.2-17.5-9-24-6.8-2.2-9.3-6.7-7.5-13.5 2.6-4.2 5-8.5 7-13 1.1-4 .3-7.3-2.5-10Z" style="opacity:1"/>
  <path fill="#edd126" d="M413.5 670.5c.1.6.4 1.1 1 1.5-5.2 2-5.2 2.5 0 1.5l1 2a27 27 0 0 1 10-2 45.7 45.7 0 0 0-15 10c-1.5 0-2.5.6-3 2-3.6 1-6.2 3-8 6l-12 7c-1.1-4.9.6-6.5 5-5 .6-2.4 1.6-4.6 3-6.5-2.7-2.2-5-1.9-7 1a13 13 0 0 1-5 .5c9.7-6.5 19.7-12.5 30-18Z" style="opacity:1"/>
  <path fill="#a1b552" d="M407.5 685.5c-2.3 2.5-5 4.5-8 6 1.8-3 4.4-5 8-6Z" style="opacity:1"/>
  <path fill="#7d9d5c" d="M292.5 651.5c4.9 3.7 7.7 8.7 8.5 15 .3 11 .8 22 1.5 33-.7-.4-1.2-1-1.5-2 0-12-1-24-3-36-1.7-3.4-3.6-6.8-5.5-10Z" style="opacity:1"/>
  <path fill="#144c61" d="M799.5 379.5c.9.6 1.9 1 3 1a211 211 0 0 1 86.5 107c10 27 15.3 55 16 84-1 .8-1.6 1.8-2 3-5 2.5-9.7 5.2-14.5 8-1.7 13.7-.2 27 4.5 40l22 56a58.5 58.5 0 0 1 3 27c-2.2 6.8-6.8 9.5-14 8a147 147 0 0 1-31.5-6.5c-2.7-.8-5.4-.7-8 .5-1 2-1.2 4-.5 6 4.1 5.9 8 11.9 11.5 18-3 5.6-7.2 10.3-12.5 14a9.9 9.9 0 0 0-2.5 5 56.7 56.7 0 0 0 8.5 19c2 7-.4 11-7.5 12.5-4 3-6.8 6.8-8.5 11.5l-3 49c-9.4 20-24.9 27.4-46.5 22.5a522.8 522.8 0 0 1-75-43.5 26 26 0 0 0-25 .5c-6.3 3.2-12.3 6.8-18 11a313.5 313.5 0 0 0-34 32.5c1-3.2 2.7-6 5-8.5-1.1-1-.8-1.7 1-2a15.4 15.4 0 0 0-6-3l-2-4a859 859 0 0 1-7-5c-3.6-.2-7-1.2-10-3-3.7-3.7-2.7-4.5 3-2.5 0-2-1-3.6-3-4.5a145 145 0 0 0-17-.5v-3c2 0 4 .3 6 1l2-1c1.4-2.9.8-3.9-2-3l-2-3c-1.3 1.3-2.7 1.3-4 0-.7.8-1.5 1.5-2.5 2l-9.5-5.5c-1-1-2.2-1.8-3.5-2.5-.7-.7-.7-1.3 0-2a79 79 0 0 1 13 8c.7-.7.7-1.3 0-2-5.3-3.4-10.5-6.9-15.5-10.5-1.3-1-1.3-2 0-3a5 5 0 0 0-3-.5c.9-2.5 2.2-4.9 4-7l-1-2c1.6-2.1 3.6-3 6-2.5-1.5.8-1.8 1.6-1 2.5 3-2.4 6.2-3.8 9.5-4 .6-1.5.1-2.5-1.5-3-1.1 1.3-2.5 1.8-4 1.5 5.3-6.2 11.6-8.5 19-7a9 9 0 0 1 4-3 7.9 7.9 0 0 0-4-2c.8-.3 1.5-.8 2-1.5-1-1.1-1-2.1 0-3l4 3c-1.2 1.5-1.2 3 0 4.5-1.5.3-2.9 1-4 2 3.8 1.1 7.1 3.1 10 6-2 .1-3.8-.4-5.5-1.5 1.2 2.7 3.4 4.7 6.5 6l.5-4c4.2 2 8 4.3 11.5 7-.3 9.8.6 10.2 2.5 1 1.5 2.6 2.3 2.2 2.5-1 2-.2 4 0 6 .5a5.6 5.6 0 0 0-2 5.5c-1.6.2-3.1-.1-4.5-1-.7 1.6-.6 3.1.5 4.5 2.7.8 5.4.7 8-.5 2.5-1.7 2.2-3-1-4a38 38 0 0 0 7-2.5c-.8-.3-1.5-.8-2-1.5 3.8-3.7 8.1-6.7 13-9 .7.5 1.2 1.2 1.5 2a28 28 0 0 0 6.5-5.5 16 16 0 0 1-7-.5c4.3-3.2 9-3.9 14-2 2.5-.5 4.9-1.5 7-3a4.5 4.5 0 0 0-2-1.5 15 15 0 0 1 1-3.5 4.5 4.5 0 0 0-2-1.5l7 1a81.9 81.9 0 0 1 18-12c-5.4-.9-9.5 1-12.5 5.5l-1-1c-1 1.8-2.1 2-3.5 1 1.3-.9 2.4-1.9 3.5-3l1 1c1-1 1.8-2.2 2.5-3.5 5-1.6 9.6-4.1 13.5-7.5.4 1 .9 1.8 1.5 2.5 3.2.6 6.2 0 9-2-1.2-1-2.5-2-4-2.5-3.5 1.1-6.8.6-10-1.5 2.1-1 3-2.4 2.5-4.5-.4 1-1 1.6-2 2-4.2-2.5-8.4-5.2-12.5-8-1 .5-1.2 1.2-.5 2 1 .5 1.8 1.2 2.5 2a5 5 0 0 1-6 0 32.7 32.7 0 0 1-6-4.5c1.8-1.2 3.8-1.8 6-2-1.5-.6-2.8-1.5-4-2.5a7.1 7.1 0 0 1-6 2c-.5 3.7-.9 3.3-1-1-2.5 0-5 .3-7.5 1-1.3-.3-2.3-1-3-2-1.9 1.7-4 2.7-6.5 3-1.5-5.3.5-7 6-5 3.2-1.7 6.5-2.2 10-1.5l-4 1c3.4.5 6.7.4 10-.5v-3c-2 .2-3.7-.5-5-2-3.2 2.3-6.6 2.3-10 0l3-3a13 13 0 0 0 10 0 18 18 0 0 1 3.5 2c6.8-4 13.3-8.5 19.5-13.5-.4-1.3-1-1.6-2-1-6 3.5-11.9 7.3-17.5 11.5.6-2.3.4-4.6-.5-7-5.7-.3-11.4 0-17 1-1.9 1.1-2.5 2.5-2 4a7.3 7.3 0 0 0-5-1.5c3.8 3.4 3.5 3.9-1 1.5-1.4 1.6-3 2.1-5 1.5 3-2.2 2.6-3.3-1-3.5v-3a3 3 0 0 0 3-1c-3-3.9-6-3.9-9 0a4.3 4.3 0 0 1-2.5-3c-3.5 1.3-7 1.3-10.5 0a50 50 0 0 1-4-7.5c.2-.9.6-1.7 1-2.5-1.1-.5-2.1-.8-3-1 1.5-1 3.2-1.3 5-1-.5 2.3-.5 4.5 0 6.5 5 2.3 9.6 2 14-1a47 47 0 0 1-6-4l5-1c-.8-1-1.2-2.2-1-3.5h3a3 3 0 0 0 1 3c3.2-2.4 6.5-4.6 10-6.5 1.2-.7 1.2-1.2 0-1.5a14.9 14.9 0 0 1-7 2.5c.8-1 1.8-1.6 3-2l-3-1c4.3-2.3 8.6-4.5 13-6.5l1 1-2 2 1.5 1c3.7-2.6 7.7-3.6 12-3 1.4-1.4 3-2.4 5-3 2 1.4 4 2.2 6.5 2.5 1.2.9 1.2 1.7 0 2.5-1.6-.6-3-1.2-4.5-2l-.5 1a72.9 72.9 0 0 0 20 12.5c-2.5-2-2.5-3.3 0-4 2.3 1.2 3 3 2 5 4 .8 4 1.3 0 1.5-.3 1.8 0 3.5 1 5l2-1c4 2.6 7.6 2.3 11-1-1.2-.8-2.6-1.3-4-1.5-1-.7-1.1-1.6-.5-2.5.9.6 1.9 1 3 1 7.7-3.7 14.9-8.2 21.5-13.5l8-1a7.8 7.8 0 0 1-7-4c3-.7 5.8-.2 8.5 1.5 8.7-3 8.6-5.4-.5-7.5a5.6 5.6 0 0 0 2-5.5c1.8-.1 3.4.2 5 1 2.1-1.4 4.5-2.1 7-2v-3h-15c-1 2.9-1 5.7 0 8.5-2.5.6-2.5 1.5 0 2.5-1.2.8-2.5.8-4 0-1.1.3-2 1-2.5 2-.3-1.6-.8-3.1-1.5-4.5l2-1a31.8 31.8 0 0 0-5-4.5c.5-.7 1.2-1.2 2-1.5h-6l-9-7c-2.2-.4-4.2 0-6 1.5a113 113 0 0 1-13-4.5c1.6-.4 3-1.3 4-2.5 1.1 1 2.5 1.7 4 2 7 .3 11-3 12-10 5.8-3.4 11.5-7 17-11a6.8 6.8 0 0 0-3-1.5 7 7 0 0 0 2-4.5 7 7 0 0 0-2-4.5c1.9-.8 3.6-.4 5 1-2.7 2.6-2.5 5.1.5 7.5 3.5.6 6.8 0 10-2a4 4 0 0 1 2 1c2.5-4 1.3-6.7-3.5-8 1.5-1.7 3.4-3 5.5-4 .3 1.2-.2 2.2-1.5 3l2 1c2.8-2.1 5.8-4 9-5.5l-2-1 11-7.5c1 .4 1 1.1 0 2 .5 1 1.2 1.2 2 .5l.5-7.5c.4 2.3 1.4 2.6 3 1 .4 1 1.2 1.6 2.5 2 2.4-1.5 5-2.2 8-2v-3a14 14 0 0 0-8.5 0c-10.4-4-19.4-10-27-18-.4 1-1 1.6-2 2-2.1-1.4-4-1-5.5 1a32 32 0 0 0-4-3.5c3.7-.2 7-1.3 10-3.5a6.8 6.8 0 0 0-3-1.5c1.4-1.8 3.7-3.1 7-4a6.8 6.8 0 0 1-3-1.5c2.6-2.6 5.6-4.1 9-4.5l-3 2.5c2 1.1 3.4 2.8 4 5 .8-2 1.5-4 2-6 2.4-1 4.4-2.4 6-4.5l17-5c-4-.5-8-1.1-12-2 3.8-1.5 3.5-2.3-1-2.5.1-1.8-.2-3.4-1-5-6.5-5-13.1-10-20-14.5h6c-3.6-1.7-4.9-4.5-4-8.5h3c.5 5 .8 4.7 1-1-1 .1-2 0-3-.5a15 15 0 0 0 3-3.5c3.6-.8 7-1 10.5-1 1.4-1.8 1.6-3.8.5-6-4.7-.1-4.7-1.4 0-4 1.4-6.6 2.6-6.6 3.5 0 .2-3 .7-5.8 1.5-8.5 4.3-.3 8.6-.1 13 .5v3c-2.6-.2-4.3 1-5 3.5 2.6 1.8 5.3 1.8 8 0-.8-.3-1.5-.8-2-1.5 1.2-1.2 1.2-2.4 0-3.5a22 22 0 0 1 12.5-7.5c.7-2 1.8-3.7 3.5-5l-1-1c-1.4 1.1-3 2.1-4.5 3-.5-1-.3-2 .5-3 2.7-1.9 5.5-3.5 8.5-5l1.5.5a5.9 5.9 0 0 1-4 3c.7 1 1.2 2.2 1.5 3.5 3.8-4.1 4.5-8.8 2-14l-1 1c-.3-2-.8-4-1.5-6-4.8-2.6-9.5-5.5-14-8.5-2.9-2.7-2.2-4.2 2-4.5-6-1.3-6.3-3.1-1-5.5-1-1-1.2-2.2-.5-3.5l4.5-4.5a6.8 6.8 0 0 1-3-1.5c3.4-2.7 7-5 11-7l1 .5-3 2.5c.5 1 1.2 1.2 2 .5l4-4a5 5 0 0 0-3-.5c.2-4.5.2-8.8 0-13l-16-11a9.4 9.4 0 0 0 3-3c-3.6-1.5-7-3.3-10-5.5a16 16 0 0 0 4.5-2.5c3.1 1 5.1-.4 6-4 1.1 1.2 2.3 1.2 3.5 0 1.9.8 3.2 2.1 4 4 1.2.7 2.6 1 4 1-.2 3.3.8 4.1 3 2.5-1.4-3-2.4-6.2-3-9.5-1.2-1-2.5-1.9-4-2.5l2-2c-3.6-1.3-7-2.8-10.5-4.5-2.5.7-3.7 2.4-3.5 5-4.7.2-9.3 0-14-.5-.8-1-1.2-2.2-1-3.5 2.8.3 5.3-.4 7.5-2l1 1c1.5-1.8 1.7-3.6.5-5.5 1-.4 1.6-1 2-2l-3-4a14 14 0 0 1-8-5.5Z" style="opacity:1"/>
  <path fill="#75996f" d="M457.5 686.5c3.9 1.6 7.2 3.9 10 7-5.4.5-8.8-1.8-10-7Z" style="opacity:1"/>
  <path fill="#e2f5f3" d="M927.5 682.5a53 53 0 0 1 6 19c-2.4-6.2-4.4-12.5-6-19Z" style="opacity:.043"/>
  <path fill="#5e9d8a" d="M410.5 683.5h2a25.6 25.6 0 0 0-6 6c1.7 2.4 2.4 5 2 8-2.4.3-4.8 0-7-1a18 18 0 0 1 2-3.5c-2.8.1-5.3 1.3-7.5 3.5-.1 1.3.4 2.4 1.5 3.5l-1 1.5-3.5-3c-2.1 2-4.6 3.3-7.5 4 5-3.3 9.6-7 14-11 3-1.5 5.7-3.5 8-6 .5-1.4 1.5-2 3-2Z" style="opacity:1"/>
  <path fill="#98b152" d="M399.5 691.5c-4.4 4-9 7.7-14 11a12.8 12.8 0 0 1-6 3l8-7 12-7Z" style="opacity:1"/>
  <path fill="#719971" d="m467.5 693.5 11 8 1 2a25 25 0 0 1-7-.5c1-1 1.2-2.2.5-3.5a19.6 19.6 0 0 1-5.5-6Z" style="opacity:1"/>
  <path fill="#ccce4b" d="M478.5 701.5c.7-.1 1.4 0 2 .5 7 6.4 13.3 13.3 19 20.5l-5-4c-4.7-5.3-9.7-10.3-15-15l-1-2Z" style="opacity:1"/>
  <path fill="#f9d20d" d="M307.5 631.5c.7.4 1.2 1 1.5 2l.5 12.5c-3.6 16.1-1 31 8 44.5.7 2.5 2.2 4.5 4.5 6 4 2.1 8.2 3.8 12.5 5 2.3.5 4.6.8 7 1 7 1.6 14 1 21-2 1.7.2 3.4 0 5-.5 2.6-2.1 5.6-3.5 9-4 2.6-2.4 4.9-4.9 7-7.5 1.7.2 3.4 0 5-.5 2-2.9 4.3-3.2 7-1-1.4 2-2.4 4-3 6.5-4.4-1.5-6.1.1-5 5-3.7-.8-6.2.6-7.5 4-1.8-1.1-2.6-.4-2.5 2-1.6.2-3.1-.1-4.5-1a13.6 13.6 0 0 1-9.5 3.5c.5.4.8 1 1 1.5l-5 2a3 3 0 0 0 3 1v3c-4.8 0-8.8 1.6-12 5a45.3 45.3 0 0 1-29 1c-.7 0-1-.3-1-1 1 .1 2 0 3-.5a33.3 33.3 0 0 0-9-5.5 54.2 54.2 0 0 1-8-15h-3c-.3-14.4-1.5-28.8-3.5-43-3.6-4.2-8-7.5-13-10 .7-5 .6-10-.5-15 2-6.8 6.4-9 13-6.5 2.8 2.3 5.5 4.8 8 7.5Z" style="opacity:1"/>
  <path fill="#d1b94b" d="m363.5 698.5-1 2c-7 3-14 3.6-21 2 4 .2 8 0 12-.5 3.2-1.5 6.6-2.6 10-3.5Z" style="opacity:1"/>
  <path fill="#e8c832" d="M383.5 688.5a72.9 72.9 0 0 1-7 7.5c-3.4.5-6.4 1.9-9 4a13 13 0 0 1-5 .5l1-2 20-10Z" style="opacity:1"/>
  <path fill="#d8c045" d="M317.5 690.5a76 76 0 0 0 17 11 66.7 66.7 0 0 1-12.5-5 10.7 10.7 0 0 1-4.5-6Z" style="opacity:1"/>
  <path fill="#d5c34f" d="M496.5 701.5c2.7 2.7 5 5.7 7 9a15.7 15.7 0 0 1-7-9Z" style="opacity:1"/>
  <path fill="#e8d22d" d="m387.5 698.5-8 7c-2.4.8-4.4 2.2-6 4-8 4.2-16 8.7-24 13.5-5.8 2-11.8 2.9-18 2.5l-2-1c-2.9-.9-5.6-2.2-8-4a45.3 45.3 0 0 0 29-1c3.2-3.4 7.2-5 12-5v-3a3 3 0 0 1-3-1l5-2c-.2-.6-.5-1-1-1.5 3.7 0 6.8-1.1 9.5-3.5 1.4.9 2.9 1.2 4.5 1-.1-2.4.7-3.1 2.5-2 1.3-3.4 3.8-4.8 7.5-4Z" style="opacity:1"/>
  <path fill="#f4d315" d="M496.5 701.5c1.2 3.9 3.5 6.9 7 9 4.3 3.2 7.6 7.2 10 12v3h-4c0 1.4.3 2.8 1 4-1.2.8-2.5.8-4 0-2.7-2-5-4.3-7-7-5.7-7.2-12-14-19-20.5-.6-.5-1.3-.6-2-.5-.6-3.3-2.2-5.8-5-7.5l6.5-6.5c1 1.1 1.7 2.5 2 4 1.5-.7 3-.4 4.5 1a32 32 0 0 0 10 9Z" style="opacity:1"/>
  <path fill="#799b68" d="m302.5 699.5 5.5 11c2.6 1.9 4.8 4.2 6.5 7-1.4-.2-2.8-.7-4-1.5-1-2-2.3-3.6-4-5-2.4 0-3-.9-2-2.5a13 13 0 0 1-2-9Z" style="opacity:1"/>
  <path fill="#3b7898" d="M521.5 643.5c1 0 1.8.2 2.5 1 2 8.3 5 17.6 9 28 1-.8 2.2-1.2 3.5-1 .5-5.4 1.8-6 4-1.5a8.4 8.4 0 0 0-2.5 5.5c-1.7 7.6-2.7 15.2-3 23-3 9.2-6.5 18.2-10.5 27-1-1.4-2.4-2-4-2 6.2-9 10.2-19 12-30a29 29 0 0 0 .5-13c-4-12.3-7.8-24.6-11.5-37Z" style="opacity:1"/>
  <path fill="#daf1f0" d="M935.5 709.5c.6.1 1.1.4 1.5 1l1.5 12c-1.6-4-2.6-8.4-3-13Z" style="opacity:.037"/>
  <path fill="#d8c249" d="M523.5 711.5c-1.1 3.6-2.8 7-5 10-3-1-5-3-6-6l4.5 3a6.5 6.5 0 0 0 3.5-7h3Z" style="opacity:1"/>
  <path fill="#749767" d="m373.5 709.5-10 8.5-12 6a36.3 36.3 0 0 1-20 1.5c6.2.4 12.2-.4 18-2.5 8-4.8 16-9.3 24-13.5Z" style="opacity:1"/>
  <path fill="#7d9a5b" d="m494.5 718.5 5 4c2 2.7 4.3 5 7 7a4.7 4.7 0 0 0 4 3c0 .7-.3 1-1 1-6-4-11-9-15-15Z" style="opacity:1"/>
  <path fill="#8aac54" d="M318.5 719.5h2c0 .7.3 1 1 1 2.4 1.8 5.1 3.1 8 4-4.7.4-8.4-1.2-11-5Z" style="opacity:1"/>
  <path fill="#e9cb43" d="M513.5 722.5c1.4.5 2 1.5 2 3a41 41 0 0 0-5 7 4.7 4.7 0 0 1-4-3c1.5.8 2.8.8 4 0-.7-1.2-1-2.6-1-4h4v-3Z" style="opacity:1"/>
  <path fill="#151714" d="M530.5 680.5c.6.1 1.1.4 1.5 1 .5 4 .7 8 .5 12-1.8 11-5.8 21-12 30a98.2 98.2 0 0 1-8 11h-3v-1c.7 0 1-.3 1-1a41 41 0 0 1 5-7c.8-1.4 1.8-2.8 3-4 2.2-3 3.9-6.4 5-10a56.8 56.8 0 0 0 7-31Z" style="opacity:1"/>
  <path fill="#edfafa" d="M938.5 722.5a32.6 32.6 0 0 1-1.5 20 4 4 0 0 1-3.5 2 16 16 0 0 0 4.5-8c.5-4.7.7-9.3.5-14Z" style="opacity:.231"/>
  <path fill="#deeeed" d="M893.5 739.5c3.1 0 5.8 1 8 3-3-.2-5.7-1.2-8-3Z" style="opacity:.01"/>
  <path fill="#dcedec" d="M901.5 742.5a32 32 0 0 1 13 3.5c6 .7 12 .6 18-.5a10.7 10.7 0 0 1-9 3 59.7 59.7 0 0 1-22-6Z" style="opacity:.071"/>
  <path fill="#daebeb" d="M890.5 753.5c4 3.2 4.8 7.2 2.5 12a4 4 0 0 1-3.5 2c3.6-4.4 4-9 1-14Z" style="opacity:.184"/>
  <path fill="#def4f3" d="M340.5 789.5c-3 0-6-.3-9-1-6 1.1-12 1.8-18 2 5.4-1.6 11-2.6 17-3 3.6-.1 7 .6 10 2Z" style="opacity:.06"/>
  <path fill="#daf1f1" d="M880.5 789.5c2 1.4 3 3.4 3 6a12.8 12.8 0 0 1-3-6Z" style="opacity:.067"/>
  <path fill="#e0f4f1" d="M313.5 790.5c-11 3.6-22.3 6-34 7 11-3 22.4-5.4 34-7Z" style="opacity:.169"/>
  <path fill="#ddedec" d="M351.5 795.5c5.3 3.3 9.7 7.7 13 13-4.7-4-9-8.3-13-13Z" style="opacity:.192"/>
  <path fill="#e1f5f3" d="M278.5 797.5a118 118 0 0 1-34 6c11.2-2.3 22.5-4.3 34-6Z" style="opacity:.078"/>
  <path fill="#d5ebe8" d="M171.5 803.5c3.3 1.3 6.6 2.4 10 3.5a308 308 0 0 0 63-3.5c-.4.7-1 1.2-2 1.5a290.6 290.6 0 0 1-62 3c-3.5-.7-6.5-2.2-9-4.5Z" style="opacity:.163"/>
  <path fill="#90b6b3" d="M883.5 795.5c2.1 4.1 2 8.5-.5 13a34 34 0 0 1-10.5 6.5c-2.7 3.3-5 6.8-7 10.5 1.3-3.2 2-6.5 2-10 1 .1 2 0 3-.5-1-.7-1.1-1.6-.5-2.5 2-1 3.8-2.1 5.5-3.5l-1-1a25 25 0 0 1 7-.5c-.1-1 0-2 .5-3l1 1c.5-3.3.7-6.6.5-10Z" style="opacity:.969"/>
  <path fill="#d4f2f1" d="M369.5 814.5c3 3.1 5.4 6.8 7 11-3-3.1-5.4-6.8-7-11Z" style="opacity:.024"/>
  <path fill="#08161b" d="M671.5 344.5a172 172 0 0 1 32-.5c10 2 20 3.5 30 4.5a80.5 80.5 0 0 1 24 7c.1.6.4 1.1 1 1.5 2.4.3 4.8.8 7 1.5 5 1.7 10 3.6 15 5.5a283.6 283.6 0 0 1 47 29.5c4.4 5 9 9.7 14 14 16.4 17 30 36 41 57a288 288 0 0 1 26 102c.2 3.3-.6 6.3-2.5 9a85.8 85.8 0 0 1-15 9 76 76 0 0 0 4 34l24 64c2.3 8.2 3 16.5 2 25a16.5 16.5 0 0 1-17.5 9 488.3 488.3 0 0 1-37-7c-.2 1.4 0 2.7.5 4 3.7 4 7 8.4 10 13 2 3.8 1.7 7.5-1 11-3.8 3.9-7.8 7.6-12 11l-.5 2.5a155 155 0 0 0 8.5 18.5c1.6 5.6 0 10-4.5 13.5a16.6 16.6 0 0 0-11.5 11.5c-1.8 11.3-2 22.6-.5 34-.3 13-5.3 23.9-15 32.5a44.4 44.4 0 0 1-49 2c-22.8-12.6-45.2-26-67-40-8.3-2.5-16-1.3-23 3.5-3.8 2-7.4 4.1-11 6.5a379.1 379.1 0 0 0-64 69.5l-2.5 1c-30.4-8-60.5-16.4-90.5-25.5-4-1-8-1.5-12-1.5l-14-5.5a3034 3034 0 0 1-117-33c23.2-16.6 45.9-33.9 68-52a413.3 413.3 0 0 0 51-51.5h3l-18 22a693.5 693.5 0 0 1-97 80 395 395 0 0 0 19 6.5c9 2.5 18 4.7 27 6.5 3.8 1.8 7.8 3.3 12 4.5 11.4 2.5 22.8 5.4 34 8.5 43.1 12.7 86.4 24.9 130 36.5 2 .7 4 .7 6 0 2.2-3.6 4.6-7.1 7-10.5 6.7-7.3 13-15 19-23a313.5 313.5 0 0 1 34-32.5c5.7-4.2 11.7-7.8 18-11a26 26 0 0 1 25-.5c23.7 16.5 48.7 31 75 43.5 21.6 5 37.1-2.6 46.5-22.5l3-49c1.7-4.7 4.5-8.5 8.5-11.5 7-1.4 9.6-5.6 7.5-12.5-4-5.8-6.9-12.2-8.5-19 .4-2 1.2-3.6 2.5-5 5.3-3.7 9.5-8.4 12.5-14-3.6-6.1-7.4-12.1-11.5-18-.7-2-.5-4 .5-6 2.6-1.2 5.3-1.3 8-.5a147 147 0 0 0 31.5 6.5c7.2 1.5 11.8-1.2 14-8 1.1-9.2.1-18.2-3-27l-22-56a84.1 84.1 0 0 1-4.5-40c4.8-2.8 9.6-5.5 14.5-8 .4-1.2 1-2.2 2-3-.7-29-6-57-16-84a211 211 0 0 0-86.5-107 295 295 0 0 0-20-12.5 246.4 246.4 0 0 0-111-23.5Z" style="opacity:1"/>
  <path fill="#3d7794" d="M494.5 756.5a6.9 6.9 0 0 1-3 4.5c1 .7 1.1 1.6.5 2.5a21.8 21.8 0 0 0-9.5 9.5 9.2 9.2 0 0 0-7.5 4.5c-.7 1.6-.2 2.8 1.5 3.5-2.8.2-5.5 1-8 2a39.2 39.2 0 0 1-13.5 11.5 5 5 0 0 0-.5 3c2 .2 3.7-.5 5-2 .6.1 1 .5 1 1a676.4 676.4 0 0 1-58 38.5c14 4.4 27.7 9.2 41 14.5-9-1.8-18-4-27-6.5a395 395 0 0 1-19-6.5c34.7-23.7 67-50.3 97-80Z" style="opacity:1"/>
  <path fill="#ddf2f0" d="M376.5 825.5c5 7.3 9.5 15 13.5 23 5.3 10 9.4 20.3 12.5 31-8-18.2-16.7-36.2-26-54Z" style="opacity:.173"/>
  <path fill="#a9c7c5" d="m749.5 851.5 9 4c1 2.6 2.7 4.6 5 6-1 .1-2 0-3-.5-3.9-3-7.5-6.2-11-9.5Z" style="opacity:.953"/>
  <path fill="#8cb2ad" d="M763.5 861.5c3 .8 6 1.1 9 1 .5 3.7 2.7 6 6.5 7 .4 1.4 1 2.7 1.5 4a168 168 0 0 1-14-8.5c-1.2-1-2.2-2.2-3-3.5Z" style="opacity:.996"/>
  <path fill="#dcf1f1" d="M863.5 859.5a19 19 0 0 1-4 13l4-13Z" style="opacity:.114"/>
  <path fill="#164b5c" d="M632.5 888.5c-2.4 3.4-4.8 6.9-7 10.5-2 .7-4 .7-6 0a5053.2 5053.2 0 0 1-130-36.5c4.5 0 9-.4 13.5-1l6 4 2.5-1c-.8-1-1-2-.5-3l10 2c1.2-2.5 2.5-2.5 4 0 .3-.8.8-1.5 1.5-2 1.2.9 2.5.9 4 0a4 4 0 0 1 3 1.5c-1.8.3-2.1 1-1 2-3.6 1.5-7.3 2.8-11 4l5 .5c4.6-1.1 9-2.4 13.5-4 4.3 1.7 8.8 2.2 13.5 1.5 1.2-1.4 2.5-2.5 4-3.5 3.7 2.4 3 3.8-2 4 .2 1.9-.5 3.4-2 4.5 1 .6 1.8.5 2.5-.5 1.7 2.2 1.5 4-.5 5.5 3.8 1 7.4 2.6 11 4.5 1.6-1 3.3-1.2 5-.5-2.5 1.5-2.5 2.8 0 4 6.8.2 13.5 1.2 20 3l-2 1c10.5 2 20.8 4.5 31 7.5 2.3-.1 4.3-1 6-2.5.6-3.4 2.6-5.2 6-5.5Z" style="opacity:1"/>
  <path fill="#235e59" d="M701.5 826.5a104 104 0 0 1 7 18c-5 1.7-9.8 4.2-14 7.5l-19 15a1522.3 1522.3 0 0 0-46.5 47.5c-36-12.6-71.9-25.3-107.5-38 4 0 8 .5 12 1.5 30 9 60.1 17.6 90.5 25.5l2.5-1c18.5-26 39.8-49 64-69.5 3.6-2.4 7.2-4.6 11-6.5Z" style="opacity:1"/>
  <path fill="#d2f1f0" d="M792.5 881.5c2.8.6 5.2 2 7 4-2.8-.6-5.2-2-7-4Z" style="opacity:.067"/>
  <path fill="#72a49f" d="M864.5 831.5c.3 9.4 0 18.8-1 28l-4 13a31.5 31.5 0 0 1-22 19 40.7 40.7 0 0 1-25 0 23 23 0 0 1-13-6c-1.8-2-4.2-3.4-7-4a57.4 57.4 0 0 1-12-8c2.5.3 4.6.3 6.5 0 2.2 1 3.3 2.7 3.5 5 4.8 3.1 10.1 5 16 5.5a12 12 0 0 1 5 5.5c1.1.5 2.3.9 3.5 1 5.5-.5 11-1.2 16.5-2l8-5c3.6-.8 7.3-1.3 11-1.5l-1-1c1-1.6 2.2-1.8 3.5-.5.6-1.1 1.5-2.1 2.5-3-1.3-2-.6-3.4 2-4 3-12.4 4.5-25.1 4.5-38 .1-2 1-3.3 2.5-4Z" style="opacity:.996"/>
  <path fill="#e0f3f3" d="M731.5 887.5c.9-.1 1.5.2 2 1 1.6 3 3 6 4 9-2.5-3-4.5-6.3-6-10Z" style="opacity:.004"/>
  <path fill="#dff4f3" d="M402.5 879.5a14 14 0 0 1 3.5 6c3.3 8.5 6.2 17.2 8.5 26-.6-.1-1.1-.4-1.5-1l-10.5-31Z" style="opacity:.569"/>
  <path fill="#def1eb" d="M812.5 891.5a40.7 40.7 0 0 0 25 0 6.3 6.3 0 0 1-5 2.5c-5.3.7-10.7.7-16 0a5 5 0 0 1-4-2.5Z" style="opacity:.082"/>
  <path fill="#ddf2f1" d="M414.5 911.5c6 14.8 10.7 30.2 14 46a44.1 44.1 0 0 1-3.5-8 892.2 892.2 0 0 0-10.5-38Z" style="opacity:.343"/>
  <path fill="#dbf1f1" d="M757.5 931.5c2.7 2 4.3 4.7 5 8a16 16 0 0 1-5-8Z" style="opacity:.145"/>
  <path fill="#70a19d" d="M737.5 897.5c5.6 8.5 11.1 17.2 16.5 26 1 2.8 2.3 5.4 3.5 8a16 16 0 0 0 5 8c.8.3 1.2 1 1 2a49 49 0 0 0 9 14 49 49 0 0 1 9 14c4.2 7.6 9 15 14 22l-20-1c-4.8.3-9.4 0-14-1l-26-4c14.4.3 28.7 1.3 43 3 13.8 1.8 15.3-1.2 4.5-9a76 76 0 0 1-4-11c-.3.8-.8 1.5-1.5 2-3-6.5-6.3-12.8-10-19-1.7-.7-3.2-1.7-4.5-3l-1 1a22 22 0 0 0 0-7c-3-2.6-5.8-5.6-8-9l-1.5-3c1.1-1.5.6-2.5-1.5-3a38 38 0 0 1-5.5-12c-1.8-.1-3.4.2-5 1-1.3-.8-2.3-2-3-3.5a5 5 0 0 0-3-.5c-.3-1.5 0-2.8 1-4 .7.5 1.2 1.2 1.5 2l4-3c.4 1.2 1 2.2 2 3a11 11 0 0 0-3-7l-4 3c-3.7-.8-7.6-1.3-11.5-1.5.5-1.2 1.3-2 2.5-2.5 3.8.2 7.7.6 11.5 1 0-2-.4-4-1-6Z" style="opacity:.988"/>
  <path fill="#dbf3f3" d="M763.5 941.5c4 4 7 8.6 9 14a49 49 0 0 1-9-14Z" style="opacity:.078"/>
  <path fill="#e5faf8" d="M428.5 957.5c8.9.6 17.5 1.6 26 3-7.7-.2-15.3-.7-23-1.5a5.5 5.5 0 0 1-3-1.5Z" style="opacity:.071"/>
  <path fill="#e0f3f2" d="M470.5 961.5c13.6 1.6 27.3 2.6 41 3 28 3.2 56 6.2 84 9-37.7-2.4-75.4-5.5-113-9.5-4.2-.3-8.2-1.2-12-2.5Z" style="opacity:.082"/>
  <path fill="#eaf7f7" d="M595.5 973.5c13.2.9 26.2 2.2 39 4-12-.4-24-1.3-36-2.5a5.5 5.5 0 0 1-3-1.5Z" style="opacity:.009"/>
  <path fill="#e0f4f3" d="M781.5 969.5c5.7 6.4 10.7 13.4 15 21-.1.6-.5 1-1 1-5-7-9.8-14.4-14-22Z" style="opacity:.035"/>
  <path fill="#6b9b97" d="M723.5 985.5c-8.7-.4-17.4-1-26-2a310.6 310.6 0 0 0-39-4h-3a75.9 75.9 0 0 0-20-2h-1a527.5 527.5 0 0 0-39-4c-28-2.8-56-5.8-84-9 6.5-.2 13 .1 19.5 1l3.5-.5-5-1 3-.5c4.6 1.5 9.2 2.6 14 3.5 9.7.2 19.4 1 29 2.5 5-1 10.4-.5 16 1.5 32.6 3.7 65.3 6.3 98 8 4-1.8 8.2-2 12.5-.5 5.5-3.5 11.3-4 17.5-1.5l-13 1c-.8 1-1.8 1.6-3 2a62 62 0 0 0 13 2c1.8.3 2.1 1 1 2 2.2.2 4.2.7 6 1.5Z" style="opacity:.998"/>
  <path fill="#e3faf9" d="M635.5 977.5c6.9-.2 13.6.5 20 2-6.9 0-13.5-.7-20-2Z" style="opacity:.035"/>
  <path fill="#e9faf8" d="M658.5 979.5c13.2.5 26.2 1.9 39 4-12-.6-24-1.4-36-2.5a5.5 5.5 0 0 1-3-1.5Z" style="opacity:.067"/>
  <path fill="#dcf1f0" d="M726.5 985.5h9l26 4a164 164 0 0 1-35-4Z" style="opacity:.108"/>
  <path fill="#e6f3f2" d="m775.5 990.5 20 1c-1 1.5-2.5 2.2-4.5 2-5.3-1.2-10.4-2.2-15.5-3Z" style="opacity:.008"/>
</svg>
