<svg width="200" height="100" viewBox="0 0 200 100" fill="none" xmlns="http://www.w3.org/2000/svg">
<rect width="200" height="100" fill="#0E1415"/>
<path fill-rule="evenodd" clip-rule="evenodd" d="M38.1249 36.875C34.0524 39.8375 33.0549 43.5875 35.1249 48.125C34.7454 48.8142 34.5465 49.5882 34.5465 50.375C34.5465 51.1618 34.7454 51.9358 35.1249 52.625C36.2349 51.9275 37.2399 52.175 38.1249 53.375C38.4549 54.785 38.4549 56.285 38.1249 57.875C36.2274 55.19 34.2249 55.07 32.1249 57.5C29.5749 58.0775 28.8249 57.2 29.8749 54.875L28.3749 54.125C28.5249 53.6825 28.7799 53.3075 29.1249 53C25.9524 51.92 25.4499 50.1725 27.6249 47.75C25.5474 42.9875 26.7999 39.2375 31.3749 36.5C33.6999 35.945 35.9499 36.0725 38.1249 36.875Z" fill="#F5CC12"/>
<path fill-rule="evenodd" clip-rule="evenodd" d="M44.125 40.625C45.895 40.7525 47.65 41 49.375 41.375C50.7475 41.9375 52 42.6875 53.125 43.625C56.605 46.22 57.6025 49.595 56.125 53.75C56.5502 55.1511 57.0509 56.5281 57.625 57.875L55.375 59.375C54.7 61.295 53.95 63.17 53.125 65C51.048 64.6552 49.0288 64.0242 47.125 63.125C45.8573 64.2648 44.4749 65.2702 43 66.125C39.7173 64.8364 36.3298 63.8327 32.875 63.125V62.375C35.0471 61.4522 36.8808 59.8804 38.125 57.875C38.455 56.285 38.455 54.785 38.125 53.375C36.4075 47.24 38.41 42.9875 44.125 40.625Z" fill="#1C5266"/>
<path fill-rule="evenodd" clip-rule="evenodd" d="M41.125 36.125C42.4915 37.3454 43.524 38.8942 44.125 40.625C38.41 42.9875 36.4075 47.24 38.125 53.375C37.24 52.175 36.235 51.9275 35.125 52.625C34.7455 51.9358 34.5465 51.1618 34.5465 50.375C34.5465 49.5882 34.7455 48.8142 35.125 48.125C33.055 43.5875 34.0525 39.8375 38.125 36.875C39.22 36.9275 40.225 36.6725 41.125 36.125Z" fill="#E94907"/>
<path fill-rule="evenodd" clip-rule="evenodd" d="M53.125 43.625C51.9986 42.6859 50.7336 41.9269 49.375 41.375C47.995 37.55 45.25 35.81 41.125 36.125C40.2244 36.674 39.178 36.9356 38.125 36.875C35.9639 36.0741 33.6115 35.9434 31.375 36.5C26.8 39.2375 25.5475 42.9875 27.625 47.75C25.45 50.1725 25.9525 51.92 29.125 53C28.78 53.3075 28.525 53.6825 28.375 54.125L29.875 54.875C28.825 57.2 29.575 58.0775 32.125 57.5C34.225 55.07 36.2275 55.19 38.125 57.875C36.8808 59.8804 35.0471 61.4522 32.875 62.375C32.456 61.8939 31.9367 61.5103 31.3536 61.2512C30.7706 60.992 30.1379 60.8636 29.5 60.875C26.7775 62.0975 24.2725 61.85 22 60.125C22.015 56.66 22.6375 53.285 23.875 50C22.92 49.6342 21.8906 49.5055 20.875 49.625C21.7445 47.1026 23.152 44.7994 25 42.875C25.765 36.59 29.395 32.465 35.875 30.5C43.285 29.3975 48.91 32.0225 52.75 38.375C53.125 40.1075 53.245 41.855 53.125 43.625Z" fill="#5E9B97"/>
<path fill-rule="evenodd" clip-rule="evenodd" d="M41.125 36.125C45.25 35.81 47.995 37.55 49.375 41.375C47.65 41 45.895 40.7525 44.125 40.625C43.524 38.8943 42.4915 37.3454 41.125 36.125Z" fill="#563213"/>
<path fill-rule="evenodd" clip-rule="evenodd" d="M32.875 63.125C36.325 63.83 39.7 64.835 43 66.125C44.4749 65.2702 45.8573 64.2648 47.125 63.125C48.46 65.165 49.7125 67.295 50.875 69.5C45.3678 69.2393 39.8666 68.8642 34.375 68.375C34.1725 66.5225 33.6775 64.775 32.875 63.125Z" fill="#5C9C99"/>
<path d="M66.96 47V42.92C66.96 42.56 66.912 42.272 66.816 42.056C66.72 41.832 66.492 41.72 66.132 41.72H66.012V41.36H67.2C67.44 41.36 67.648 41.396 67.824 41.468C68 41.532 68.132 41.648 68.22 41.816H68.268C68.412 41.688 68.608 41.56 68.856 41.432C69.112 41.304 69.42 41.24 69.78 41.24C70.084 41.24 70.348 41.284 70.572 41.372C70.796 41.452 70.98 41.548 71.124 41.66C71.276 41.764 71.38 41.852 71.436 41.924C71.596 41.748 71.804 41.592 72.06 41.456C72.316 41.312 72.676 41.24 73.14 41.24C73.588 41.24 73.968 41.316 74.28 41.468C74.592 41.62 74.828 41.86 74.988 42.188C75.156 42.508 75.24 42.928 75.24 43.448V47H73.68V43.436C73.68 42.852 73.588 42.44 73.404 42.2C73.22 41.96 72.992 41.84 72.72 41.84C72.496 41.84 72.292 41.884 72.108 41.972C71.932 42.06 71.792 42.168 71.688 42.296C71.752 42.416 71.8 42.58 71.832 42.788C71.864 42.988 71.88 43.208 71.88 43.448V47H70.32V43.436C70.32 42.852 70.228 42.44 70.044 42.2C69.86 41.96 69.632 41.84 69.36 41.84C69.208 41.84 69.052 41.884 68.892 41.972C68.74 42.052 68.616 42.136 68.52 42.224V47H66.96ZM78.3021 47.12C77.9661 47.12 77.6701 47.08 77.4141 47C77.1661 46.92 76.9541 46.812 76.7781 46.676C76.6101 46.532 76.4821 46.36 76.3941 46.16C76.3061 45.96 76.2621 45.74 76.2621 45.5C76.2621 45.116 76.3501 44.792 76.5261 44.528C76.7101 44.256 77.0381 44.052 77.5101 43.916C77.9821 43.772 78.6461 43.7 79.5021 43.7H79.6821C79.6821 43.22 79.6381 42.84 79.5501 42.56C79.4621 42.28 79.3301 42.08 79.1541 41.96C78.9861 41.84 78.7821 41.78 78.5421 41.78C78.2701 41.78 78.0261 41.848 77.8101 41.984C77.5941 42.12 77.4381 42.412 77.3421 42.86H76.6821C76.6821 42.652 76.6941 42.44 76.7181 42.224C76.7501 42.008 76.8381 41.82 76.9821 41.66C77.1261 41.5 77.3621 41.392 77.6901 41.336C78.0261 41.272 78.3901 41.24 78.7821 41.24C79.1741 41.24 79.5221 41.292 79.8261 41.396C80.1301 41.5 80.3861 41.656 80.5941 41.864C80.8101 42.072 80.9701 42.336 81.0741 42.656C81.1861 42.968 81.2421 43.336 81.2421 43.76V47H80.2221L79.8021 46.46H79.7421C79.6381 46.628 79.4621 46.78 79.2141 46.916C78.9661 47.052 78.6621 47.12 78.3021 47.12ZM78.6621 46.52C78.9261 46.52 79.1461 46.432 79.3221 46.256C79.4981 46.08 79.6181 45.908 79.6821 45.74V44.24H79.5021C78.9261 44.24 78.5101 44.344 78.2541 44.552C78.0061 44.76 77.8821 45.076 77.8821 45.5C77.8821 45.836 77.9501 46.092 78.0861 46.268C78.2301 46.436 78.4221 46.52 78.6621 46.52ZM84.8312 47.12C84.2712 47.12 83.8032 46.992 83.4272 46.736C83.0592 46.472 82.7792 46.116 82.5872 45.668C82.4032 45.22 82.3112 44.724 82.3112 44.18C82.3112 43.628 82.4032 43.132 82.5872 42.692C82.7792 42.244 83.0672 41.892 83.4512 41.636C83.8352 41.372 84.3152 41.24 84.8912 41.24C85.1632 41.24 85.4032 41.28 85.6112 41.36C85.8272 41.432 86.0072 41.512 86.1512 41.6V40.64C86.1512 40.28 86.0992 39.992 85.9952 39.776C85.8992 39.552 85.6712 39.44 85.3112 39.44H85.1912V39.08H86.6312C86.9112 39.08 87.1272 39.128 87.2792 39.224C87.4392 39.32 87.5512 39.48 87.6152 39.704C87.6792 39.928 87.7112 40.24 87.7112 40.64V47H86.6912L86.2712 46.46H86.2112C86.1072 46.62 85.9352 46.772 85.6952 46.916C85.4632 47.052 85.1752 47.12 84.8312 47.12ZM85.0712 46.58C85.2632 46.58 85.4312 46.536 85.5752 46.448C85.7192 46.36 85.8392 46.256 85.9352 46.136C86.0312 46.008 86.1032 45.896 86.1512 45.8V42.14C86.0392 42.052 85.8952 41.972 85.7192 41.9C85.5432 41.82 85.3472 41.78 85.1312 41.78C84.8352 41.78 84.5992 41.884 84.4232 42.092C84.2472 42.3 84.1192 42.584 84.0392 42.944C83.9672 43.304 83.9312 43.716 83.9312 44.18C83.9312 44.636 83.9672 45.048 84.0392 45.416C84.1112 45.776 84.2312 46.06 84.3992 46.268C84.5672 46.476 84.7912 46.58 85.0712 46.58ZM91.3337 47.12L89.3777 42.74C89.1777 42.292 88.9937 41.976 88.8257 41.792C88.6577 41.608 88.4697 41.508 88.2617 41.492V41.264C88.2857 41.264 88.3377 41.264 88.4177 41.264C88.4897 41.256 88.5697 41.252 88.6577 41.252C88.7457 41.244 88.8057 41.24 88.8377 41.24C89.3497 41.24 89.7737 41.344 90.1097 41.552C90.4457 41.752 90.7497 42.148 91.0217 42.74L92.0417 45.032L92.8457 43.112C92.6617 42.688 92.5017 42.364 92.3657 42.14C92.2297 41.908 92.1057 41.744 91.9937 41.648C91.8817 41.552 91.7577 41.5 91.6217 41.492V41.264C91.6537 41.264 91.7217 41.26 91.8257 41.252C91.9377 41.244 92.0217 41.24 92.0777 41.24C92.5897 41.24 93.0337 41.344 93.4097 41.552C93.7857 41.752 94.1097 42.148 94.3817 42.74L95.4857 45.152L96.9497 41.36H97.5857L95.3777 47.12H94.8257L93.2657 43.748L91.8737 47.12H91.3337ZM98.6944 47V42.92C98.6944 42.56 98.6464 42.272 98.5504 42.056C98.4544 41.832 98.2264 41.72 97.8664 41.72H97.7464V41.36H98.9344C99.2064 41.36 99.4184 41.396 99.5704 41.468C99.7304 41.532 99.8544 41.644 99.9424 41.804C100.086 41.676 100.282 41.552 100.53 41.432C100.786 41.304 101.094 41.24 101.454 41.24C101.63 41.24 101.79 41.26 101.934 41.3C102.078 41.34 102.202 41.4 102.306 41.48C102.442 41.576 102.542 41.692 102.606 41.828C102.678 41.964 102.714 42.028 102.714 42.02L102.102 42.488C102.03 42.384 101.922 42.28 101.778 42.176C101.642 42.072 101.474 42.02 101.274 42.02C101.018 42.02 100.802 42.056 100.626 42.128C100.45 42.2 100.31 42.288 100.206 42.392C100.222 42.536 100.234 42.652 100.242 42.74C100.25 42.828 100.254 42.904 100.254 42.968V47H98.6944ZM103.698 47V42.92C103.698 42.56 103.646 42.272 103.542 42.056C103.446 41.832 103.218 41.72 102.858 41.72H102.738V41.36H104.178C104.458 41.36 104.674 41.408 104.826 41.504C104.986 41.6 105.098 41.76 105.162 41.984C105.226 42.208 105.258 42.52 105.258 42.92V47H103.698ZM104.478 40.712C104.174 40.712 103.946 40.62 103.794 40.436C103.65 40.252 103.578 40.04 103.578 39.8C103.578 39.592 103.642 39.428 103.77 39.308C103.898 39.188 104.054 39.128 104.238 39.128C104.542 39.128 104.766 39.22 104.91 39.404C105.062 39.588 105.138 39.8 105.138 40.04C105.138 40.248 105.074 40.412 104.946 40.532C104.818 40.652 104.662 40.712 104.478 40.712ZM108.661 47.12C108.117 47.12 107.689 46.972 107.377 46.676C107.073 46.38 106.921 45.944 106.921 45.368V41.9H106.201V41.36H106.921V40.28L107.521 39.56H108.481V41.36H109.801V41.9H108.481V45.44C108.481 45.888 108.533 46.192 108.637 46.352C108.749 46.504 108.905 46.58 109.105 46.58C109.313 46.58 109.497 46.544 109.657 46.472C109.817 46.4 109.949 46.328 110.053 46.256L110.221 46.592C110.061 46.736 109.853 46.86 109.597 46.964C109.341 47.068 109.029 47.12 108.661 47.12ZM113.395 47.12C112.835 47.12 112.347 46.992 111.931 46.736C111.515 46.48 111.195 46.132 110.971 45.692C110.747 45.244 110.635 44.74 110.635 44.18C110.635 43.54 110.751 43.004 110.983 42.572C111.215 42.132 111.531 41.8 111.931 41.576C112.331 41.352 112.779 41.24 113.275 41.24C113.771 41.24 114.219 41.34 114.619 41.54C115.019 41.74 115.335 42.02 115.567 42.38C115.799 42.74 115.915 43.16 115.915 43.64L115.867 44.396H112.255C112.255 45.188 112.375 45.752 112.615 46.088C112.863 46.416 113.183 46.58 113.575 46.58C113.991 46.58 114.327 46.484 114.583 46.292C114.847 46.1 115.083 45.864 115.291 45.584L115.663 45.86C115.551 46.036 115.399 46.224 115.207 46.424C115.023 46.616 114.783 46.78 114.487 46.916C114.199 47.052 113.835 47.12 113.395 47.12ZM112.255 43.856H114.295C114.295 43.064 114.199 42.52 114.007 42.224C113.823 41.928 113.579 41.78 113.275 41.78C113.099 41.78 112.931 41.844 112.771 41.972C112.619 42.1 112.495 42.316 112.399 42.62C112.303 42.916 112.255 43.328 112.255 43.856ZM117.257 47V42.92C117.257 42.56 117.209 42.272 117.113 42.056C117.017 41.832 116.789 41.72 116.429 41.72H116.309V41.36H117.497C117.769 41.36 117.981 41.396 118.133 41.468C118.293 41.532 118.417 41.644 118.505 41.804C118.649 41.676 118.845 41.552 119.093 41.432C119.349 41.304 119.657 41.24 120.017 41.24C120.193 41.24 120.353 41.26 120.497 41.3C120.641 41.34 120.765 41.4 120.869 41.48C121.005 41.576 121.105 41.692 121.169 41.828C121.241 41.964 121.277 42.028 121.277 42.02L120.665 42.488C120.593 42.384 120.485 42.28 120.341 42.176C120.205 42.072 120.037 42.02 119.837 42.02C119.581 42.02 119.365 42.056 119.189 42.128C119.013 42.2 118.873 42.288 118.769 42.392C118.785 42.536 118.797 42.652 118.805 42.74C118.813 42.828 118.817 42.904 118.817 42.968V47H117.257ZM124.061 47.12C123.565 47.12 123.157 47.076 122.837 46.988C122.525 46.9 122.289 46.78 122.129 46.628C121.985 46.492 121.901 46.296 121.877 46.04C121.853 45.784 121.841 45.504 121.841 45.2H122.261C122.325 45.584 122.481 45.912 122.729 46.184C122.977 46.448 123.341 46.58 123.821 46.58C124.269 46.58 124.581 46.504 124.757 46.352C124.933 46.192 125.021 45.996 125.021 45.764C125.021 45.532 124.917 45.348 124.709 45.212C124.501 45.068 124.245 44.928 123.941 44.792L123.317 44.528C122.837 44.32 122.461 44.084 122.189 43.82C121.917 43.556 121.781 43.228 121.781 42.836C121.781 42.316 121.997 41.92 122.429 41.648C122.861 41.376 123.405 41.24 124.061 41.24C124.557 41.24 124.961 41.284 125.273 41.372C125.593 41.46 125.833 41.58 125.993 41.732C126.137 41.868 126.221 42.064 126.245 42.32C126.269 42.576 126.281 42.856 126.281 43.16H125.861C125.797 42.776 125.641 42.452 125.393 42.188C125.145 41.916 124.781 41.78 124.301 41.78C123.941 41.78 123.681 41.86 123.521 42.02C123.361 42.172 123.281 42.364 123.281 42.596C123.281 42.812 123.357 42.988 123.509 43.124C123.661 43.252 123.869 43.372 124.133 43.484L124.853 43.784C125.405 44.016 125.821 44.26 126.101 44.516C126.381 44.764 126.521 45.1 126.521 45.524C126.521 46.044 126.289 46.44 125.825 46.712C125.361 46.984 124.773 47.12 124.061 47.12ZM128.27 47.168C128.038 47.168 127.858 47.1 127.73 46.964C127.602 46.828 127.538 46.652 127.538 46.436C127.538 46.22 127.602 46.044 127.73 45.908C127.858 45.772 128.038 45.704 128.27 45.704C128.502 45.704 128.682 45.772 128.81 45.908C128.938 46.044 129.002 46.22 129.002 46.436C129.002 46.652 128.938 46.828 128.81 46.964C128.682 47.1 128.502 47.168 128.27 47.168ZM131.975 47.12L129.947 42.74C129.739 42.3 129.559 41.988 129.407 41.804C129.255 41.62 129.079 41.52 128.879 41.504V41.264C128.911 41.264 128.979 41.26 129.083 41.252C129.187 41.244 129.267 41.24 129.323 41.24C129.643 41.24 129.939 41.28 130.211 41.36C130.491 41.432 130.747 41.576 130.979 41.792C131.219 42.008 131.435 42.324 131.627 42.74L132.683 45.044L134.315 41.36H134.963L132.407 47.12H131.975ZM138.145 47.12C137.585 47.12 137.097 46.992 136.681 46.736C136.265 46.48 135.945 46.132 135.721 45.692C135.497 45.244 135.385 44.74 135.385 44.18C135.385 43.54 135.501 43.004 135.733 42.572C135.965 42.132 136.281 41.8 136.681 41.576C137.081 41.352 137.529 41.24 138.025 41.24C138.521 41.24 138.969 41.34 139.369 41.54C139.769 41.74 140.085 42.02 140.317 42.38C140.549 42.74 140.665 43.16 140.665 43.64L140.617 44.396H137.005C137.005 45.188 137.125 45.752 137.365 46.088C137.613 46.416 137.933 46.58 138.325 46.58C138.741 46.58 139.077 46.484 139.333 46.292C139.597 46.1 139.833 45.864 140.041 45.584L140.413 45.86C140.301 46.036 140.149 46.224 139.957 46.424C139.773 46.616 139.533 46.78 139.237 46.916C138.949 47.052 138.585 47.12 138.145 47.12ZM137.005 43.856H139.045C139.045 43.064 138.949 42.52 138.757 42.224C138.573 41.928 138.329 41.78 138.025 41.78C137.849 41.78 137.681 41.844 137.521 41.972C137.369 42.1 137.245 42.316 137.149 42.62C137.053 42.916 137.005 43.328 137.005 43.856ZM142.007 47V42.92C142.007 42.56 141.959 42.272 141.863 42.056C141.767 41.832 141.539 41.72 141.179 41.72H141.059V41.36H142.247C142.519 41.36 142.731 41.396 142.883 41.468C143.043 41.532 143.167 41.644 143.255 41.804C143.399 41.676 143.595 41.552 143.843 41.432C144.099 41.304 144.407 41.24 144.767 41.24C144.943 41.24 145.103 41.26 145.247 41.3C145.391 41.34 145.515 41.4 145.619 41.48C145.755 41.576 145.855 41.692 145.919 41.828C145.991 41.964 146.027 42.028 146.027 42.02L145.415 42.488C145.343 42.384 145.235 42.28 145.091 42.176C144.955 42.072 144.787 42.02 144.587 42.02C144.331 42.02 144.115 42.056 143.939 42.128C143.763 42.2 143.623 42.288 143.519 42.392C143.535 42.536 143.547 42.652 143.555 42.74C143.563 42.828 143.567 42.904 143.567 42.968V47H142.007ZM149.269 47.12C148.629 47.12 148.093 46.988 147.661 46.724C147.237 46.452 146.917 46.092 146.701 45.644C146.493 45.196 146.389 44.708 146.389 44.18C146.389 43.644 146.493 43.156 146.701 42.716C146.917 42.268 147.237 41.912 147.661 41.648C148.093 41.376 148.629 41.24 149.269 41.24C149.725 41.24 150.109 41.272 150.421 41.336C150.741 41.4 150.977 41.508 151.129 41.66C151.281 41.812 151.369 42.016 151.393 42.272C151.417 42.528 151.429 42.884 151.429 43.34H151.069C151.037 42.828 150.877 42.44 150.589 42.176C150.309 41.912 149.929 41.78 149.449 41.78C149.161 41.78 148.909 41.868 148.693 42.044C148.477 42.212 148.309 42.476 148.189 42.836C148.069 43.188 148.009 43.636 148.009 44.18C148.009 44.708 148.065 45.152 148.177 45.512C148.289 45.864 148.453 46.132 148.669 46.316C148.893 46.492 149.173 46.58 149.509 46.58C149.925 46.58 150.261 46.484 150.517 46.292C150.781 46.1 151.017 45.864 151.225 45.584L151.597 45.86C151.485 46.036 151.333 46.224 151.141 46.424C150.957 46.616 150.713 46.78 150.409 46.916C150.113 47.052 149.733 47.12 149.269 47.12ZM155.114 47.12C154.554 47.12 154.066 46.992 153.65 46.736C153.234 46.48 152.914 46.132 152.69 45.692C152.466 45.244 152.354 44.74 152.354 44.18C152.354 43.54 152.47 43.004 152.702 42.572C152.934 42.132 153.25 41.8 153.65 41.576C154.05 41.352 154.498 41.24 154.994 41.24C155.49 41.24 155.938 41.34 156.338 41.54C156.738 41.74 157.054 42.02 157.286 42.38C157.518 42.74 157.634 43.16 157.634 43.64L157.586 44.396H153.974C153.974 45.188 154.094 45.752 154.334 46.088C154.582 46.416 154.902 46.58 155.294 46.58C155.71 46.58 156.046 46.484 156.302 46.292C156.566 46.1 156.802 45.864 157.01 45.584L157.382 45.86C157.27 46.036 157.118 46.224 156.926 46.424C156.742 46.616 156.502 46.78 156.206 46.916C155.918 47.052 155.554 47.12 155.114 47.12ZM153.974 43.856H156.014C156.014 43.064 155.918 42.52 155.726 42.224C155.542 41.928 155.298 41.78 154.994 41.78C154.818 41.78 154.65 41.844 154.49 41.972C154.338 42.1 154.214 42.316 154.118 42.62C154.022 42.916 153.974 43.328 153.974 43.856ZM158.784 47V40.64C158.784 40.28 158.732 39.992 158.628 39.776C158.532 39.552 158.304 39.44 157.944 39.44H157.824V39.08H159.264C159.544 39.08 159.76 39.128 159.912 39.224C160.072 39.32 160.184 39.48 160.248 39.704C160.312 39.928 160.344 40.24 160.344 40.64V47H158.784ZM162.453 47.168C162.221 47.168 162.041 47.1 161.913 46.964C161.785 46.828 161.721 46.652 161.721 46.436C161.721 46.22 161.785 46.044 161.913 45.908C162.041 45.772 162.221 45.704 162.453 45.704C162.685 45.704 162.865 45.772 162.993 45.908C163.121 46.044 163.185 46.22 163.185 46.436C163.185 46.652 163.121 46.828 162.993 46.964C162.865 47.1 162.685 47.168 162.453 47.168ZM166.181 47.12C165.845 47.12 165.549 47.08 165.293 47C165.045 46.92 164.833 46.812 164.657 46.676C164.489 46.532 164.361 46.36 164.273 46.16C164.185 45.96 164.141 45.74 164.141 45.5C164.141 45.116 164.229 44.792 164.405 44.528C164.589 44.256 164.917 44.052 165.389 43.916C165.861 43.772 166.525 43.7 167.381 43.7H167.561C167.561 43.22 167.517 42.84 167.429 42.56C167.341 42.28 167.209 42.08 167.033 41.96C166.865 41.84 166.661 41.78 166.421 41.78C166.149 41.78 165.905 41.848 165.689 41.984C165.473 42.12 165.317 42.412 165.221 42.86H164.561C164.561 42.652 164.573 42.44 164.597 42.224C164.629 42.008 164.717 41.82 164.861 41.66C165.005 41.5 165.241 41.392 165.569 41.336C165.905 41.272 166.269 41.24 166.661 41.24C167.053 41.24 167.401 41.292 167.705 41.396C168.009 41.5 168.265 41.656 168.473 41.864C168.689 42.072 168.849 42.336 168.953 42.656C169.065 42.968 169.121 43.336 169.121 43.76V47H168.101L167.681 46.46H167.621C167.517 46.628 167.341 46.78 167.093 46.916C166.845 47.052 166.541 47.12 166.181 47.12ZM166.541 46.52C166.805 46.52 167.025 46.432 167.201 46.256C167.377 46.08 167.497 45.908 167.561 45.74V44.24H167.381C166.805 44.24 166.389 44.344 166.133 44.552C165.885 44.76 165.761 45.076 165.761 45.5C165.761 45.836 165.829 46.092 165.965 46.268C166.109 46.436 166.301 46.52 166.541 46.52ZM170.706 49.28V42.92C170.706 42.56 170.658 42.272 170.562 42.056C170.466 41.832 170.238 41.72 169.878 41.72H169.758V41.36H170.946C171.218 41.36 171.43 41.396 171.582 41.468C171.742 41.54 171.866 41.672 171.954 41.864C172.098 41.736 172.302 41.6 172.566 41.456C172.83 41.312 173.17 41.24 173.586 41.24C174.146 41.24 174.61 41.372 174.978 41.636C175.354 41.892 175.634 42.244 175.818 42.692C176.01 43.132 176.106 43.628 176.106 44.18C176.106 44.724 176.01 45.22 175.818 45.668C175.634 46.116 175.35 46.472 174.966 46.736C174.59 46.992 174.11 47.12 173.526 47.12C173.262 47.12 173.014 47.08 172.782 47C172.558 46.928 172.386 46.848 172.266 46.76V49.28H170.706ZM173.286 46.58C173.59 46.58 173.826 46.476 173.994 46.268C174.17 46.06 174.294 45.776 174.366 45.416C174.446 45.048 174.486 44.636 174.486 44.18C174.486 43.716 174.446 43.304 174.366 42.944C174.294 42.584 174.174 42.3 174.006 42.092C173.846 41.884 173.626 41.78 173.346 41.78C173.074 41.78 172.854 41.824 172.686 41.912C172.518 42 172.378 42.092 172.266 42.188V46.22C172.362 46.3 172.506 46.38 172.698 46.46C172.89 46.54 173.086 46.58 173.286 46.58ZM177.515 49.28V42.92C177.515 42.56 177.467 42.272 177.371 42.056C177.275 41.832 177.047 41.72 176.687 41.72H176.567V41.36H177.755C178.027 41.36 178.239 41.396 178.391 41.468C178.551 41.54 178.675 41.672 178.763 41.864C178.907 41.736 179.111 41.6 179.375 41.456C179.639 41.312 179.979 41.24 180.395 41.24C180.955 41.24 181.419 41.372 181.787 41.636C182.163 41.892 182.443 42.244 182.627 42.692C182.819 43.132 182.915 43.628 182.915 44.18C182.915 44.724 182.819 45.22 182.627 45.668C182.443 46.116 182.159 46.472 181.775 46.736C181.399 46.992 180.919 47.12 180.335 47.12C180.071 47.12 179.823 47.08 179.591 47C179.367 46.928 179.195 46.848 179.075 46.76V49.28H177.515ZM180.095 46.58C180.399 46.58 180.635 46.476 180.803 46.268C180.979 46.06 181.103 45.776 181.175 45.416C181.255 45.048 181.295 44.636 181.295 44.18C181.295 43.716 181.255 43.304 181.175 42.944C181.103 42.584 180.983 42.3 180.815 42.092C180.655 41.884 180.435 41.78 180.155 41.78C179.883 41.78 179.663 41.824 179.495 41.912C179.327 42 179.187 42.092 179.075 42.188V46.22C179.171 46.3 179.315 46.38 179.507 46.46C179.699 46.54 179.895 46.58 180.095 46.58Z" fill="#82D3E0"/>
<path d="M67.104 56.06C67.02 56.06 66.928 56.046 66.828 56.018C66.732 55.994 66.638 55.95 66.546 55.886C66.454 55.822 66.378 55.736 66.318 55.628C66.262 55.52 66.234 55.384 66.234 55.22C66.234 55 66.304 54.83 66.444 54.71C66.588 54.59 66.776 54.506 67.008 54.458C67.244 54.406 67.496 54.38 67.764 54.38H67.944C67.944 54.1 67.916 53.888 67.86 53.744C67.804 53.596 67.728 53.496 67.632 53.444C67.54 53.388 67.434 53.36 67.314 53.36C67.146 53.36 67.004 53.396 66.888 53.468C66.776 53.54 66.698 53.674 66.654 53.87H66.384C66.384 53.766 66.39 53.67 66.402 53.582C66.414 53.49 66.458 53.406 66.534 53.33C66.61 53.254 66.734 53.2 66.906 53.168C67.078 53.136 67.254 53.12 67.434 53.12C67.57 53.12 67.7 53.136 67.824 53.168C67.952 53.2 68.064 53.26 68.16 53.348C68.26 53.432 68.338 53.558 68.394 53.726C68.454 53.89 68.484 54.108 68.484 54.38V56H68.184L67.974 55.73H67.944C67.884 55.806 67.786 55.88 67.65 55.952C67.514 56.024 67.332 56.06 67.104 56.06ZM67.374 55.79C67.522 55.79 67.638 55.754 67.722 55.682C67.81 55.606 67.884 55.522 67.944 55.43V54.62H67.764C67.464 54.62 67.228 54.676 67.056 54.788C66.888 54.896 66.804 55.04 66.804 55.22C66.804 55.416 66.862 55.56 66.978 55.652C67.094 55.744 67.226 55.79 67.374 55.79ZM72.1707 56.06C71.9467 56.06 71.7707 56.024 71.6427 55.952C71.5147 55.88 71.4207 55.806 71.3607 55.73H71.3307L71.1207 56H70.8207V52.76C70.8207 52.58 70.7947 52.436 70.7427 52.328C70.6947 52.216 70.5807 52.16 70.4007 52.16H70.2807V52.04H70.8207C70.9607 52.04 71.0687 52.058 71.1447 52.094C71.2247 52.13 71.2807 52.2 71.3127 52.304C71.3447 52.408 71.3607 52.56 71.3607 52.76V53.3C71.4527 53.256 71.5587 53.216 71.6787 53.18C71.7987 53.14 71.9427 53.12 72.1107 53.12C72.3707 53.12 72.5847 53.186 72.7527 53.318C72.9207 53.45 73.0447 53.628 73.1247 53.852C73.2087 54.072 73.2507 54.318 73.2507 54.59C73.2507 54.858 73.2107 55.104 73.1307 55.328C73.0507 55.552 72.9307 55.73 72.7707 55.862C72.6107 55.994 72.4107 56.06 72.1707 56.06ZM71.9907 55.82C72.1507 55.82 72.2807 55.766 72.3807 55.658C72.4847 55.546 72.5607 55.398 72.6087 55.214C72.6567 55.026 72.6807 54.818 72.6807 54.59C72.6807 54.358 72.6547 54.15 72.6027 53.966C72.5547 53.782 72.4747 53.636 72.3627 53.528C72.2547 53.416 72.1107 53.36 71.9307 53.36C71.8387 53.36 71.7427 53.38 71.6427 53.42C71.5467 53.456 71.4527 53.496 71.3607 53.54V55.46C71.4207 55.552 71.4987 55.636 71.5947 55.712C71.6947 55.784 71.8267 55.82 71.9907 55.82ZM73.9853 56V52.76C73.9853 52.58 73.9593 52.436 73.9073 52.328C73.8593 52.216 73.7453 52.16 73.5653 52.16H73.4453V52.04H73.9853C74.1253 52.04 74.2333 52.058 74.3093 52.094C74.3893 52.13 74.4453 52.2 74.4773 52.304C74.5093 52.408 74.5253 52.56 74.5253 52.76V56H73.9853ZM76.5724 56.06C76.2924 56.06 76.0544 55.994 75.8584 55.862C75.6624 55.73 75.5124 55.552 75.4084 55.328C75.3044 55.104 75.2524 54.858 75.2524 54.59C75.2524 54.318 75.3044 54.072 75.4084 53.852C75.5124 53.628 75.6624 53.45 75.8584 53.318C76.0544 53.186 76.2924 53.12 76.5724 53.12C76.8524 53.12 77.0904 53.186 77.2864 53.318C77.4824 53.45 77.6324 53.628 77.7364 53.852C77.8404 54.072 77.8924 54.318 77.8924 54.59C77.8924 54.858 77.8404 55.104 77.7364 55.328C77.6324 55.552 77.4824 55.73 77.2864 55.862C77.0904 55.994 76.8524 56.06 76.5724 56.06ZM76.5724 55.82C76.7244 55.82 76.8564 55.766 76.9684 55.658C77.0804 55.546 77.1664 55.398 77.2264 55.214C77.2904 55.026 77.3224 54.818 77.3224 54.59C77.3224 54.358 77.2904 54.15 77.2264 53.966C77.1664 53.782 77.0804 53.636 76.9684 53.528C76.8564 53.416 76.7244 53.36 76.5724 53.36C76.4244 53.36 76.2924 53.416 76.1764 53.528C76.0644 53.636 75.9764 53.782 75.9124 53.966C75.8524 54.15 75.8224 54.358 75.8224 54.59C75.8224 54.818 75.8524 55.026 75.9124 55.214C75.9764 55.398 76.0644 55.546 76.1764 55.658C76.2924 55.766 76.4244 55.82 76.5724 55.82ZM79.6401 57.2C79.3921 57.2 79.1681 57.17 78.9681 57.11C78.7681 57.05 78.6101 56.952 78.4941 56.816C78.3781 56.68 78.3201 56.498 78.3201 56.27C78.3201 56.138 78.3501 56.022 78.4101 55.922C78.4701 55.818 78.5501 55.73 78.6501 55.658C78.7501 55.586 78.8601 55.53 78.9801 55.49C78.9201 55.458 78.8641 55.414 78.8121 55.358C78.7641 55.298 78.7401 55.222 78.7401 55.13C78.7401 55.038 78.7641 54.968 78.8121 54.92C78.8601 54.872 78.9061 54.832 78.9501 54.8C78.8301 54.74 78.7241 54.644 78.6321 54.512C78.5441 54.38 78.5001 54.216 78.5001 54.02C78.5001 53.788 78.5501 53.608 78.6501 53.48C78.7541 53.348 78.8921 53.256 79.0641 53.204C79.2401 53.148 79.4321 53.12 79.6401 53.12H80.7501V53.27L80.3601 53.33C80.4721 53.398 80.5701 53.492 80.6541 53.612C80.7381 53.732 80.7801 53.868 80.7801 54.02C80.7801 54.248 80.7281 54.428 80.6241 54.56C80.5241 54.692 80.3881 54.786 80.2161 54.842C80.0441 54.894 79.8521 54.92 79.6401 54.92C79.4321 54.92 79.2741 54.938 79.1661 54.974C79.0621 55.01 79.0101 55.062 79.0101 55.13C79.0101 55.198 79.0621 55.25 79.1661 55.286C79.2741 55.322 79.4321 55.34 79.6401 55.34C79.8801 55.34 80.1001 55.372 80.3001 55.436C80.5001 55.5 80.6601 55.6 80.7801 55.736C80.9001 55.872 80.9601 56.05 80.9601 56.27C80.9601 56.498 80.9021 56.68 80.7861 56.816C80.6701 56.952 80.5121 57.05 80.3121 57.11C80.1121 57.17 79.8881 57.2 79.6401 57.2ZM79.6401 56.96C79.8681 56.96 80.0541 56.904 80.1981 56.792C80.3461 56.684 80.4201 56.51 80.4201 56.27C80.4201 56.07 80.3601 55.912 80.2401 55.796C80.1201 55.68 79.9401 55.608 79.7001 55.58L79.3701 55.55C79.2181 55.61 79.0941 55.696 78.9981 55.808C78.9061 55.92 78.8601 56.074 78.8601 56.27C78.8601 56.51 78.9321 56.684 79.0761 56.792C79.2241 56.904 79.4121 56.96 79.6401 56.96ZM79.6401 54.71C79.8041 54.71 79.9441 54.66 80.0601 54.56C80.1801 54.456 80.2401 54.276 80.2401 54.02C80.2401 53.78 80.1821 53.606 80.0661 53.498C79.9501 53.386 79.8081 53.33 79.6401 53.33C79.4761 53.33 79.3341 53.382 79.2141 53.486C79.0981 53.586 79.0401 53.764 79.0401 54.02C79.0401 54.276 79.0981 54.456 79.2141 54.56C79.3341 54.66 79.4761 54.71 79.6401 54.71ZM83.7212 56.06C83.6372 56.06 83.5452 56.046 83.4452 56.018C83.3492 55.994 83.2552 55.95 83.1632 55.886C83.0712 55.822 82.9952 55.736 82.9352 55.628C82.8792 55.52 82.8512 55.384 82.8512 55.22C82.8512 55 82.9212 54.83 83.0612 54.71C83.2052 54.59 83.3932 54.506 83.6252 54.458C83.8612 54.406 84.1132 54.38 84.3812 54.38H84.5612C84.5612 54.1 84.5332 53.888 84.4772 53.744C84.4212 53.596 84.3452 53.496 84.2492 53.444C84.1572 53.388 84.0512 53.36 83.9312 53.36C83.7632 53.36 83.6212 53.396 83.5052 53.468C83.3932 53.54 83.3152 53.674 83.2712 53.87H83.0012C83.0012 53.766 83.0072 53.67 83.0192 53.582C83.0312 53.49 83.0752 53.406 83.1512 53.33C83.2272 53.254 83.3512 53.2 83.5232 53.168C83.6952 53.136 83.8712 53.12 84.0512 53.12C84.1872 53.12 84.3172 53.136 84.4412 53.168C84.5692 53.2 84.6812 53.26 84.7772 53.348C84.8772 53.432 84.9552 53.558 85.0112 53.726C85.0712 53.89 85.1012 54.108 85.1012 54.38V56H84.8012L84.5912 55.73H84.5612C84.5012 55.806 84.4032 55.88 84.2672 55.952C84.1312 56.024 83.9492 56.06 83.7212 56.06ZM83.9912 55.79C84.1392 55.79 84.2552 55.754 84.3392 55.682C84.4272 55.606 84.5012 55.522 84.5612 55.43V54.62H84.3812C84.0812 54.62 83.8452 54.676 83.6732 54.788C83.5052 54.896 83.4212 55.04 83.4212 55.22C83.4212 55.416 83.4792 55.56 83.5952 55.652C83.7112 55.744 83.8432 55.79 83.9912 55.79ZM87.2879 56.06C87.0639 56.06 86.8879 56.024 86.7599 55.952C86.6319 55.88 86.5379 55.806 86.4779 55.73H86.4479L86.2379 56H85.9379V52.76C85.9379 52.58 85.9119 52.436 85.8599 52.328C85.8119 52.216 85.6979 52.16 85.5179 52.16H85.3979V52.04H85.9379C86.0779 52.04 86.1859 52.058 86.2619 52.094C86.3419 52.13 86.3979 52.2 86.4299 52.304C86.4619 52.408 86.4779 52.56 86.4779 52.76V53.3C86.5699 53.256 86.6759 53.216 86.7959 53.18C86.9159 53.14 87.0599 53.12 87.2279 53.12C87.4879 53.12 87.7019 53.186 87.8699 53.318C88.0379 53.45 88.1619 53.628 88.2419 53.852C88.3259 54.072 88.3679 54.318 88.3679 54.59C88.3679 54.858 88.3279 55.104 88.2479 55.328C88.1679 55.552 88.0479 55.73 87.8879 55.862C87.7279 55.994 87.5279 56.06 87.2879 56.06ZM87.1079 55.82C87.2679 55.82 87.3979 55.766 87.4979 55.658C87.6019 55.546 87.6779 55.398 87.7259 55.214C87.7739 55.026 87.7979 54.818 87.7979 54.59C87.7979 54.358 87.7719 54.15 87.7199 53.966C87.6719 53.782 87.5919 53.636 87.4799 53.528C87.3719 53.416 87.2279 53.36 87.0479 53.36C86.9559 53.36 86.8599 53.38 86.7599 53.42C86.6639 53.456 86.5699 53.496 86.4779 53.54V55.46C86.5379 55.552 86.6159 55.636 86.7119 55.712C86.8119 55.784 86.9439 55.82 87.1079 55.82ZM90.2365 56.06C89.9565 56.06 89.7185 55.994 89.5225 55.862C89.3265 55.73 89.1765 55.552 89.0725 55.328C88.9685 55.104 88.9165 54.858 88.9165 54.59C88.9165 54.318 88.9685 54.072 89.0725 53.852C89.1765 53.628 89.3265 53.45 89.5225 53.318C89.7185 53.186 89.9565 53.12 90.2365 53.12C90.5165 53.12 90.7545 53.186 90.9505 53.318C91.1465 53.45 91.2965 53.628 91.4005 53.852C91.5045 54.072 91.5565 54.318 91.5565 54.59C91.5565 54.858 91.5045 55.104 91.4005 55.328C91.2965 55.552 91.1465 55.73 90.9505 55.862C90.7545 55.994 90.5165 56.06 90.2365 56.06ZM90.2365 55.82C90.3885 55.82 90.5205 55.766 90.6325 55.658C90.7445 55.546 90.8305 55.398 90.8905 55.214C90.9545 55.026 90.9865 54.818 90.9865 54.59C90.9865 54.358 90.9545 54.15 90.8905 53.966C90.8305 53.782 90.7445 53.636 90.6325 53.528C90.5205 53.416 90.3885 53.36 90.2365 53.36C90.0885 53.36 89.9565 53.416 89.8405 53.528C89.7285 53.636 89.6405 53.782 89.5765 53.966C89.5165 54.15 89.4865 54.358 89.4865 54.59C89.4865 54.818 89.5165 55.026 89.5765 55.214C89.6405 55.398 89.7285 55.546 89.8405 55.658C89.9565 55.766 90.0885 55.82 90.2365 55.82ZM93.2861 56.06C93.1181 56.06 92.9561 56.03 92.8001 55.97C92.6441 55.91 92.5161 55.802 92.4161 55.646C92.3161 55.49 92.2661 55.268 92.2661 54.98V53.9C92.2661 53.72 92.2401 53.576 92.1881 53.468C92.1401 53.356 92.0261 53.3 91.8461 53.3H91.7861V53.18H92.2661C92.4061 53.18 92.5141 53.198 92.5901 53.234C92.6701 53.27 92.7261 53.34 92.7581 53.444C92.7901 53.548 92.8061 53.7 92.8061 53.9V54.98C92.8061 55.18 92.8381 55.34 92.9021 55.46C92.9661 55.576 93.0481 55.66 93.1481 55.712C93.2521 55.764 93.3581 55.79 93.4661 55.79C93.5461 55.79 93.6221 55.776 93.6941 55.748C93.7661 55.716 93.8341 55.676 93.8981 55.628C93.9621 55.58 94.0181 55.528 94.0661 55.472V53.18H94.6061V56H94.3061L94.0961 55.76H94.0661C93.9901 55.836 93.8861 55.906 93.7541 55.97C93.6221 56.03 93.4661 56.06 93.2861 56.06ZM96.3051 56.06C96.0931 56.06 95.9191 55.998 95.7831 55.874C95.6511 55.75 95.5851 55.552 95.5851 55.28V53.42H95.1651V53.18H95.5851V52.64L95.8851 52.28H96.1251V53.18H96.8451V53.42H96.1251V55.28C96.1251 55.46 96.1591 55.596 96.2271 55.688C96.2991 55.776 96.4051 55.82 96.5451 55.82C96.6491 55.82 96.7351 55.808 96.8031 55.784C96.8711 55.76 96.9351 55.732 96.9951 55.7L97.0551 55.82C96.9911 55.868 96.9031 55.92 96.7911 55.976C96.6791 56.032 96.5171 56.06 96.3051 56.06ZM99.0884 57.14V53.9C99.0884 53.72 99.0624 53.576 99.0104 53.468C98.9624 53.356 98.8484 53.3 98.6684 53.3H98.5484V53.18H99.0884C99.2404 53.18 99.3544 53.202 99.4304 53.246C99.5104 53.29 99.5664 53.358 99.5984 53.45C99.6784 53.37 99.7864 53.296 99.9224 53.228C100.058 53.156 100.23 53.12 100.438 53.12C100.678 53.12 100.878 53.186 101.038 53.318C101.198 53.45 101.318 53.628 101.398 53.852C101.478 54.072 101.518 54.318 101.518 54.59C101.518 54.858 101.476 55.104 101.392 55.328C101.312 55.552 101.188 55.73 101.02 55.862C100.852 55.994 100.638 56.06 100.378 56.06C100.21 56.06 100.066 56.04 99.9464 56C99.8264 55.964 99.7204 55.924 99.6284 55.88V57.14H99.0884ZM100.198 55.82C100.378 55.82 100.522 55.766 100.63 55.658C100.742 55.546 100.822 55.398 100.87 55.214C100.922 55.026 100.948 54.818 100.948 54.59C100.948 54.358 100.924 54.15 100.876 53.966C100.828 53.782 100.752 53.636 100.648 53.528C100.548 53.416 100.418 53.36 100.258 53.36C100.094 53.36 99.9624 53.398 99.8624 53.474C99.7624 53.546 99.6844 53.628 99.6284 53.72V55.64C99.7204 55.684 99.8144 55.726 99.9104 55.766C100.01 55.802 100.106 55.82 100.198 55.82ZM102.227 56V52.76C102.227 52.58 102.201 52.436 102.149 52.328C102.101 52.216 101.987 52.16 101.807 52.16H101.687V52.04H102.227C102.367 52.04 102.475 52.058 102.551 52.094C102.631 52.13 102.687 52.2 102.719 52.304C102.751 52.408 102.767 52.56 102.767 52.76V53.42C102.843 53.344 102.947 53.276 103.079 53.216C103.211 53.152 103.367 53.12 103.547 53.12C103.675 53.12 103.799 53.136 103.919 53.168C104.043 53.2 104.153 53.256 104.249 53.336C104.345 53.412 104.421 53.522 104.477 53.666C104.537 53.806 104.567 53.984 104.567 54.2V56H104.027V54.2C104.027 54 103.995 53.842 103.931 53.726C103.867 53.606 103.785 53.52 103.685 53.468C103.585 53.416 103.479 53.39 103.367 53.39C103.247 53.39 103.135 53.422 103.031 53.486C102.931 53.55 102.843 53.624 102.767 53.708V56H102.227ZM105.493 56V53.9C105.493 53.72 105.467 53.576 105.415 53.468C105.367 53.356 105.253 53.3 105.073 53.3H104.953V53.18H105.493C105.633 53.18 105.741 53.198 105.817 53.234C105.897 53.27 105.953 53.34 105.985 53.444C106.017 53.548 106.033 53.7 106.033 53.9V56H105.493ZM105.721 52.82C105.629 52.82 105.549 52.782 105.481 52.706C105.417 52.63 105.385 52.54 105.385 52.436C105.385 52.352 105.409 52.286 105.457 52.238C105.509 52.19 105.577 52.166 105.661 52.166C105.753 52.166 105.831 52.204 105.895 52.28C105.963 52.356 105.997 52.446 105.997 52.55C105.997 52.634 105.971 52.7 105.919 52.748C105.871 52.796 105.805 52.82 105.721 52.82ZM106.903 56V52.76C106.903 52.58 106.877 52.436 106.825 52.328C106.777 52.216 106.663 52.16 106.483 52.16H106.363V52.04H106.903C107.043 52.04 107.151 52.058 107.227 52.094C107.307 52.13 107.363 52.2 107.395 52.304C107.427 52.408 107.443 52.56 107.443 52.76V56H106.903ZM109.49 56.06C109.21 56.06 108.972 55.994 108.776 55.862C108.58 55.73 108.43 55.552 108.326 55.328C108.222 55.104 108.17 54.858 108.17 54.59C108.17 54.318 108.222 54.072 108.326 53.852C108.43 53.628 108.58 53.45 108.776 53.318C108.972 53.186 109.21 53.12 109.49 53.12C109.77 53.12 110.008 53.186 110.204 53.318C110.4 53.45 110.55 53.628 110.654 53.852C110.758 54.072 110.81 54.318 110.81 54.59C110.81 54.858 110.758 55.104 110.654 55.328C110.55 55.552 110.4 55.73 110.204 55.862C110.008 55.994 109.77 56.06 109.49 56.06ZM109.49 55.82C109.642 55.82 109.774 55.766 109.886 55.658C109.998 55.546 110.084 55.398 110.144 55.214C110.208 55.026 110.24 54.818 110.24 54.59C110.24 54.358 110.208 54.15 110.144 53.966C110.084 53.782 109.998 53.636 109.886 53.528C109.774 53.416 109.642 53.36 109.49 53.36C109.342 53.36 109.21 53.416 109.094 53.528C108.982 53.636 108.894 53.782 108.83 53.966C108.77 54.15 108.74 54.358 108.74 54.59C108.74 54.818 108.77 55.026 108.83 55.214C108.894 55.398 108.982 55.546 109.094 55.658C109.21 55.766 109.342 55.82 109.49 55.82ZM112.456 56.06C112.216 56.06 112.02 56.04 111.868 56C111.716 55.956 111.602 55.896 111.526 55.82C111.45 55.744 111.406 55.658 111.394 55.562C111.382 55.466 111.376 55.342 111.376 55.19H111.496C111.528 55.386 111.612 55.54 111.748 55.652C111.884 55.764 112.08 55.82 112.336 55.82C112.564 55.82 112.73 55.78 112.834 55.7C112.942 55.62 112.996 55.52 112.996 55.4C112.996 55.28 112.95 55.18 112.858 55.1C112.77 55.016 112.636 54.936 112.456 54.86L112.096 54.71C111.868 54.618 111.69 54.51 111.562 54.386C111.438 54.258 111.376 54.096 111.376 53.9C111.376 53.648 111.47 53.456 111.658 53.324C111.846 53.188 112.082 53.12 112.366 53.12C112.594 53.12 112.782 53.142 112.93 53.186C113.078 53.226 113.19 53.284 113.266 53.36C113.342 53.436 113.386 53.522 113.398 53.618C113.41 53.714 113.416 53.838 113.416 53.99H113.296C113.264 53.794 113.18 53.64 113.044 53.528C112.912 53.416 112.726 53.36 112.486 53.36C112.29 53.36 112.14 53.4 112.036 53.48C111.936 53.56 111.886 53.66 111.886 53.78C111.886 53.884 111.928 53.98 112.012 54.068C112.096 54.152 112.214 54.226 112.366 54.29L112.726 54.44C112.982 54.544 113.176 54.658 113.308 54.782C113.44 54.906 113.506 55.072 113.506 55.28C113.506 55.532 113.406 55.726 113.206 55.862C113.006 55.994 112.756 56.06 112.456 56.06ZM115.35 56.06C115.07 56.06 114.832 55.994 114.636 55.862C114.44 55.73 114.29 55.552 114.186 55.328C114.082 55.104 114.03 54.858 114.03 54.59C114.03 54.318 114.082 54.072 114.186 53.852C114.29 53.628 114.44 53.45 114.636 53.318C114.832 53.186 115.07 53.12 115.35 53.12C115.63 53.12 115.868 53.186 116.064 53.318C116.26 53.45 116.41 53.628 116.514 53.852C116.618 54.072 116.67 54.318 116.67 54.59C116.67 54.858 116.618 55.104 116.514 55.328C116.41 55.552 116.26 55.73 116.064 55.862C115.868 55.994 115.63 56.06 115.35 56.06ZM115.35 55.82C115.502 55.82 115.634 55.766 115.746 55.658C115.858 55.546 115.944 55.398 116.004 55.214C116.068 55.026 116.1 54.818 116.1 54.59C116.1 54.358 116.068 54.15 116.004 53.966C115.944 53.782 115.858 53.636 115.746 53.528C115.634 53.416 115.502 53.36 115.35 53.36C115.202 53.36 115.07 53.416 114.954 53.528C114.842 53.636 114.754 53.782 114.69 53.966C114.63 54.15 114.6 54.358 114.6 54.59C114.6 54.818 114.63 55.026 114.69 55.214C114.754 55.398 114.842 55.546 114.954 55.658C115.07 55.766 115.202 55.82 115.35 55.82ZM117.463 57.14V53.9C117.463 53.72 117.437 53.576 117.385 53.468C117.337 53.356 117.223 53.3 117.043 53.3H116.923V53.18H117.463C117.615 53.18 117.729 53.202 117.805 53.246C117.885 53.29 117.941 53.358 117.973 53.45C118.053 53.37 118.161 53.296 118.297 53.228C118.433 53.156 118.605 53.12 118.813 53.12C119.053 53.12 119.253 53.186 119.413 53.318C119.573 53.45 119.693 53.628 119.773 53.852C119.853 54.072 119.893 54.318 119.893 54.59C119.893 54.858 119.851 55.104 119.767 55.328C119.687 55.552 119.563 55.73 119.395 55.862C119.227 55.994 119.013 56.06 118.753 56.06C118.585 56.06 118.441 56.04 118.321 56C118.201 55.964 118.095 55.924 118.003 55.88V57.14H117.463ZM118.573 55.82C118.753 55.82 118.897 55.766 119.005 55.658C119.117 55.546 119.197 55.398 119.245 55.214C119.297 55.026 119.323 54.818 119.323 54.59C119.323 54.358 119.299 54.15 119.251 53.966C119.203 53.782 119.127 53.636 119.023 53.528C118.923 53.416 118.793 53.36 118.633 53.36C118.469 53.36 118.337 53.398 118.237 53.474C118.137 53.546 118.059 53.628 118.003 53.72V55.64C118.095 55.684 118.189 55.726 118.285 55.766C118.385 55.802 118.481 55.82 118.573 55.82ZM120.602 56V52.76C120.602 52.58 120.576 52.436 120.524 52.328C120.476 52.216 120.362 52.16 120.182 52.16H120.062V52.04H120.602C120.742 52.04 120.85 52.058 120.926 52.094C121.006 52.13 121.062 52.2 121.094 52.304C121.126 52.408 121.142 52.56 121.142 52.76V53.42C121.218 53.344 121.322 53.276 121.454 53.216C121.586 53.152 121.742 53.12 121.922 53.12C122.05 53.12 122.174 53.136 122.294 53.168C122.418 53.2 122.528 53.256 122.624 53.336C122.72 53.412 122.796 53.522 122.852 53.666C122.912 53.806 122.942 53.984 122.942 54.2V56H122.402V54.2C122.402 54 122.37 53.842 122.306 53.726C122.242 53.606 122.16 53.52 122.06 53.468C121.96 53.416 121.854 53.39 121.742 53.39C121.622 53.39 121.51 53.422 121.406 53.486C121.306 53.55 121.218 53.624 121.142 53.708V56H120.602ZM123.929 57.2V57.02C124.113 57.02 124.269 56.978 124.397 56.894C124.529 56.814 124.643 56.646 124.739 56.39L124.859 56.06L123.899 53.72C123.839 53.568 123.751 53.454 123.635 53.378C123.523 53.302 123.391 53.256 123.239 53.24V53.12H123.749C123.929 53.12 124.077 53.162 124.193 53.246C124.313 53.33 124.405 53.448 124.469 53.6L125.153 55.262L125.909 53.18H126.209L125.039 56.39C124.959 56.61 124.873 56.778 124.781 56.894C124.693 57.01 124.593 57.09 124.481 57.134C124.373 57.178 124.249 57.2 124.109 57.2H123.929ZM128.985 56.06C128.901 56.06 128.809 56.046 128.709 56.018C128.613 55.994 128.519 55.95 128.427 55.886C128.335 55.822 128.259 55.736 128.199 55.628C128.143 55.52 128.115 55.384 128.115 55.22C128.115 55 128.185 54.83 128.325 54.71C128.469 54.59 128.657 54.506 128.889 54.458C129.125 54.406 129.377 54.38 129.645 54.38H129.825C129.825 54.1 129.797 53.888 129.741 53.744C129.685 53.596 129.609 53.496 129.513 53.444C129.421 53.388 129.315 53.36 129.195 53.36C129.027 53.36 128.885 53.396 128.769 53.468C128.657 53.54 128.579 53.674 128.535 53.87H128.265C128.265 53.766 128.271 53.67 128.283 53.582C128.295 53.49 128.339 53.406 128.415 53.33C128.491 53.254 128.615 53.2 128.787 53.168C128.959 53.136 129.135 53.12 129.315 53.12C129.451 53.12 129.581 53.136 129.705 53.168C129.833 53.2 129.945 53.26 130.041 53.348C130.141 53.432 130.219 53.558 130.275 53.726C130.335 53.89 130.365 54.108 130.365 54.38V56H130.065L129.855 55.73H129.825C129.765 55.806 129.667 55.88 129.531 55.952C129.395 56.024 129.213 56.06 128.985 56.06ZM129.255 55.79C129.403 55.79 129.519 55.754 129.603 55.682C129.691 55.606 129.765 55.522 129.825 55.43V54.62H129.645C129.345 54.62 129.109 54.676 128.937 54.788C128.769 54.896 128.685 55.04 128.685 55.22C128.685 55.416 128.743 55.56 128.859 55.652C128.975 55.744 129.107 55.79 129.255 55.79ZM131.292 56V53.9C131.292 53.72 131.266 53.576 131.214 53.468C131.166 53.356 131.052 53.3 130.872 53.3H130.752V53.18H131.292C131.444 53.18 131.558 53.202 131.634 53.246C131.714 53.286 131.77 53.344 131.802 53.42C131.882 53.352 131.992 53.286 132.132 53.222C132.272 53.154 132.432 53.12 132.612 53.12C132.784 53.12 132.946 53.15 133.098 53.21C133.254 53.27 133.382 53.378 133.482 53.534C133.582 53.686 133.632 53.908 133.632 54.2V56H133.092V54.2C133.092 54 133.06 53.842 132.996 53.726C132.932 53.606 132.85 53.52 132.75 53.468C132.65 53.416 132.544 53.39 132.432 53.39C132.312 53.39 132.2 53.422 132.096 53.486C131.996 53.55 131.908 53.624 131.832 53.708V56H131.292ZM135.395 56.06C135.155 56.06 134.955 55.994 134.795 55.862C134.635 55.73 134.515 55.552 134.435 55.328C134.355 55.104 134.315 54.858 134.315 54.59C134.315 54.318 134.355 54.072 134.435 53.852C134.519 53.628 134.645 53.45 134.813 53.318C134.981 53.186 135.195 53.12 135.455 53.12C135.623 53.12 135.767 53.14 135.887 53.18C136.007 53.216 136.113 53.256 136.205 53.3V52.76C136.205 52.58 136.179 52.436 136.127 52.328C136.079 52.216 135.965 52.16 135.785 52.16H135.665V52.04H136.205C136.345 52.04 136.453 52.058 136.529 52.094C136.609 52.13 136.665 52.2 136.697 52.304C136.729 52.408 136.745 52.56 136.745 52.76V56H136.445L136.235 55.73H136.205C136.141 55.806 136.051 55.88 135.935 55.952C135.819 56.024 135.639 56.06 135.395 56.06ZM135.575 55.82C135.699 55.82 135.799 55.802 135.875 55.766C135.951 55.73 136.013 55.686 136.061 55.634C136.113 55.578 136.161 55.52 136.205 55.46V53.54C136.113 53.496 136.017 53.456 135.917 53.42C135.821 53.38 135.727 53.36 135.635 53.36C135.455 53.36 135.309 53.416 135.197 53.528C135.089 53.636 135.009 53.782 134.957 53.966C134.909 54.15 134.885 54.358 134.885 54.59C134.885 54.818 134.909 55.026 134.957 55.214C135.005 55.398 135.079 55.546 135.179 55.658C135.283 55.766 135.415 55.82 135.575 55.82ZM139.202 57.14V53.9C139.202 53.72 139.176 53.576 139.124 53.468C139.076 53.356 138.962 53.3 138.782 53.3H138.662V53.18H139.202C139.354 53.18 139.468 53.202 139.544 53.246C139.624 53.29 139.68 53.358 139.712 53.45C139.792 53.37 139.9 53.296 140.036 53.228C140.172 53.156 140.344 53.12 140.552 53.12C140.792 53.12 140.992 53.186 141.152 53.318C141.312 53.45 141.432 53.628 141.512 53.852C141.592 54.072 141.632 54.318 141.632 54.59C141.632 54.858 141.59 55.104 141.506 55.328C141.426 55.552 141.302 55.73 141.134 55.862C140.966 55.994 140.752 56.06 140.492 56.06C140.324 56.06 140.18 56.04 140.06 56C139.94 55.964 139.834 55.924 139.742 55.88V57.14H139.202ZM140.312 55.82C140.492 55.82 140.636 55.766 140.744 55.658C140.856 55.546 140.936 55.398 140.984 55.214C141.036 55.026 141.062 54.818 141.062 54.59C141.062 54.358 141.038 54.15 140.99 53.966C140.942 53.782 140.866 53.636 140.762 53.528C140.662 53.416 140.532 53.36 140.372 53.36C140.208 53.36 140.076 53.398 139.976 53.474C139.876 53.546 139.798 53.628 139.742 53.72V55.64C139.834 55.684 139.928 55.726 140.024 55.766C140.124 55.802 140.22 55.82 140.312 55.82ZM142.388 56V53.9C142.388 53.72 142.362 53.576 142.31 53.468C142.262 53.356 142.148 53.3 141.968 53.3H141.908V53.18H142.388C142.54 53.18 142.654 53.202 142.73 53.246C142.81 53.29 142.866 53.358 142.898 53.45C142.966 53.382 143.064 53.31 143.192 53.234C143.324 53.158 143.476 53.12 143.648 53.12C143.708 53.12 143.772 53.128 143.84 53.144C143.908 53.156 143.964 53.178 144.008 53.21C144.052 53.242 144.09 53.28 144.122 53.324C144.154 53.368 144.186 53.42 144.218 53.48L143.978 53.66C143.934 53.6 143.868 53.556 143.78 53.528C143.696 53.496 143.602 53.48 143.498 53.48C143.378 53.48 143.268 53.508 143.168 53.564C143.068 53.616 142.988 53.688 142.928 53.78C142.928 53.8 142.928 53.83 142.928 53.87C142.928 53.906 142.928 53.936 142.928 53.96V56H142.388ZM145.83 56.06C145.55 56.06 145.312 55.994 145.116 55.862C144.92 55.73 144.77 55.552 144.666 55.328C144.562 55.104 144.51 54.858 144.51 54.59C144.51 54.318 144.562 54.072 144.666 53.852C144.77 53.628 144.92 53.45 145.116 53.318C145.312 53.186 145.55 53.12 145.83 53.12C146.11 53.12 146.348 53.186 146.544 53.318C146.74 53.45 146.89 53.628 146.994 53.852C147.098 54.072 147.15 54.318 147.15 54.59C147.15 54.858 147.098 55.104 146.994 55.328C146.89 55.552 146.74 55.73 146.544 55.862C146.348 55.994 146.11 56.06 145.83 56.06ZM145.83 55.82C145.982 55.82 146.114 55.766 146.226 55.658C146.338 55.546 146.424 55.398 146.484 55.214C146.548 55.026 146.58 54.818 146.58 54.59C146.58 54.358 146.548 54.15 146.484 53.966C146.424 53.782 146.338 53.636 146.226 53.528C146.114 53.416 145.982 53.36 145.83 53.36C145.682 53.36 145.55 53.416 145.434 53.528C145.322 53.636 145.234 53.782 145.17 53.966C145.11 54.15 145.08 54.358 145.08 54.59C145.08 54.818 145.11 55.026 145.17 55.214C145.234 55.398 145.322 55.546 145.434 55.658C145.55 55.766 145.682 55.82 145.83 55.82ZM148.898 57.2C148.65 57.2 148.426 57.17 148.226 57.11C148.026 57.05 147.868 56.952 147.752 56.816C147.636 56.68 147.578 56.498 147.578 56.27C147.578 56.138 147.608 56.022 147.668 55.922C147.728 55.818 147.808 55.73 147.908 55.658C148.008 55.586 148.118 55.53 148.238 55.49C148.178 55.458 148.122 55.414 148.07 55.358C148.022 55.298 147.998 55.222 147.998 55.13C147.998 55.038 148.022 54.968 148.07 54.92C148.118 54.872 148.164 54.832 148.208 54.8C148.088 54.74 147.982 54.644 147.89 54.512C147.802 54.38 147.758 54.216 147.758 54.02C147.758 53.788 147.808 53.608 147.908 53.48C148.012 53.348 148.15 53.256 148.322 53.204C148.498 53.148 148.69 53.12 148.898 53.12H150.008V53.27L149.618 53.33C149.73 53.398 149.828 53.492 149.912 53.612C149.996 53.732 150.038 53.868 150.038 54.02C150.038 54.248 149.986 54.428 149.882 54.56C149.782 54.692 149.646 54.786 149.474 54.842C149.302 54.894 149.11 54.92 148.898 54.92C148.69 54.92 148.532 54.938 148.424 54.974C148.32 55.01 148.268 55.062 148.268 55.13C148.268 55.198 148.32 55.25 148.424 55.286C148.532 55.322 148.69 55.34 148.898 55.34C149.138 55.34 149.358 55.372 149.558 55.436C149.758 55.5 149.918 55.6 150.038 55.736C150.158 55.872 150.218 56.05 150.218 56.27C150.218 56.498 150.16 56.68 150.044 56.816C149.928 56.952 149.77 57.05 149.57 57.11C149.37 57.17 149.146 57.2 148.898 57.2ZM148.898 56.96C149.126 56.96 149.312 56.904 149.456 56.792C149.604 56.684 149.678 56.51 149.678 56.27C149.678 56.07 149.618 55.912 149.498 55.796C149.378 55.68 149.198 55.608 148.958 55.58L148.628 55.55C148.476 55.61 148.352 55.696 148.256 55.808C148.164 55.92 148.118 56.074 148.118 56.27C148.118 56.51 148.19 56.684 148.334 56.792C148.482 56.904 148.67 56.96 148.898 56.96ZM148.898 54.71C149.062 54.71 149.202 54.66 149.318 54.56C149.438 54.456 149.498 54.276 149.498 54.02C149.498 53.78 149.44 53.606 149.324 53.498C149.208 53.386 149.066 53.33 148.898 53.33C148.734 53.33 148.592 53.382 148.472 53.486C148.356 53.586 148.298 53.764 148.298 54.02C148.298 54.276 148.356 54.456 148.472 54.56C148.592 54.66 148.734 54.71 148.898 54.71ZM150.855 56V53.9C150.855 53.72 150.829 53.576 150.777 53.468C150.729 53.356 150.615 53.3 150.435 53.3H150.375V53.18H150.855C151.007 53.18 151.121 53.202 151.197 53.246C151.277 53.29 151.333 53.358 151.365 53.45C151.433 53.382 151.531 53.31 151.659 53.234C151.791 53.158 151.943 53.12 152.115 53.12C152.175 53.12 152.239 53.128 152.307 53.144C152.375 53.156 152.431 53.178 152.475 53.21C152.519 53.242 152.557 53.28 152.589 53.324C152.621 53.368 152.653 53.42 152.685 53.48L152.445 53.66C152.401 53.6 152.335 53.556 152.247 53.528C152.163 53.496 152.069 53.48 151.965 53.48C151.845 53.48 151.735 53.508 151.635 53.564C151.535 53.616 151.455 53.688 151.395 53.78C151.395 53.8 151.395 53.83 151.395 53.87C151.395 53.906 151.395 53.936 151.395 53.96V56H150.855ZM153.864 56.06C153.78 56.06 153.688 56.046 153.588 56.018C153.492 55.994 153.398 55.95 153.306 55.886C153.214 55.822 153.138 55.736 153.078 55.628C153.022 55.52 152.994 55.384 152.994 55.22C152.994 55 153.064 54.83 153.204 54.71C153.348 54.59 153.536 54.506 153.768 54.458C154.004 54.406 154.256 54.38 154.524 54.38H154.704C154.704 54.1 154.676 53.888 154.62 53.744C154.564 53.596 154.488 53.496 154.392 53.444C154.3 53.388 154.194 53.36 154.074 53.36C153.906 53.36 153.764 53.396 153.648 53.468C153.536 53.54 153.458 53.674 153.414 53.87H153.144C153.144 53.766 153.15 53.67 153.162 53.582C153.174 53.49 153.218 53.406 153.294 53.33C153.37 53.254 153.494 53.2 153.666 53.168C153.838 53.136 154.014 53.12 154.194 53.12C154.33 53.12 154.46 53.136 154.584 53.168C154.712 53.2 154.824 53.26 154.92 53.348C155.02 53.432 155.098 53.558 155.154 53.726C155.214 53.89 155.244 54.108 155.244 54.38V56H154.944L154.734 55.73H154.704C154.644 55.806 154.546 55.88 154.41 55.952C154.274 56.024 154.092 56.06 153.864 56.06ZM154.134 55.79C154.282 55.79 154.398 55.754 154.482 55.682C154.57 55.606 154.644 55.522 154.704 55.43V54.62H154.524C154.224 54.62 153.988 54.676 153.816 54.788C153.648 54.896 153.564 55.04 153.564 55.22C153.564 55.416 153.622 55.56 153.738 55.652C153.854 55.744 153.986 55.79 154.134 55.79ZM156.17 56V53.9C156.17 53.72 156.144 53.576 156.092 53.468C156.044 53.356 155.93 53.3 155.75 53.3H155.63V53.18H156.17C156.322 53.18 156.436 53.202 156.512 53.246C156.592 53.286 156.648 53.344 156.68 53.42H156.71C156.786 53.344 156.89 53.276 157.022 53.216C157.154 53.152 157.31 53.12 157.49 53.12C157.594 53.12 157.69 53.132 157.778 53.156C157.87 53.18 157.952 53.222 158.024 53.282C158.1 53.342 158.162 53.428 158.21 53.54C158.314 53.404 158.448 53.3 158.612 53.228C158.776 53.156 158.942 53.12 159.11 53.12C159.262 53.12 159.4 53.15 159.524 53.21C159.652 53.27 159.754 53.378 159.83 53.534C159.91 53.686 159.95 53.908 159.95 54.2V56H159.41V54.2C159.41 53.9 159.368 53.69 159.284 53.57C159.2 53.45 159.082 53.39 158.93 53.39C158.814 53.39 158.694 53.432 158.57 53.516C158.446 53.6 158.356 53.688 158.3 53.78C158.316 53.824 158.324 53.89 158.324 53.978C158.328 54.066 158.33 54.14 158.33 54.2V56H157.79V54.2C157.79 53.9 157.748 53.69 157.664 53.57C157.58 53.45 157.462 53.39 157.31 53.39C157.19 53.39 157.078 53.422 156.974 53.486C156.874 53.55 156.786 53.624 156.71 53.708V56H156.17ZM160.881 56V53.9C160.881 53.72 160.855 53.576 160.803 53.468C160.755 53.356 160.641 53.3 160.461 53.3H160.341V53.18H160.881C161.033 53.18 161.147 53.202 161.223 53.246C161.303 53.286 161.359 53.344 161.391 53.42H161.421C161.497 53.344 161.601 53.276 161.733 53.216C161.865 53.152 162.021 53.12 162.201 53.12C162.305 53.12 162.401 53.132 162.489 53.156C162.581 53.18 162.663 53.222 162.735 53.282C162.811 53.342 162.873 53.428 162.921 53.54C163.025 53.404 163.159 53.3 163.323 53.228C163.487 53.156 163.653 53.12 163.821 53.12C163.973 53.12 164.111 53.15 164.235 53.21C164.363 53.27 164.465 53.378 164.541 53.534C164.621 53.686 164.661 53.908 164.661 54.2V56H164.121V54.2C164.121 53.9 164.079 53.69 163.995 53.57C163.911 53.45 163.793 53.39 163.641 53.39C163.525 53.39 163.405 53.432 163.281 53.516C163.157 53.6 163.067 53.688 163.011 53.78C163.027 53.824 163.035 53.89 163.035 53.978C163.039 54.066 163.041 54.14 163.041 54.2V56H162.501V54.2C162.501 53.9 162.459 53.69 162.375 53.57C162.291 53.45 162.173 53.39 162.021 53.39C161.901 53.39 161.789 53.422 161.685 53.486C161.585 53.55 161.497 53.624 161.421 53.708V56H160.881ZM165.592 56V53.9C165.592 53.72 165.566 53.576 165.514 53.468C165.466 53.356 165.352 53.3 165.172 53.3H165.052V53.18H165.592C165.732 53.18 165.84 53.198 165.916 53.234C165.996 53.27 166.052 53.34 166.084 53.444C166.116 53.548 166.132 53.7 166.132 53.9V56H165.592ZM165.82 52.82C165.728 52.82 165.648 52.782 165.58 52.706C165.516 52.63 165.484 52.54 165.484 52.436C165.484 52.352 165.508 52.286 165.556 52.238C165.608 52.19 165.676 52.166 165.76 52.166C165.852 52.166 165.93 52.204 165.994 52.28C166.062 52.356 166.096 52.446 166.096 52.55C166.096 52.634 166.07 52.7 166.018 52.748C165.97 52.796 165.904 52.82 165.82 52.82ZM167.069 56V53.9C167.069 53.72 167.043 53.576 166.991 53.468C166.943 53.356 166.829 53.3 166.649 53.3H166.529V53.18H167.069C167.221 53.18 167.335 53.202 167.411 53.246C167.491 53.286 167.547 53.344 167.579 53.42C167.659 53.352 167.769 53.286 167.909 53.222C168.049 53.154 168.209 53.12 168.389 53.12C168.561 53.12 168.723 53.15 168.875 53.21C169.031 53.27 169.159 53.378 169.259 53.534C169.359 53.686 169.409 53.908 169.409 54.2V56H168.869V54.2C168.869 54 168.837 53.842 168.773 53.726C168.709 53.606 168.627 53.52 168.527 53.468C168.427 53.416 168.321 53.39 168.209 53.39C168.089 53.39 167.977 53.422 167.873 53.486C167.773 53.55 167.685 53.624 167.609 53.708V56H167.069ZM171.287 57.2C171.039 57.2 170.815 57.17 170.615 57.11C170.415 57.05 170.257 56.952 170.141 56.816C170.025 56.68 169.967 56.498 169.967 56.27C169.967 56.138 169.997 56.022 170.057 55.922C170.117 55.818 170.197 55.73 170.297 55.658C170.397 55.586 170.507 55.53 170.627 55.49C170.567 55.458 170.511 55.414 170.459 55.358C170.411 55.298 170.387 55.222 170.387 55.13C170.387 55.038 170.411 54.968 170.459 54.92C170.507 54.872 170.553 54.832 170.597 54.8C170.477 54.74 170.371 54.644 170.279 54.512C170.191 54.38 170.147 54.216 170.147 54.02C170.147 53.788 170.197 53.608 170.297 53.48C170.401 53.348 170.539 53.256 170.711 53.204C170.887 53.148 171.079 53.12 171.287 53.12H172.397V53.27L172.007 53.33C172.119 53.398 172.217 53.492 172.301 53.612C172.385 53.732 172.427 53.868 172.427 54.02C172.427 54.248 172.375 54.428 172.271 54.56C172.171 54.692 172.035 54.786 171.863 54.842C171.691 54.894 171.499 54.92 171.287 54.92C171.079 54.92 170.921 54.938 170.813 54.974C170.709 55.01 170.657 55.062 170.657 55.13C170.657 55.198 170.709 55.25 170.813 55.286C170.921 55.322 171.079 55.34 171.287 55.34C171.527 55.34 171.747 55.372 171.947 55.436C172.147 55.5 172.307 55.6 172.427 55.736C172.547 55.872 172.607 56.05 172.607 56.27C172.607 56.498 172.549 56.68 172.433 56.816C172.317 56.952 172.159 57.05 171.959 57.11C171.759 57.17 171.535 57.2 171.287 57.2ZM171.287 56.96C171.515 56.96 171.701 56.904 171.845 56.792C171.993 56.684 172.067 56.51 172.067 56.27C172.067 56.07 172.007 55.912 171.887 55.796C171.767 55.68 171.587 55.608 171.347 55.58L171.017 55.55C170.865 55.61 170.741 55.696 170.645 55.808C170.553 55.92 170.507 56.074 170.507 56.27C170.507 56.51 170.579 56.684 170.723 56.792C170.871 56.904 171.059 56.96 171.287 56.96ZM171.287 54.71C171.451 54.71 171.591 54.66 171.707 54.56C171.827 54.456 171.887 54.276 171.887 54.02C171.887 53.78 171.829 53.606 171.713 53.498C171.597 53.386 171.455 53.33 171.287 53.33C171.123 53.33 170.981 53.382 170.861 53.486C170.745 53.586 170.687 53.764 170.687 54.02C170.687 54.276 170.745 54.456 170.861 54.56C170.981 54.66 171.123 54.71 171.287 54.71ZM67.782 65.06C67.558 65.06 67.382 65.024 67.254 64.952C67.126 64.88 67.032 64.806 66.972 64.73H66.942L66.732 65H66.432V61.76C66.432 61.58 66.406 61.436 66.354 61.328C66.306 61.216 66.192 61.16 66.012 61.16H65.892V61.04H66.432C66.572 61.04 66.68 61.058 66.756 61.094C66.836 61.13 66.892 61.2 66.924 61.304C66.956 61.408 66.972 61.56 66.972 61.76V62.3C67.064 62.256 67.17 62.216 67.29 62.18C67.41 62.14 67.554 62.12 67.722 62.12C67.982 62.12 68.196 62.186 68.364 62.318C68.532 62.45 68.656 62.628 68.736 62.852C68.82 63.072 68.862 63.318 68.862 63.59C68.862 63.858 68.822 64.104 68.742 64.328C68.662 64.552 68.542 64.73 68.382 64.862C68.222 64.994 68.022 65.06 67.782 65.06ZM67.602 64.82C67.762 64.82 67.892 64.766 67.992 64.658C68.096 64.546 68.172 64.398 68.22 64.214C68.268 64.026 68.292 63.818 68.292 63.59C68.292 63.358 68.266 63.15 68.214 62.966C68.166 62.782 68.086 62.636 67.974 62.528C67.866 62.416 67.722 62.36 67.542 62.36C67.45 62.36 67.354 62.38 67.254 62.42C67.158 62.456 67.064 62.496 66.972 62.54V64.46C67.032 64.552 67.11 64.636 67.206 64.712C67.306 64.784 67.438 64.82 67.602 64.82ZM69.6827 66.2V66.02C69.8667 66.02 70.0227 65.978 70.1507 65.894C70.2827 65.814 70.3967 65.646 70.4927 65.39L70.6127 65.06L69.6527 62.72C69.5927 62.568 69.5047 62.454 69.3887 62.378C69.2767 62.302 69.1447 62.256 68.9927 62.24V62.12H69.5027C69.6827 62.12 69.8307 62.162 69.9467 62.246C70.0667 62.33 70.1587 62.448 70.2227 62.6L70.9067 64.262L71.6627 62.18H71.9627L70.7927 65.39C70.7127 65.61 70.6267 65.778 70.5347 65.894C70.4467 66.01 70.3467 66.09 70.2347 66.134C70.1267 66.178 70.0027 66.2 69.8627 66.2H69.6827ZM75.0088 65.06C74.7688 65.06 74.5728 65.04 74.4208 65C74.2688 64.956 74.1548 64.896 74.0788 64.82C74.0028 64.744 73.9588 64.658 73.9468 64.562C73.9348 64.466 73.9288 64.342 73.9288 64.19H74.0488C74.0808 64.386 74.1648 64.54 74.3008 64.652C74.4368 64.764 74.6328 64.82 74.8888 64.82C75.1168 64.82 75.2828 64.78 75.3868 64.7C75.4948 64.62 75.5488 64.52 75.5488 64.4C75.5488 64.28 75.5028 64.18 75.4108 64.1C75.3228 64.016 75.1888 63.936 75.0088 63.86L74.6488 63.71C74.4208 63.618 74.2428 63.51 74.1148 63.386C73.9908 63.258 73.9288 63.096 73.9288 62.9C73.9288 62.648 74.0228 62.456 74.2108 62.324C74.3988 62.188 74.6348 62.12 74.9188 62.12C75.1468 62.12 75.3348 62.142 75.4828 62.186C75.6308 62.226 75.7428 62.284 75.8188 62.36C75.8948 62.436 75.9388 62.522 75.9508 62.618C75.9628 62.714 75.9688 62.838 75.9688 62.99H75.8488C75.8168 62.794 75.7328 62.64 75.5968 62.528C75.4648 62.416 75.2788 62.36 75.0388 62.36C74.8428 62.36 74.6928 62.4 74.5888 62.48C74.4888 62.56 74.4388 62.66 74.4388 62.78C74.4388 62.884 74.4808 62.98 74.5648 63.068C74.6488 63.152 74.7668 63.226 74.9188 63.29L75.2788 63.44C75.5348 63.544 75.7288 63.658 75.8608 63.782C75.9928 63.906 76.0588 64.072 76.0588 64.28C76.0588 64.532 75.9588 64.726 75.7588 64.862C75.5588 64.994 75.3088 65.06 75.0088 65.06ZM76.8345 65V62.9C76.8345 62.72 76.8085 62.576 76.7565 62.468C76.7085 62.356 76.5945 62.3 76.4145 62.3H76.2945V62.18H76.8345C76.9745 62.18 77.0825 62.198 77.1585 62.234C77.2385 62.27 77.2945 62.34 77.3265 62.444C77.3585 62.548 77.3745 62.7 77.3745 62.9V65H76.8345ZM77.0625 61.82C76.9705 61.82 76.8905 61.782 76.8225 61.706C76.7585 61.63 76.7265 61.54 76.7265 61.436C76.7265 61.352 76.7505 61.286 76.7985 61.238C76.8505 61.19 76.9185 61.166 77.0025 61.166C77.0945 61.166 77.1725 61.204 77.2365 61.28C77.3045 61.356 77.3385 61.446 77.3385 61.55C77.3385 61.634 77.3125 61.7 77.2605 61.748C77.2125 61.796 77.1465 61.82 77.0625 61.82ZM78.3111 65V62.9C78.3111 62.72 78.2851 62.576 78.2331 62.468C78.1851 62.356 78.0711 62.3 77.8911 62.3H77.7711V62.18H78.3111C78.4631 62.18 78.5771 62.202 78.6531 62.246C78.7331 62.286 78.7891 62.344 78.8211 62.42C78.9011 62.352 79.0111 62.286 79.1511 62.222C79.2911 62.154 79.4511 62.12 79.6311 62.12C79.8031 62.12 79.9651 62.15 80.1171 62.21C80.2731 62.27 80.4011 62.378 80.5011 62.534C80.6011 62.686 80.6511 62.908 80.6511 63.2V65H80.1111V63.2C80.1111 63 80.0791 62.842 80.0151 62.726C79.9511 62.606 79.8691 62.52 79.7691 62.468C79.6691 62.416 79.5631 62.39 79.4511 62.39C79.3311 62.39 79.2191 62.422 79.1151 62.486C79.0151 62.55 78.9271 62.624 78.8511 62.708V65H78.3111ZM82.4267 65.06C82.1867 65.06 81.9907 65.04 81.8387 65C81.6867 64.956 81.5727 64.896 81.4967 64.82C81.4207 64.744 81.3767 64.658 81.3647 64.562C81.3527 64.466 81.3467 64.342 81.3467 64.19H81.4667C81.4987 64.386 81.5827 64.54 81.7187 64.652C81.8547 64.764 82.0507 64.82 82.3067 64.82C82.5347 64.82 82.7007 64.78 82.8047 64.7C82.9127 64.62 82.9667 64.52 82.9667 64.4C82.9667 64.28 82.9207 64.18 82.8287 64.1C82.7407 64.016 82.6067 63.936 82.4267 63.86L82.0667 63.71C81.8387 63.618 81.6607 63.51 81.5327 63.386C81.4087 63.258 81.3467 63.096 81.3467 62.9C81.3467 62.648 81.4407 62.456 81.6287 62.324C81.8167 62.188 82.0527 62.12 82.3367 62.12C82.5647 62.12 82.7527 62.142 82.9007 62.186C83.0487 62.226 83.1607 62.284 83.2367 62.36C83.3127 62.436 83.3567 62.522 83.3687 62.618C83.3807 62.714 83.3867 62.838 83.3867 62.99H83.2667C83.2347 62.794 83.1507 62.64 83.0147 62.528C82.8827 62.416 82.6967 62.36 82.4567 62.36C82.2607 62.36 82.1107 62.4 82.0067 62.48C81.9067 62.56 81.8567 62.66 81.8567 62.78C81.8567 62.884 81.8987 62.98 81.9827 63.068C82.0667 63.152 82.1847 63.226 82.3367 63.29L82.6967 63.44C82.9527 63.544 83.1467 63.658 83.2787 63.782C83.4107 63.906 83.4767 64.072 83.4767 64.28C83.4767 64.532 83.3767 64.726 83.1767 64.862C82.9767 64.994 82.7267 65.06 82.4267 65.06ZM86.2925 65.06C86.1405 65.06 85.9905 65.026 85.8425 64.958C85.6985 64.886 85.5585 64.76 85.4225 64.58L84.7025 63.62V65H84.1625V61.76C84.1625 61.58 84.1365 61.436 84.0845 61.328C84.0365 61.216 83.9225 61.16 83.7425 61.16H83.6225V61.04H84.1625C84.3025 61.04 84.4105 61.058 84.4865 61.094C84.5665 61.13 84.6225 61.2 84.6545 61.304C84.6865 61.408 84.7025 61.56 84.7025 61.76V63.53L85.4525 62.57C85.5445 62.454 85.6485 62.36 85.7645 62.288C85.8805 62.216 86.0365 62.18 86.2325 62.18H86.4125V62.33C86.3085 62.33 86.2065 62.352 86.1065 62.396C86.0065 62.44 85.9185 62.508 85.8425 62.6L85.1825 63.44L85.9325 64.4C86.0485 64.552 86.1565 64.666 86.2565 64.742C86.3605 64.818 86.4725 64.866 86.5925 64.886V65C86.5605 65.016 86.5165 65.03 86.4605 65.042C86.4085 65.054 86.3525 65.06 86.2925 65.06ZM87.1646 65V62.9C87.1646 62.72 87.1386 62.576 87.0866 62.468C87.0386 62.356 86.9246 62.3 86.7446 62.3H86.6246V62.18H87.1646C87.3046 62.18 87.4126 62.198 87.4886 62.234C87.5686 62.27 87.6246 62.34 87.6566 62.444C87.6886 62.548 87.7046 62.7 87.7046 62.9V65H87.1646ZM87.3926 61.82C87.3006 61.82 87.2206 61.782 87.1526 61.706C87.0886 61.63 87.0566 61.54 87.0566 61.436C87.0566 61.352 87.0806 61.286 87.1286 61.238C87.1806 61.19 87.2486 61.166 87.3326 61.166C87.4246 61.166 87.5026 61.204 87.5666 61.28C87.6346 61.356 87.6686 61.446 87.6686 61.55C87.6686 61.634 87.6426 61.7 87.5906 61.748C87.5426 61.796 87.4766 61.82 87.3926 61.82ZM88.7491 66.2V66.02C88.9331 66.02 89.0891 65.978 89.2171 65.894C89.3491 65.814 89.4631 65.646 89.5591 65.39L89.6791 65.06L88.7191 62.72C88.6591 62.568 88.5711 62.454 88.4551 62.378C88.3431 62.302 88.2111 62.256 88.0591 62.24V62.12H88.5691C88.7491 62.12 88.8971 62.162 89.0131 62.246C89.1331 62.33 89.2251 62.448 89.2891 62.6L89.9731 64.262L90.7291 62.18H91.0291L89.8591 65.39C89.7791 65.61 89.6931 65.778 89.6011 65.894C89.5131 66.01 89.4131 66.09 89.3011 66.134C89.1931 66.178 89.0691 66.2 88.9291 66.2H88.7491ZM91.6561 65.084C91.5681 65.084 91.4921 65.052 91.4281 64.988C91.3641 64.924 91.3321 64.846 91.3321 64.754C91.3321 64.666 91.3641 64.59 91.4281 64.526C91.4921 64.462 91.5681 64.43 91.6561 64.43C91.7481 64.43 91.8241 64.462 91.8841 64.526C91.9481 64.59 91.9801 64.666 91.9801 64.754C91.9801 64.846 91.9481 64.924 91.8841 64.988C91.8201 65.052 91.7441 65.084 91.6561 65.084ZM93.5338 65.06L92.6038 62.87C92.5078 62.646 92.4158 62.49 92.3278 62.402C92.2398 62.31 92.1238 62.26 91.9798 62.252V62.132C91.9958 62.132 92.0258 62.13 92.0698 62.126C92.1178 62.122 92.1558 62.12 92.1838 62.12C92.3078 62.12 92.4298 62.14 92.5498 62.18C92.6738 62.216 92.7918 62.288 92.9038 62.396C93.0158 62.504 93.1158 62.662 93.2038 62.87L93.7438 64.16L94.5838 62.18H94.8838L93.6538 65.06H93.5338ZM96.4753 65.06C96.1953 65.06 95.9613 64.994 95.7733 64.862C95.5893 64.73 95.4493 64.552 95.3533 64.328C95.2613 64.104 95.2153 63.858 95.2153 63.59C95.2153 63.318 95.2633 63.072 95.3593 62.852C95.4553 62.628 95.5933 62.45 95.7733 62.318C95.9533 62.186 96.1673 62.12 96.4153 62.12C96.6873 62.12 96.9113 62.172 97.0873 62.276C97.2673 62.376 97.3993 62.524 97.4833 62.72C97.5713 62.916 97.6153 63.156 97.6153 63.44L97.6033 63.68H95.7853C95.7853 64.008 95.8553 64.28 95.9953 64.496C96.1393 64.712 96.3393 64.82 96.5953 64.82C96.7913 64.82 96.9533 64.778 97.0813 64.694C97.2133 64.61 97.3313 64.492 97.4353 64.34L97.5553 64.43C97.4673 64.582 97.3673 64.704 97.2553 64.796C97.1473 64.888 97.0273 64.956 96.8953 65C96.7673 65.04 96.6273 65.06 96.4753 65.06ZM95.7853 63.44H97.0453C97.0453 63.092 96.9933 62.826 96.8893 62.642C96.7853 62.454 96.6273 62.36 96.4153 62.36C96.2953 62.36 96.1873 62.408 96.0913 62.504C95.9993 62.596 95.9253 62.724 95.8693 62.888C95.8133 63.048 95.7853 63.232 95.7853 63.44ZM98.355 65V62.9C98.355 62.72 98.329 62.576 98.277 62.468C98.229 62.356 98.115 62.3 97.935 62.3H97.875V62.18H98.355C98.507 62.18 98.621 62.202 98.697 62.246C98.777 62.29 98.833 62.358 98.865 62.45C98.933 62.382 99.031 62.31 99.159 62.234C99.291 62.158 99.443 62.12 99.615 62.12C99.675 62.12 99.739 62.128 99.807 62.144C99.875 62.156 99.931 62.178 99.975 62.21C100.019 62.242 100.057 62.28 100.089 62.324C100.121 62.368 100.153 62.42 100.185 62.48L99.945 62.66C99.901 62.6 99.835 62.556 99.747 62.528C99.663 62.496 99.569 62.48 99.465 62.48C99.345 62.48 99.235 62.508 99.135 62.564C99.035 62.616 98.955 62.688 98.895 62.78C98.895 62.8 98.895 62.83 98.895 62.87C98.895 62.906 98.895 62.936 98.895 62.96V65H98.355ZM101.797 65.06C101.501 65.06 101.255 64.994 101.059 64.862C100.863 64.73 100.717 64.552 100.621 64.328C100.525 64.104 100.477 63.858 100.477 63.59C100.477 63.318 100.525 63.072 100.621 62.852C100.717 62.628 100.863 62.45 101.059 62.318C101.255 62.186 101.501 62.12 101.797 62.12C102.009 62.12 102.187 62.136 102.331 62.168C102.479 62.2 102.591 62.254 102.667 62.33C102.743 62.406 102.787 62.5 102.799 62.612C102.811 62.72 102.817 62.886 102.817 63.11H102.697C102.681 62.854 102.599 62.666 102.451 62.546C102.307 62.422 102.129 62.36 101.917 62.36C101.717 62.36 101.553 62.416 101.425 62.528C101.297 62.636 101.201 62.782 101.137 62.966C101.077 63.15 101.047 63.358 101.047 63.59C101.047 63.818 101.077 64.026 101.137 64.214C101.201 64.398 101.297 64.546 101.425 64.658C101.553 64.766 101.717 64.82 101.917 64.82C102.129 64.82 102.301 64.778 102.433 64.694C102.565 64.61 102.683 64.492 102.787 64.34L102.907 64.43C102.819 64.582 102.719 64.704 102.607 64.796C102.495 64.888 102.371 64.956 102.235 65C102.103 65.04 101.957 65.06 101.797 65.06ZM104.637 65.06C104.357 65.06 104.123 64.994 103.935 64.862C103.751 64.73 103.611 64.552 103.515 64.328C103.423 64.104 103.377 63.858 103.377 63.59C103.377 63.318 103.425 63.072 103.521 62.852C103.617 62.628 103.755 62.45 103.935 62.318C104.115 62.186 104.329 62.12 104.577 62.12C104.849 62.12 105.073 62.172 105.249 62.276C105.429 62.376 105.561 62.524 105.645 62.72C105.733 62.916 105.777 63.156 105.777 63.44L105.765 63.68H103.947C103.947 64.008 104.017 64.28 104.157 64.496C104.301 64.712 104.501 64.82 104.757 64.82C104.953 64.82 105.115 64.778 105.243 64.694C105.375 64.61 105.493 64.492 105.597 64.34L105.717 64.43C105.629 64.582 105.529 64.704 105.417 64.796C105.309 64.888 105.189 64.956 105.057 65C104.929 65.04 104.789 65.06 104.637 65.06ZM103.947 63.44H105.207C105.207 63.092 105.155 62.826 105.051 62.642C104.947 62.454 104.789 62.36 104.577 62.36C104.457 62.36 104.349 62.408 104.253 62.504C104.161 62.596 104.087 62.724 104.031 62.888C103.975 63.048 103.947 63.232 103.947 63.44ZM106.493 65V61.76C106.493 61.58 106.467 61.436 106.415 61.328C106.367 61.216 106.253 61.16 106.073 61.16H105.953V61.04H106.493C106.633 61.04 106.741 61.058 106.817 61.094C106.897 61.13 106.953 61.2 106.985 61.304C107.017 61.408 107.033 61.56 107.033 61.76V65H106.493ZM108.15 65.084C108.062 65.084 107.986 65.052 107.922 64.988C107.858 64.924 107.826 64.846 107.826 64.754C107.826 64.666 107.858 64.59 107.922 64.526C107.986 64.462 108.062 64.43 108.15 64.43C108.242 64.43 108.318 64.462 108.378 64.526C108.442 64.59 108.474 64.666 108.474 64.754C108.474 64.846 108.442 64.924 108.378 64.988C108.314 65.052 108.238 65.084 108.15 65.084ZM109.913 65.06C109.829 65.06 109.737 65.046 109.637 65.018C109.541 64.994 109.447 64.95 109.355 64.886C109.263 64.822 109.187 64.736 109.127 64.628C109.071 64.52 109.043 64.384 109.043 64.22C109.043 64 109.113 63.83 109.253 63.71C109.397 63.59 109.585 63.506 109.817 63.458C110.053 63.406 110.305 63.38 110.573 63.38H110.753C110.753 63.1 110.725 62.888 110.669 62.744C110.613 62.596 110.537 62.496 110.441 62.444C110.349 62.388 110.243 62.36 110.123 62.36C109.955 62.36 109.813 62.396 109.697 62.468C109.585 62.54 109.507 62.674 109.463 62.87H109.193C109.193 62.766 109.199 62.67 109.211 62.582C109.223 62.49 109.267 62.406 109.343 62.33C109.419 62.254 109.543 62.2 109.715 62.168C109.887 62.136 110.063 62.12 110.243 62.12C110.379 62.12 110.509 62.136 110.633 62.168C110.761 62.2 110.873 62.26 110.969 62.348C111.069 62.432 111.147 62.558 111.203 62.726C111.263 62.89 111.293 63.108 111.293 63.38V65H110.993L110.783 64.73H110.753C110.693 64.806 110.595 64.88 110.459 64.952C110.323 65.024 110.141 65.06 109.913 65.06ZM110.183 64.79C110.331 64.79 110.447 64.754 110.531 64.682C110.619 64.606 110.693 64.522 110.753 64.43V63.62H110.573C110.273 63.62 110.037 63.676 109.865 63.788C109.697 63.896 109.613 64.04 109.613 64.22C109.613 64.416 109.671 64.56 109.787 64.652C109.903 64.744 110.035 64.79 110.183 64.79ZM112.219 66.14V62.9C112.219 62.72 112.193 62.576 112.141 62.468C112.093 62.356 111.979 62.3 111.799 62.3H111.679V62.18H112.219C112.371 62.18 112.485 62.202 112.561 62.246C112.641 62.29 112.697 62.358 112.729 62.45C112.809 62.37 112.917 62.296 113.053 62.228C113.189 62.156 113.361 62.12 113.569 62.12C113.809 62.12 114.009 62.186 114.169 62.318C114.329 62.45 114.449 62.628 114.529 62.852C114.609 63.072 114.649 63.318 114.649 63.59C114.649 63.858 114.607 64.104 114.523 64.328C114.443 64.552 114.319 64.73 114.151 64.862C113.983 64.994 113.769 65.06 113.509 65.06C113.341 65.06 113.197 65.04 113.077 65C112.957 64.964 112.851 64.924 112.759 64.88V66.14H112.219ZM113.329 64.82C113.509 64.82 113.653 64.766 113.761 64.658C113.873 64.546 113.953 64.398 114.001 64.214C114.053 64.026 114.079 63.818 114.079 63.59C114.079 63.358 114.055 63.15 114.007 62.966C113.959 62.782 113.883 62.636 113.779 62.528C113.679 62.416 113.549 62.36 113.389 62.36C113.225 62.36 113.093 62.398 112.993 62.474C112.893 62.546 112.815 62.628 112.759 62.72V64.64C112.851 64.684 112.945 64.726 113.041 64.766C113.141 64.802 113.237 64.82 113.329 64.82ZM115.448 66.14V62.9C115.448 62.72 115.422 62.576 115.37 62.468C115.322 62.356 115.208 62.3 115.028 62.3H114.908V62.18H115.448C115.6 62.18 115.714 62.202 115.79 62.246C115.87 62.29 115.926 62.358 115.958 62.45C116.038 62.37 116.146 62.296 116.282 62.228C116.418 62.156 116.59 62.12 116.798 62.12C117.038 62.12 117.238 62.186 117.398 62.318C117.558 62.45 117.678 62.628 117.758 62.852C117.838 63.072 117.878 63.318 117.878 63.59C117.878 63.858 117.836 64.104 117.752 64.328C117.672 64.552 117.548 64.73 117.38 64.862C117.212 64.994 116.998 65.06 116.738 65.06C116.57 65.06 116.426 65.04 116.306 65C116.186 64.964 116.08 64.924 115.988 64.88V66.14H115.448ZM116.558 64.82C116.738 64.82 116.882 64.766 116.99 64.658C117.102 64.546 117.182 64.398 117.23 64.214C117.282 64.026 117.308 63.818 117.308 63.59C117.308 63.358 117.284 63.15 117.236 62.966C117.188 62.782 117.112 62.636 117.008 62.528C116.908 62.416 116.778 62.36 116.618 62.36C116.454 62.36 116.322 62.398 116.222 62.474C116.122 62.546 116.044 62.628 115.988 62.72V64.64C116.08 64.684 116.174 64.726 116.27 64.766C116.37 64.802 116.466 64.82 116.558 64.82ZM121.166 65.12C120.886 65.12 120.652 65.078 120.464 64.994C120.28 64.91 120.14 64.796 120.044 64.652C119.952 64.504 119.906 64.34 119.906 64.16C119.906 63.992 119.946 63.844 120.026 63.716C120.11 63.588 120.218 63.472 120.35 63.368C120.482 63.26 120.62 63.152 120.764 63.044C120.692 62.976 120.618 62.902 120.542 62.822C120.47 62.738 120.404 62.646 120.344 62.546C120.284 62.446 120.236 62.34 120.2 62.228C120.164 62.112 120.146 61.988 120.146 61.856C120.146 61.568 120.242 61.34 120.434 61.172C120.63 61.004 120.894 60.92 121.226 60.92C121.542 60.92 121.786 61 121.958 61.16C122.13 61.32 122.216 61.52 122.216 61.76C122.216 61.944 122.174 62.106 122.09 62.246C122.01 62.386 121.904 62.514 121.772 62.63C121.64 62.742 121.496 62.852 121.34 62.96L122.546 64.28C122.63 64.188 122.704 64.098 122.768 64.01C122.836 63.922 122.894 63.842 122.942 63.77C122.97 63.726 122.996 63.686 123.02 63.65C123.044 63.61 123.066 63.57 123.086 63.53L123.206 63.62C123.19 63.66 123.17 63.702 123.146 63.746C123.126 63.786 123.102 63.828 123.074 63.872C123.03 63.948 122.974 64.034 122.906 64.13C122.838 64.226 122.76 64.322 122.672 64.418L123.206 65H122.546L122.306 64.742C122.21 64.814 122.104 64.878 121.988 64.934C121.872 64.99 121.746 65.034 121.61 65.066C121.474 65.102 121.326 65.12 121.166 65.12ZM121.28 64.91C121.464 64.91 121.63 64.882 121.778 64.826C121.926 64.77 122.06 64.696 122.18 64.604L120.944 63.254C120.808 63.37 120.696 63.496 120.608 63.632C120.52 63.764 120.476 63.92 120.476 64.1C120.476 64.368 120.542 64.57 120.674 64.706C120.81 64.842 121.012 64.91 121.28 64.91ZM121.154 62.75C121.306 62.622 121.436 62.486 121.544 62.342C121.652 62.194 121.706 62.02 121.706 61.82C121.706 61.648 121.68 61.512 121.628 61.412C121.58 61.312 121.518 61.24 121.442 61.196C121.37 61.152 121.298 61.13 121.226 61.13C121.146 61.13 121.066 61.154 120.986 61.202C120.91 61.246 120.846 61.32 120.794 61.424C120.742 61.528 120.716 61.672 120.716 61.856C120.716 61.976 120.736 62.088 120.776 62.192C120.816 62.296 120.864 62.39 120.92 62.474C120.976 62.554 121.026 62.618 121.07 62.666C121.114 62.714 121.142 62.742 121.154 62.75ZM126.472 65.12C126.172 65.12 125.902 65.066 125.662 64.958C125.422 64.85 125.212 64.654 125.032 64.37L125.152 64.28C125.244 64.4 125.348 64.506 125.464 64.598C125.58 64.686 125.714 64.756 125.866 64.808C126.018 64.856 126.19 64.88 126.382 64.88C126.698 64.88 126.952 64.804 127.144 64.652C127.336 64.5 127.432 64.286 127.432 64.01C127.432 63.722 127.336 63.5 127.144 63.344C126.952 63.188 126.668 63.11 126.292 63.11H125.842V62.87H126.292C126.472 62.87 126.64 62.838 126.796 62.774C126.952 62.706 127.076 62.608 127.168 62.48C127.264 62.348 127.312 62.188 127.312 62C127.312 61.808 127.268 61.65 127.18 61.526C127.092 61.402 126.98 61.31 126.844 61.25C126.708 61.19 126.564 61.16 126.412 61.16C126.124 61.16 125.88 61.246 125.68 61.418C125.484 61.586 125.348 61.82 125.272 62.12H125.152C125.152 61.94 125.158 61.788 125.17 61.664C125.182 61.54 125.226 61.432 125.302 61.34C125.374 61.252 125.472 61.178 125.596 61.118C125.724 61.054 125.862 61.006 126.01 60.974C126.162 60.938 126.306 60.92 126.442 60.92C126.594 60.92 126.752 60.934 126.916 60.962C127.084 60.986 127.24 61.038 127.384 61.118C127.532 61.194 127.652 61.306 127.744 61.454C127.836 61.598 127.882 61.79 127.882 62.03C127.882 62.158 127.852 62.282 127.792 62.402C127.732 62.522 127.64 62.63 127.516 62.726C127.392 62.818 127.234 62.896 127.042 62.96C127.294 63.008 127.492 63.08 127.636 63.176C127.78 63.272 127.882 63.388 127.942 63.524C128.002 63.66 128.032 63.812 128.032 63.98C128.032 64.212 127.982 64.402 127.882 64.55C127.786 64.698 127.658 64.814 127.498 64.898C127.342 64.982 127.172 65.04 126.988 65.072C126.808 65.104 126.636 65.12 126.472 65.12ZM129.377 65.06C129.293 65.06 129.201 65.046 129.101 65.018C129.005 64.994 128.911 64.95 128.819 64.886C128.727 64.822 128.651 64.736 128.591 64.628C128.535 64.52 128.507 64.384 128.507 64.22C128.507 64 128.577 63.83 128.717 63.71C128.861 63.59 129.049 63.506 129.281 63.458C129.517 63.406 129.769 63.38 130.037 63.38H130.217C130.217 63.1 130.189 62.888 130.133 62.744C130.077 62.596 130.001 62.496 129.905 62.444C129.813 62.388 129.707 62.36 129.587 62.36C129.419 62.36 129.277 62.396 129.161 62.468C129.049 62.54 128.971 62.674 128.927 62.87H128.657C128.657 62.766 128.663 62.67 128.675 62.582C128.687 62.49 128.731 62.406 128.807 62.33C128.883 62.254 129.007 62.2 129.179 62.168C129.351 62.136 129.527 62.12 129.707 62.12C129.843 62.12 129.973 62.136 130.097 62.168C130.225 62.2 130.337 62.26 130.433 62.348C130.533 62.432 130.611 62.558 130.667 62.726C130.727 62.89 130.757 63.108 130.757 63.38V65H130.457L130.247 64.73H130.217C130.157 64.806 130.059 64.88 129.923 64.952C129.787 65.024 129.605 65.06 129.377 65.06ZM129.647 64.79C129.795 64.79 129.911 64.754 129.995 64.682C130.083 64.606 130.157 64.522 130.217 64.43V63.62H130.037C129.737 63.62 129.501 63.676 129.329 63.788C129.161 63.896 129.077 64.04 129.077 64.22C129.077 64.416 129.135 64.56 129.251 64.652C129.367 64.744 129.499 64.79 129.647 64.79ZM131.654 65V62.9C131.654 62.72 131.628 62.576 131.576 62.468C131.528 62.356 131.414 62.3 131.234 62.3H131.174V62.18H133.934V65H133.394V62.42H132.194V65H131.654ZM134.883 65V62.9C134.883 62.72 134.857 62.576 134.805 62.468C134.757 62.356 134.643 62.3 134.463 62.3H134.373V62.18H134.883C135.023 62.18 135.131 62.198 135.207 62.234C135.287 62.27 135.343 62.34 135.375 62.444C135.407 62.548 135.423 62.7 135.423 62.9V64.46L136.683 62.18H137.223V65H136.683V62.72L135.423 65H134.883ZM139.244 65.06C138.948 65.06 138.702 64.994 138.506 64.862C138.31 64.73 138.164 64.552 138.068 64.328C137.972 64.104 137.924 63.858 137.924 63.59C137.924 63.318 137.972 63.072 138.068 62.852C138.164 62.628 138.31 62.45 138.506 62.318C138.702 62.186 138.948 62.12 139.244 62.12C139.456 62.12 139.634 62.136 139.778 62.168C139.926 62.2 140.038 62.254 140.114 62.33C140.19 62.406 140.234 62.5 140.246 62.612C140.258 62.72 140.264 62.886 140.264 63.11H140.144C140.128 62.854 140.046 62.666 139.898 62.546C139.754 62.422 139.576 62.36 139.364 62.36C139.164 62.36 139 62.416 138.872 62.528C138.744 62.636 138.648 62.782 138.584 62.966C138.524 63.15 138.494 63.358 138.494 63.59C138.494 63.818 138.524 64.026 138.584 64.214C138.648 64.398 138.744 64.546 138.872 64.658C139 64.766 139.164 64.82 139.364 64.82C139.576 64.82 139.748 64.778 139.88 64.694C140.012 64.61 140.13 64.492 140.234 64.34L140.354 64.43C140.266 64.582 140.166 64.704 140.054 64.796C139.942 64.888 139.818 64.956 139.682 65C139.55 65.04 139.404 65.06 139.244 65.06ZM143.189 65.06C143.037 65.06 142.887 65.022 142.739 64.946C142.595 64.87 142.455 64.748 142.319 64.58L141.629 63.71V65H141.089V62.9C141.089 62.72 141.063 62.576 141.011 62.468C140.963 62.356 140.849 62.3 140.669 62.3H140.549V62.18H141.089C141.229 62.18 141.337 62.198 141.413 62.234C141.493 62.27 141.549 62.34 141.581 62.444C141.613 62.548 141.629 62.7 141.629 62.9V63.62L142.379 62.57C142.467 62.45 142.569 62.356 142.685 62.288C142.805 62.216 142.963 62.18 143.159 62.18H143.309V62.33C143.217 62.33 143.123 62.35 143.027 62.39C142.931 62.426 142.845 62.496 142.769 62.6L142.109 63.53L142.799 64.4C142.903 64.536 143.009 64.646 143.117 64.73C143.229 64.814 143.353 64.866 143.489 64.886V65C143.457 65.016 143.413 65.03 143.357 65.042C143.305 65.054 143.249 65.06 143.189 65.06ZM144.053 65V62.9C144.053 62.72 144.027 62.576 143.975 62.468C143.927 62.356 143.813 62.3 143.633 62.3H143.543V62.18H144.053C144.193 62.18 144.301 62.198 144.377 62.234C144.457 62.27 144.513 62.34 144.545 62.444C144.577 62.548 144.593 62.7 144.593 62.9V64.46L145.853 62.18H146.393V65H145.853V62.72L144.593 65H144.053ZM149.914 65.06C149.618 65.06 149.372 64.994 149.176 64.862C148.98 64.73 148.834 64.552 148.738 64.328C148.642 64.104 148.594 63.858 148.594 63.59C148.594 63.318 148.642 63.072 148.738 62.852C148.834 62.628 148.98 62.45 149.176 62.318C149.372 62.186 149.618 62.12 149.914 62.12C150.126 62.12 150.304 62.136 150.448 62.168C150.596 62.2 150.708 62.254 150.784 62.33C150.86 62.406 150.904 62.5 150.916 62.612C150.928 62.72 150.934 62.886 150.934 63.11H150.814C150.798 62.854 150.716 62.666 150.568 62.546C150.424 62.422 150.246 62.36 150.034 62.36C149.834 62.36 149.67 62.416 149.542 62.528C149.414 62.636 149.318 62.782 149.254 62.966C149.194 63.15 149.164 63.358 149.164 63.59C149.164 63.818 149.194 64.026 149.254 64.214C149.318 64.398 149.414 64.546 149.542 64.658C149.67 64.766 149.834 64.82 150.034 64.82C150.246 64.82 150.418 64.778 150.55 64.694C150.682 64.61 150.8 64.492 150.904 64.34L151.024 64.43C150.936 64.582 150.836 64.704 150.724 64.796C150.612 64.888 150.488 64.956 150.352 65C150.22 65.04 150.074 65.06 149.914 65.06ZM151.855 66.2V66.02C152.039 66.02 152.195 65.978 152.323 65.894C152.455 65.814 152.569 65.646 152.665 65.39L152.785 65.06L151.825 62.72C151.765 62.568 151.677 62.454 151.561 62.378C151.449 62.302 151.317 62.256 151.165 62.24V62.12H151.675C151.855 62.12 152.003 62.162 152.119 62.246C152.239 62.33 152.331 62.448 152.395 62.6L153.079 64.262L153.835 62.18H154.135L152.965 65.39C152.885 65.61 152.799 65.778 152.707 65.894C152.619 66.01 152.519 66.09 152.407 66.134C152.299 66.178 152.175 66.2 152.035 66.2H151.855ZM158.099 65.12C157.723 65.12 157.463 65.028 157.319 64.844C157.179 64.66 157.109 64.412 157.109 64.1V62.81L156.119 65H155.999L154.979 62.75V65H154.739V62.18H155.309L156.209 64.16L157.109 62.18H157.649V64.1C157.649 64.248 157.667 64.392 157.703 64.532C157.743 64.668 157.797 64.78 157.865 64.868C157.933 64.956 158.011 65 158.099 65V65.12ZM159.307 65.06C159.223 65.06 159.131 65.046 159.031 65.018C158.935 64.994 158.841 64.95 158.749 64.886C158.657 64.822 158.581 64.736 158.521 64.628C158.465 64.52 158.437 64.384 158.437 64.22C158.437 64 158.507 63.83 158.647 63.71C158.791 63.59 158.979 63.506 159.211 63.458C159.447 63.406 159.699 63.38 159.967 63.38H160.147C160.147 63.1 160.119 62.888 160.063 62.744C160.007 62.596 159.931 62.496 159.835 62.444C159.743 62.388 159.637 62.36 159.517 62.36C159.349 62.36 159.207 62.396 159.091 62.468C158.979 62.54 158.901 62.674 158.857 62.87H158.587C158.587 62.766 158.593 62.67 158.605 62.582C158.617 62.49 158.661 62.406 158.737 62.33C158.813 62.254 158.937 62.2 159.109 62.168C159.281 62.136 159.457 62.12 159.637 62.12C159.773 62.12 159.903 62.136 160.027 62.168C160.155 62.2 160.267 62.26 160.363 62.348C160.463 62.432 160.541 62.558 160.597 62.726C160.657 62.89 160.687 63.108 160.687 63.38V65H160.387L160.177 64.73H160.147C160.087 64.806 159.989 64.88 159.853 64.952C159.717 65.024 159.535 65.06 159.307 65.06ZM159.577 64.79C159.725 64.79 159.841 64.754 159.925 64.682C160.013 64.606 160.087 64.522 160.147 64.43V63.62H159.967C159.667 63.62 159.431 63.676 159.259 63.788C159.091 63.896 159.007 64.04 159.007 64.22C159.007 64.416 159.065 64.56 159.181 64.652C159.297 64.744 159.429 64.79 159.577 64.79ZM162.682 65.06C162.386 65.06 162.14 64.994 161.944 64.862C161.748 64.73 161.602 64.552 161.506 64.328C161.41 64.104 161.362 63.858 161.362 63.59C161.362 63.318 161.41 63.072 161.506 62.852C161.602 62.628 161.748 62.45 161.944 62.318C162.14 62.186 162.386 62.12 162.682 62.12C162.894 62.12 163.072 62.136 163.216 62.168C163.364 62.2 163.476 62.254 163.552 62.33C163.628 62.406 163.672 62.5 163.684 62.612C163.696 62.72 163.702 62.886 163.702 63.11H163.582C163.566 62.854 163.484 62.666 163.336 62.546C163.192 62.422 163.014 62.36 162.802 62.36C162.602 62.36 162.438 62.416 162.31 62.528C162.182 62.636 162.086 62.782 162.022 62.966C161.962 63.15 161.932 63.358 161.932 63.59C161.932 63.818 161.962 64.026 162.022 64.214C162.086 64.398 162.182 64.546 162.31 64.658C162.438 64.766 162.602 64.82 162.802 64.82C163.014 64.82 163.186 64.778 163.318 64.694C163.45 64.61 163.568 64.492 163.672 64.34L163.792 64.43C163.704 64.582 163.604 64.704 163.492 64.796C163.38 64.888 163.256 64.956 163.12 65C162.988 65.04 162.842 65.06 162.682 65.06ZM164.508 65V62.9C164.508 62.72 164.482 62.576 164.43 62.468C164.382 62.356 164.268 62.3 164.088 62.3H163.998V62.18H164.508C164.648 62.18 164.756 62.198 164.832 62.234C164.912 62.27 164.968 62.34 165 62.444C165.032 62.548 165.048 62.7 165.048 62.9V64.76H165.978V62.18H166.518V64.76H167.448V62.18H167.988V65H164.508ZM169.952 65.06C169.672 65.06 169.438 64.994 169.25 64.862C169.066 64.73 168.926 64.552 168.83 64.328C168.738 64.104 168.692 63.858 168.692 63.59C168.692 63.318 168.74 63.072 168.836 62.852C168.932 62.628 169.07 62.45 169.25 62.318C169.43 62.186 169.644 62.12 169.892 62.12C170.164 62.12 170.388 62.172 170.564 62.276C170.744 62.376 170.876 62.524 170.96 62.72C171.048 62.916 171.092 63.156 171.092 63.44L171.08 63.68H169.262C169.262 64.008 169.332 64.28 169.472 64.496C169.616 64.712 169.816 64.82 170.072 64.82C170.268 64.82 170.43 64.778 170.558 64.694C170.69 64.61 170.808 64.492 170.912 64.34L171.032 64.43C170.944 64.582 170.844 64.704 170.732 64.796C170.624 64.888 170.504 64.956 170.372 65C170.244 65.04 170.104 65.06 169.952 65.06ZM169.262 63.44H170.522C170.522 63.092 170.47 62.826 170.366 62.642C170.262 62.454 170.104 62.36 169.892 62.36C169.772 62.36 169.664 62.408 169.568 62.504C169.476 62.596 169.402 62.724 169.346 62.888C169.29 63.048 169.262 63.232 169.262 63.44ZM171.395 65.93V64.97C171.395 64.91 171.415 64.86 171.455 64.82C171.495 64.78 171.545 64.76 171.605 64.76H171.785C171.877 64.56 171.949 64.352 172.001 64.136C172.053 63.916 172.089 63.7 172.109 63.488C172.133 63.276 172.145 63.08 172.145 62.9C172.145 62.72 172.119 62.576 172.067 62.468C172.019 62.356 171.905 62.3 171.725 62.3V62.18H174.125V64.76H174.365C174.425 64.76 174.475 64.78 174.515 64.82C174.555 64.86 174.575 64.91 174.575 64.97V65.93H174.335C174.315 65.706 174.279 65.526 174.227 65.39C174.179 65.254 174.113 65.154 174.029 65.09C173.945 65.03 173.837 65 173.705 65H172.265C172.137 65 172.029 65.03 171.941 65.09C171.857 65.154 171.791 65.254 171.743 65.39C171.695 65.526 171.659 65.706 171.635 65.93H171.395ZM172.205 64.76H173.585V62.42H172.535C172.535 62.932 172.509 63.376 172.457 63.752C172.409 64.124 172.325 64.46 172.205 64.76ZM175.237 65V62.9C175.237 62.72 175.211 62.576 175.159 62.468C175.111 62.356 174.997 62.3 174.817 62.3H174.727V62.18H175.237C175.377 62.18 175.485 62.198 175.561 62.234C175.641 62.27 175.697 62.34 175.729 62.444C175.761 62.548 175.777 62.7 175.777 62.9V64.76H176.707V62.18H177.247V64.76H178.177V62.18H178.717V65H175.237ZM180.68 65.06C180.4 65.06 180.166 64.994 179.978 64.862C179.794 64.73 179.654 64.552 179.558 64.328C179.466 64.104 179.42 63.858 179.42 63.59C179.42 63.318 179.468 63.072 179.564 62.852C179.66 62.628 179.798 62.45 179.978 62.318C180.158 62.186 180.372 62.12 180.62 62.12C180.892 62.12 181.116 62.172 181.292 62.276C181.472 62.376 181.604 62.524 181.688 62.72C181.776 62.916 181.82 63.156 181.82 63.44L181.808 63.68H179.99C179.99 64.008 180.06 64.28 180.2 64.496C180.344 64.712 180.544 64.82 180.8 64.82C180.996 64.82 181.158 64.778 181.286 64.694C181.418 64.61 181.536 64.492 181.64 64.34L181.76 64.43C181.672 64.582 181.572 64.704 181.46 64.796C181.352 64.888 181.232 64.956 181.1 65C180.972 65.04 180.832 65.06 180.68 65.06ZM179.99 63.44H181.25C181.25 63.092 181.198 62.826 181.094 62.642C180.99 62.454 180.832 62.36 180.62 62.36C180.5 62.36 180.392 62.408 180.296 62.504C180.204 62.596 180.13 62.724 180.074 62.888C180.018 63.048 179.99 63.232 179.99 63.44ZM182.596 65V62.9C182.596 62.72 182.57 62.576 182.518 62.468C182.47 62.356 182.356 62.3 182.176 62.3H182.086V62.18H182.596C182.736 62.18 182.844 62.198 182.92 62.234C183 62.27 183.056 62.34 183.088 62.444C183.12 62.548 183.136 62.7 183.136 62.9V64.46L184.396 62.18H184.936V65H184.396V62.72L183.136 65H182.596ZM183.766 61.874C183.57 61.874 183.41 61.828 183.286 61.736C183.162 61.644 183.062 61.53 182.986 61.394L183.106 61.304C183.182 61.38 183.268 61.44 183.364 61.484C183.464 61.524 183.598 61.544 183.766 61.544C183.934 61.544 184.066 61.524 184.162 61.484C184.262 61.44 184.35 61.38 184.426 61.304L184.546 61.394C184.47 61.53 184.37 61.644 184.246 61.736C184.122 61.828 183.962 61.874 183.766 61.874Z" fill="#B1CBD0"/>
<path d="M73.6348 65.75H118.154V66.05H73.6348V65.75Z" fill="#B1CBD0"/>
</svg>
